<svg width="12" height="13" viewBox="0 0 12 13" fill="none" xmlns="http://www.w3.org/2000/svg">
<mask id="mask0_0_350" style="mask-type:luminance" maskUnits="userSpaceOnUse" x="0" y="0" width="12" height="13">
<path d="M0 0.853271H12V12.7595H0V0.853271Z" fill="white"/>
</mask>
<g mask="url(#mask0_0_350)">
<path d="M11.3494 9.25032C10.9665 9.01196 10.439 8.79314 9.86067 8.62512C9.29017 8.46491 8.72748 8.37504 8.27812 8.37504C7.66855 8.37504 7.31296 8.53915 7.21137 8.86739C7.21137 8.86739 7.17229 9.00415 7.1254 9.16436C7.12149 9.17217 7.12149 9.17999 7.11759 9.19171L7.01208 9.55511C6.88704 9.52385 6.77763 9.45742 6.68776 9.36364L3.46015 6.06179C3.3312 5.93284 3.26477 5.757 3.26477 5.56944C3.28821 5.56162 3.30775 5.55772 3.3312 5.5499C3.45233 5.56162 3.56174 5.54209 3.63989 5.49519L4.1127 5.24121C4.23774 5.17087 4.34325 5.11226 4.35497 5.10835C4.36669 5.10053 4.37841 5.09663 4.39014 5.08881C5.01143 4.74886 4.58942 3.47891 4.03455 2.49422C3.87043 2.20506 3.0186 0.755371 2.25272 0.755371C2.15894 0.755371 2.06907 0.778816 1.98701 0.821799C1.9831 0.825706 1.9792 0.825707 1.97529 0.829614L1.71739 0.970285C1.70567 0.974192 1.69785 0.982008 1.68613 0.985915C1.30319 1.19692 1.02576 1.41965 0.728788 1.7557C0.537319 1.97843 0.37711 2.21678 0.259885 2.46687C0.0176184 2.97484 -0.0527162 3.5219 0.0606017 4.01034C0.216903 5.48347 1.40088 7.44505 3.31557 9.40272C5.11303 11.2432 7.21137 12.517 8.79391 12.728C8.95021 12.7515 9.09088 12.7593 9.23155 12.7593C9.71218 12.7593 10.1381 12.6342 10.5367 12.3802C11.1541 11.9817 11.5683 11.4229 11.8691 10.5633C11.873 10.5515 11.8809 10.5359 11.8848 10.5203L11.9277 10.3679C11.9473 10.3014 11.9629 10.2546 11.9629 10.2506C11.9668 10.2428 11.9707 10.2311 11.9746 10.2194C12.0684 9.89506 11.8574 9.57074 11.3494 9.25032Z" fill="#002A24"/>
</g>
</svg>
