<svg width="14" height="15" viewBox="0 0 14 15" fill="none" xmlns="http://www.w3.org/2000/svg">
<mask id="mask0_0_336" style="mask-type:luminance" maskUnits="userSpaceOnUse" x="0" y="0" width="14" height="15">
<path d="M0 0.806396H14V14.8064H0V0.806396Z" fill="white"/>
</mask>
<g mask="url(#mask0_0_336)">
<path d="M11.9498 12.7562C10.6844 14.0215 8.93444 14.8064 7 14.8064C5.06556 14.8064 3.31985 14.0215 2.05025 12.7562C0.784927 11.4908 0 9.74083 0 7.8064C0 5.87625 0.784927 4.12625 2.05025 2.85664C3.31985 1.59132 5.06985 0.806396 7 0.806396C8.93444 0.806396 10.6844 1.59132 11.9498 2.85664C13.2151 4.12625 14 5.87625 14 7.8064C14 9.74083 13.2151 11.4908 11.9498 12.7562ZM11.0705 8.31681C11.019 9.10174 10.8517 9.85235 10.5858 10.5558C11.0061 10.8088 11.4007 11.1048 11.7567 11.4351C12.4301 10.5558 12.8634 9.48348 12.962 8.31681H11.0705ZM10.5858 5.05701C10.8517 5.76044 11.019 6.51534 11.0705 7.30027H12.962C12.8634 6.12931 12.4301 5.05701 11.7567 4.17772C11.4007 4.50799 11.0061 4.80395 10.5858 5.05701ZM8.47549 2.00738C8.5913 2.11032 8.70711 2.21755 8.81863 2.32907C9.3462 2.86093 9.80086 3.46571 10.1569 4.12625C10.4871 3.92466 10.7917 3.68875 11.0748 3.42711C10.3542 2.7537 9.46201 2.25615 8.47549 2.00738ZM3.84314 4.12625C4.19914 3.46571 4.6538 2.86093 5.18137 2.32907C5.29289 2.21755 5.4087 2.11032 5.52451 2.00738C4.53799 2.25615 3.65012 2.7537 2.92525 3.42711C3.20833 3.68875 3.51287 3.92466 3.84314 4.12625ZM2.92953 7.30027C2.98101 6.51534 3.14828 5.76044 3.41422 5.05701C2.99387 4.80395 2.59926 4.50799 2.24326 4.17772C1.56985 5.05701 1.13664 6.12931 1.03799 7.30027H2.92953ZM3.41422 10.5558C3.14828 9.85235 2.98101 9.10174 2.92953 8.31681H1.03799C1.13664 9.48348 1.56985 10.5558 2.24326 11.4351C2.59926 11.1048 2.99387 10.8088 3.41422 10.5558ZM5.52451 13.6054C5.4087 13.5025 5.29289 13.3952 5.18137 13.2837C4.6538 12.7562 4.19914 12.1514 3.84314 11.4865C3.51287 11.6924 3.20833 11.9283 2.92525 12.19C3.65012 12.8634 4.53799 13.3566 5.52451 13.6054ZM6.49387 5.00554V2.52208C6.2837 2.68507 6.0864 2.86093 5.90196 3.04966C5.4473 3.50431 5.05699 4.01902 4.74816 4.58948C5.29289 4.81252 5.88051 4.95407 6.49387 5.00554ZM6.49387 7.30027V6.02637C5.73039 5.97061 5.00552 5.79475 4.32782 5.51596C4.12623 6.07784 3.99326 6.67833 3.95037 7.30027H6.49387ZM6.49387 9.59071V8.31681H3.95037C3.99326 8.93875 4.12623 9.53495 4.32782 10.0968C5.00552 9.81804 5.73039 9.64218 6.49387 9.59071ZM6.49387 13.0907V10.6073C5.88051 10.6587 5.29289 10.8046 4.74816 11.0233C5.05699 11.5938 5.4473 12.1128 5.90196 12.5631C6.0864 12.7519 6.2837 12.9277 6.49387 13.0907ZM7.50613 10.6073V13.0907C7.7163 12.9277 7.9136 12.7519 8.09804 12.5631C8.5527 12.1128 8.94302 11.5938 9.25184 11.0276C8.70711 10.8046 8.11949 10.6587 7.50613 10.6073ZM7.50613 8.31681V9.59071C8.26961 9.64218 8.99449 9.81804 9.67218 10.0968C9.87377 9.53495 10.0067 8.93446 10.0539 8.31681H7.50613ZM7.50613 6.02637V7.30027H10.0539C10.0067 6.67833 9.87377 6.07784 9.67218 5.51596C8.99878 5.79475 8.26961 5.97061 7.50613 6.02637ZM7.50613 2.52208V5.00554C8.11949 4.95407 8.70711 4.81252 9.25184 4.58948C8.94302 4.01902 8.5527 3.50431 8.09804 3.04966C7.9136 2.86093 7.7163 2.68507 7.50613 2.52208ZM8.47549 13.6054C9.46201 13.3566 10.3542 12.8634 11.0748 12.19C10.7917 11.9283 10.4871 11.6924 10.1569 11.4865C9.80086 12.1514 9.3462 12.7562 8.81863 13.2837C8.70711 13.3952 8.5913 13.5025 8.47549 13.6054Z" fill="#002A24"/>
</g>
</svg>
