<svg width="595" height="276" viewBox="0 0 595 276" fill="none" xmlns="http://www.w3.org/2000/svg">
<path d="M-267.125 165.592C-264.727 169.982 -262.137 174.215 -260.124 178.687C-245.625 209.888 -219.936 230.465 -187.991 244.847C-179.887 248.518 -171.596 252.037 -163.112 254.39C-91.7484 274.244 -20.1359 285.141 51.9592 274.496C96.9448 267.829 141.644 259.54 187.215 256.187C231.363 252.915 276.482 254.503 321.211 254.781C368.99 255.123 416.869 256.855 462.599 245.397C504.809 234.806 549.038 228.444 576.312 196.687C586.923 184.366 595.961 159.937 595.99 144.349C596.014 127.521 584.673 100.011 570.082 70.8158C553.623 48.0389 541.12 39.9817 518.242 30.5815C444.449 0.245267 368.122 0.172861 290.383 2.5052C238.423 4.0304 185.873 0.775367 133.82 2.14976C83.3881 3.43682 33.4429 8.19926 -16.8903 10.7962C-29.2638 11.4673 -41.9277 9.51386 -54.4911 9.33399C-83.0413 8.98841 -112.274 5.94436 -139.956 9.5312C-172.768 13.7591 -203.654 25.4631 -230.229 43.096C-264.301 65.6233 -277.585 98.6379 -273.895 138.915C-273.693 141.303 -273.683 143.697 -273.58 146.09C-271.366 152.643 -269.245 159.115 -267.125 165.592Z" fill="#BDCC82"/>
</svg>
