<svg width="596" height="239" viewBox="0 0 596 239" fill="none" xmlns="http://www.w3.org/2000/svg">
<path d="M689.036 152.164C687.117 156.296 685.043 160.281 683.434 164.489C671.844 193.847 651.194 213.271 625.478 226.902C618.954 230.381 612.279 233.718 605.445 235.961C547.955 254.884 490.234 265.396 432.053 255.679C395.749 249.592 359.67 241.982 322.905 239.009C287.288 236.108 250.904 237.774 214.831 238.209C176.297 238.716 137.688 240.529 100.768 229.946C66.6886 220.163 30.996 214.36 8.89291 184.642C0.294222 173.112 -7.0768 150.205 -7.15196 135.565C-7.22713 119.762 1.82755 93.8822 13.4979 66.4073C26.6966 44.9528 36.7535 37.3374 55.1735 28.4205C114.588 -0.355978 176.146 -0.720416 238.853 1.16804C280.764 2.39861 323.136 -0.862405 365.122 0.226178C405.801 1.23903 446.098 5.51764 486.702 7.76107C496.683 8.34322 506.89 6.4595 517.022 6.24178C540.047 5.80635 563.614 2.83404 585.952 6.09506C612.43 9.93823 637.379 20.8099 658.871 37.2664C686.426 58.2903 697.249 89.2439 694.408 127.084C694.253 129.327 694.253 131.576 694.177 133.824C692.414 139.986 690.725 146.073 689.036 152.164Z" fill="#E2F5F3"/>
</svg>
