<svg width="595" height="203" viewBox="0 0 595 203" fill="none" xmlns="http://www.w3.org/2000/svg">
<path d="M-101.189 130.244C-99.2695 133.78 -97.195 137.191 -95.5865 140.793C-83.9963 165.922 -63.3464 182.548 -37.6305 194.215C-31.1063 197.193 -24.4318 200.049 -17.597 201.969C39.893 218.166 97.6135 227.163 155.795 218.846C192.099 213.637 228.177 207.122 264.942 204.578C300.56 202.095 336.944 203.521 373.017 203.894C411.551 204.327 450.16 205.879 487.08 196.82C521.159 188.447 556.852 183.48 578.955 158.043C587.553 148.174 594.924 128.566 595 116.036C595.075 102.509 586.02 80.3578 574.35 56.8408C561.151 38.477 551.094 31.9587 532.674 24.3263C473.26 -0.304697 411.701 -0.616635 348.995 0.999774C307.084 2.05307 264.712 -0.738169 222.725 0.193595C182.047 1.06054 141.749 4.72278 101.146 6.64303C91.1644 7.14132 80.9573 5.52896 70.8252 5.34261C47.8002 4.9699 24.234 2.42578 1.89541 5.21702C-24.5821 8.50656 -49.5314 17.812 -71.0231 31.8979C-98.578 49.8931 -109.402 76.3876 -106.56 108.777C-106.405 110.697 -106.405 112.621 -106.33 114.545C-104.566 119.82 -102.877 125.03 -101.189 130.244Z" fill="#BDCC82"/>
</svg>
