<svg width="596" height="219" viewBox="0 0 596 219" fill="none" xmlns="http://www.w3.org/2000/svg">
<path d="M689.036 139.431C687.117 143.217 685.043 146.868 683.434 150.724C671.844 177.626 651.194 195.424 625.478 207.915C618.954 211.102 612.279 214.16 605.445 216.216C547.955 233.554 490.234 243.187 432.053 234.283C395.749 228.706 359.67 221.732 322.905 219.009C287.288 216.35 250.904 217.877 214.831 218.276C176.297 218.74 137.688 220.401 100.768 210.703C66.6886 201.739 30.996 196.422 8.89291 169.19C0.294222 158.626 -7.0768 137.635 -7.15196 124.221C-7.22713 109.74 1.82755 86.026 13.4979 60.8502C26.6966 41.191 36.7535 34.2129 55.1735 26.0422C114.588 -0.326189 176.146 -0.660131 238.853 1.0703C280.764 2.19789 323.136 -0.790237 365.122 0.207251C405.801 1.13535 446.098 5.05591 486.702 7.11161C496.683 7.64505 506.89 5.91896 517.022 5.71946C540.047 5.32046 563.614 2.59689 585.952 5.58501C612.43 9.10658 637.379 19.0685 658.871 34.1479C686.426 53.4124 697.249 81.7758 694.408 116.449C694.253 118.505 694.253 120.565 694.177 122.625C692.414 128.272 690.725 133.849 689.036 139.431Z" fill="#E2F5F3"/>
</svg>
