<svg width="596" height="265" viewBox="0 0 596 265" fill="none" xmlns="http://www.w3.org/2000/svg">
<path d="M688.601 164.858C686.488 169.334 684.203 173.652 682.432 178.211C669.67 210.019 646.931 231.063 618.615 245.831C611.43 249.6 604.081 253.215 596.555 255.646C533.25 276.147 469.692 287.536 405.626 277.008C365.65 270.414 325.923 262.168 285.44 258.948C246.22 255.805 206.156 257.61 166.434 258.081C124.003 258.63 81.4893 260.594 40.835 249.128C3.30915 238.529 -35.9934 232.242 -60.3319 200.045C-69.8003 187.554 -77.9168 162.735 -77.9996 146.875C-78.0824 129.753 -68.1119 101.714 -55.2612 71.9472C-40.7276 48.7028 -29.6535 40.4522 -9.37051 30.7914C56.0528 -0.385675 123.838 -0.780516 192.886 1.26548C239.036 2.59871 285.694 -0.934349 331.926 0.245046C376.719 1.3424 421.092 5.97794 465.802 8.40852C476.793 9.03924 488.033 6.99837 499.19 6.76249C524.543 6.29073 550.493 3.07047 575.091 6.60353C604.246 10.7673 631.719 22.5459 655.384 40.3753C685.726 63.153 697.644 96.6888 694.516 137.686C694.345 140.116 694.345 142.552 694.262 144.988C692.32 151.664 690.46 158.258 688.601 164.858Z" fill="#E2F5F3"/>
</svg>
