<svg width="595" height="223" viewBox="0 0 595 223" fill="none" xmlns="http://www.w3.org/2000/svg">
<path d="M-101.689 141.977C-99.7695 145.833 -97.695 149.551 -96.0865 153.477C-84.4963 180.87 -63.8464 198.994 -38.1305 211.712C-31.6063 214.958 -24.9318 218.071 -18.097 220.165C39.393 237.82 97.1135 247.629 155.295 238.562C191.599 232.883 227.677 225.782 264.442 223.009C300.06 220.302 336.444 221.856 372.517 222.262C411.051 222.735 449.66 224.426 486.58 214.552C520.659 205.424 556.352 200.01 578.455 172.281C587.053 161.523 594.424 140.149 594.5 126.49C594.575 111.745 585.52 87.5972 573.85 61.9616C560.651 41.9434 550.594 34.8378 532.174 26.5179C472.76 -0.332147 411.201 -0.672188 348.495 1.08984C306.584 2.23804 264.212 -0.804671 222.225 0.211036C181.547 1.15609 141.249 5.14826 100.646 7.2415C90.6644 7.78468 80.4573 6.02707 70.3252 5.82392C47.3002 5.41764 23.734 2.64432 1.39541 5.68702C-25.0821 9.27291 -50.0314 19.4167 -71.5231 34.7716C-99.078 54.388 -109.902 83.2694 -107.06 118.576C-106.905 120.67 -106.905 122.767 -106.83 124.865C-105.066 130.615 -103.377 136.294 -101.689 141.977Z" fill="#BDCC82"/>
</svg>
