<svg width="127" height="126" viewBox="0 0 127 126" fill="none" xmlns="http://www.w3.org/2000/svg">
<path d="M32.8901 18.2723C34.863 17.0676 37.1503 16.2798 39.3288 15.9806C39.8735 15.9058 40.4804 15.8901 41.0281 15.9367C41.5136 15.9241 41.9463 16.2166 42.1984 16.5745C42.4506 16.9323 42.4663 17.5392 42.2329 17.9096C41.9996 18.28 41.6417 18.5322 41.1562 18.5447C39.2733 18.5326 37.3407 18.9469 35.542 19.8435C34.042 20.5503 31.9509 21.8796 30.7281 23.9152C29.5023 25.8295 29.2599 28.2041 29.0145 30.4575L29.0176 30.5788C28.7722 32.8321 28.6512 35.2037 28.5894 37.513C28.528 42.1906 28.8339 46.9803 29.6222 51.636C30.2017 55.2648 31.1736 59.9765 33.6486 64.1029C36.0613 68.1701 39.6005 71.1759 43.3945 72.2925C43.7617 72.4044 44.129 72.5164 44.4931 72.507C44.6736 72.4416 44.9164 72.4353 45.1 72.4913C47.8451 72.967 50.6802 72.2257 53.9694 70.2582C55.2267 69.5577 56.4776 68.6145 57.965 67.4222C59.5707 66.1055 61.1763 64.7887 62.9594 63.2852C66.3449 60.3435 69.4846 57.2867 72.3815 54.2362C74.2143 52.3063 75.5118 50.8153 76.6257 49.2683C77.9729 47.3509 78.9623 45.6857 79.6498 44.089C80.3933 42.3087 80.5922 40.6031 80.3118 39.1529C79.9007 37.3416 78.8267 35.7297 77.8243 34.541C77.5721 34.1831 77.3231 33.9467 77.0087 33.5297C76.5698 32.9945 76.551 32.2662 77.0239 31.7682C77.2604 31.5191 77.6214 31.3884 78.0478 31.4381C78.4119 31.4287 78.7201 31.6029 78.91 31.9016C80.1022 33.3891 81.4813 35.0539 82.2628 37.0984C83.0412 39.0217 83.1568 41.1442 82.6063 43.3446C82.1647 45.0564 81.303 46.9613 79.9589 49C78.8512 50.7898 77.4386 52.5266 75.7272 54.4534C73.0108 57.4386 69.8743 60.6167 66.0157 64.0564C64.3541 65.5568 62.5711 67.0604 60.8472 68.5017C59.4189 69.6317 57.9314 70.8239 56.3786 71.8357C52.6755 74.239 49.302 75.2978 46.0777 75.0774C45.7727 75.0246 45.53 75.0308 45.1036 74.9811C44.9231 75.0465 44.6803 75.0528 44.4376 75.059C44.1326 75.0062 43.7062 74.9565 43.3389 74.8445C42.4118 76.5688 42.1041 78.763 42.3567 81.4893C42.5345 83.6709 43.0764 85.8431 43.9202 87.9469C45.7323 92.2725 48.6772 95.7795 52.434 97.8079L52.4963 97.8671C54.2206 98.7942 56.1191 99.4132 58.0083 99.668C56.3767 95.277 56.9859 90.6458 59.6369 87.4802C61.3451 85.4321 63.9249 84.2116 66.4147 84.208C69.2095 84.2573 71.7338 85.5889 73.1844 87.6769C74.5729 89.7058 74.701 92.3139 73.553 94.8941C72.6353 96.9826 70.9799 98.7257 68.7674 100.058C66.8536 101.201 64.6845 101.864 62.3223 102.107C64.2119 104.73 67.1254 107.024 70.6861 108.511C74.8007 110.287 79.3696 110.837 83.5398 110.061C85.7152 109.641 87.7007 108.921 89.5554 107.841C91.2296 106.826 92.773 105.45 94.0051 103.779C96.4725 100.557 97.642 96.4582 97.2366 92.5213C97.0902 91.5535 96.9437 90.5856 96.6168 89.6831C96.4175 89.0202 96.7628 88.2826 97.4879 88.1424C98.1508 87.9431 98.8884 88.2884 99.15 89.0104C100.539 93.4077 100.123 98.4589 97.8049 102.77C95.5462 107.018 91.8028 110.212 87.2282 111.788C82.6535 113.364 77.4311 113.377 72.4731 111.865C70.699 111.365 69.0401 110.618 67.4994 109.747C64.0507 107.893 61.2492 105.232 59.4093 102.182C57.8874 102.04 56.4246 101.834 54.9556 101.387C50.2434 99.99 46.0879 96.6358 43.3576 92.0302C42.0252 89.8177 41.0538 87.4743 40.4433 85.0002C39.7581 81.9815 39.5646 79.193 39.9905 76.8743C40.2051 75.7756 40.5442 74.7952 40.9455 73.8739C37.6898 72.4398 34.7109 69.9661 32.4415 66.7454C30.0445 63.285 28.416 59.0153 27.3599 53.3949C26.4471 48.6209 25.9545 43.6539 26.0096 38.7334C26.006 36.2436 26.1239 33.7507 26.363 31.2547L26.4159 30.9497C26.5959 28.5159 26.8351 26.0198 27.8679 23.6854C28.6674 21.7215 30.441 19.8538 32.8901 18.2723ZM60.0673 92.3881C59.5106 94.3458 59.6883 96.5275 60.4139 98.7557C60.5447 99.1167 60.6755 99.4777 60.8062 99.8387C62.02 99.8073 63.2898 99.5923 64.435 99.2591C66.4236 98.6612 68.16 97.7054 69.4016 96.3981C70.8827 94.9631 71.6853 93.1205 71.7037 91.4803C71.6818 90.6307 71.4171 89.7873 70.9128 89.0716C70.533 88.4741 69.9135 88.0043 69.235 87.5967C69.1105 87.4785 68.9891 87.4816 68.8646 87.3634C67.1434 86.5576 65.08 86.6109 63.4058 87.6258C61.8561 88.759 60.624 90.4305 60.0673 92.3881Z" fill="#BABABA"/>
<path d="M71.8639 27.3458C72.4583 26.8446 73.2331 26.278 74.0173 26.0756C74.923 25.87 75.782 26.2122 76.5851 26.738C77.3912 27.3852 77.9609 28.2814 78.4684 29.1185C78.9167 30.0179 79.365 30.9172 79.6951 31.9411C79.8259 32.3021 79.468 32.5542 79.1662 32.6228C78.7089 33.7277 77.2649 34.2508 75.9857 34.1017C75.0707 33.9431 74.2086 33.4795 73.4678 33.0128C72.7892 32.6053 72.0484 32.1386 71.5472 31.5442C70.9838 30.8908 70.6009 30.1719 70.6412 29.3814C70.6815 28.5909 71.2105 27.9092 71.8639 27.3458Z" fill="#42A081"/>
<path d="M50.0683 18.0101C49.9066 18.8038 49.6858 19.6597 49.216 20.2791C48.6279 21.023 47.7845 21.2877 46.8727 21.2506C45.8394 21.2165 44.859 20.8774 43.8754 20.417C42.8919 19.9566 41.9675 19.4339 41.1613 18.7867C40.7909 18.5534 40.962 18.1239 41.1393 17.9371C40.8061 16.7918 41.5621 15.497 42.6388 14.8619C43.4168 14.4167 44.3847 14.2703 45.2343 14.2483C46.0217 14.1673 46.8091 14.0862 47.6027 14.2479C48.3964 14.4096 49.1963 14.814 49.6384 15.4706C50.1458 16.3077 50.1678 17.1574 50.0683 18.0101Z" fill="#42A081"/>
<path d="M86.0608 77.9C88.4758 73.4921 94.1753 71.9688 98.7911 74.4977C103.407 77.0266 105.191 82.65 102.776 87.0578C100.361 91.4657 94.6615 92.9889 90.0458 90.46C85.43 87.9312 83.6458 82.3078 86.0608 77.9Z" fill="#42A081"/>
<path d="M90.3587 80.3103C89.1982 82.405 90.0577 85.1156 92.2738 86.2729C94.4899 87.4303 97.2659 86.7513 98.4264 84.6565C99.5868 82.5618 98.7274 79.8512 96.5112 78.6939C94.2329 77.4774 91.5191 78.2155 90.3587 80.3103Z" fill="#4CAE91"/>
<path d="M26.7308 47.9453C27.4465 47.441 28.3024 47.6618 29.0432 48.1285C29.7871 48.7166 30.2946 49.5537 30.9203 50.2662C31.4837 50.9197 31.9849 51.5141 32.6075 52.1053C34.9172 54.5355 37.703 56.5891 40.719 58.1508C43.7351 59.7126 46.9845 60.904 50.3396 61.4854C53.816 62.0636 57.2768 62.0349 60.6628 61.4617C61.6307 61.3152 62.5363 61.1096 63.4419 60.904C64.3475 60.6985 65.25 60.3715 66.0965 60.2282C66.943 60.0849 68.0386 60.1781 68.546 61.0152C68.9912 61.7931 68.7735 62.7704 67.9333 63.1565C67.5723 63.2873 67.2704 63.3558 66.844 63.3061C64.3919 64.7662 61.4354 65.5105 58.5255 65.7071C55.5565 65.966 52.5127 65.6802 49.5808 65.0272C46.5899 64.4364 43.7109 63.4784 40.9438 62.1531C38.1768 60.8278 35.584 59.1944 33.1686 57.3742C30.8123 55.4917 28.6302 53.3011 26.806 50.8583C26.6161 50.5596 26.3049 50.264 26.115 49.9653C25.9873 49.7256 25.9842 49.6043 26.1615 49.4175C25.9654 48.876 26.3138 48.2597 26.7308 47.9453Z" fill="#42A081"/>
</svg>
