<svg width="178" height="160" viewBox="0 0 178 160" fill="none" xmlns="http://www.w3.org/2000/svg">
<mask id="mask0_0_924" style="mask-type:luminance" maskUnits="userSpaceOnUse" x="80" y="0" width="18" height="17">
<path d="M80.724 0H97.4926V16.2009H80.724V0Z" fill="white"/>
</mask>
<g mask="url(#mask0_0_924)">
<path d="M96.7623 7.91849C96.7623 8.43887 96.7113 8.95561 96.6131 9.46871C96.5112 9.97817 96.3583 10.4731 96.1582 10.9571C95.9617 11.4374 95.7142 11.8959 95.4267 12.329C95.1356 12.762 94.8081 13.1623 94.4406 13.5298C94.073 13.901 93.6691 14.2285 93.2361 14.5197C92.803 14.8071 92.3481 15.0509 91.8642 15.2511C91.3838 15.4512 90.8889 15.6004 90.3758 15.7023C89.8663 15.8042 89.3496 15.8552 88.8292 15.8552C88.3088 15.8552 87.7921 15.8042 87.2826 15.7023C86.7695 15.6004 86.2746 15.4512 85.7943 15.2511C85.3103 15.0509 84.8554 14.8071 84.4224 14.5197C83.9893 14.2285 83.5854 13.901 83.2179 13.5298C82.8503 13.1623 82.5228 12.762 82.2317 12.329C81.9406 11.8959 81.6968 11.4374 81.4966 10.9571C81.3001 10.4731 81.1473 9.97817 81.0454 9.46871C80.9435 8.95561 80.8925 8.43887 80.8962 7.91849C80.8925 7.39811 80.9435 6.88137 81.0454 6.37191C81.1473 5.85881 81.3001 5.36391 81.4966 4.88356C81.6968 4.39957 81.9406 3.94469 82.2317 3.51165C82.5228 3.07861 82.8503 2.67468 83.2179 2.30714C83.5854 1.9396 83.9893 1.60845 84.4224 1.32097C84.8554 1.02985 85.3103 0.786033 85.7943 0.585887C86.2746 0.389381 86.7695 0.236542 87.2826 0.13465C87.7921 0.0327577 88.3088 -0.0181885 88.8292 -0.0181885C89.3496 -0.0181885 89.8663 0.0327577 90.3758 0.13465C90.8889 0.236542 91.3838 0.389381 91.8642 0.585887C92.3481 0.786033 92.803 1.02985 93.2361 1.32097C93.6691 1.60845 94.073 1.9396 94.4406 2.30714C94.8081 2.67468 95.1356 3.07861 95.4267 3.51165C95.7142 3.94469 95.9617 4.39957 96.1582 4.88356C96.3583 5.36391 96.5112 5.85881 96.6131 6.37191C96.7113 6.88137 96.7623 7.39811 96.7623 7.91849Z" fill="#BDB5DA"/>
</g>
<path d="M96.0152 8.15135C96.0152 8.39881 95.9679 8.64262 95.8769 8.88643C95.786 9.12661 95.6477 9.35951 95.4694 9.58876C95.2874 9.81802 95.0654 10.0327 94.8034 10.2365C94.5414 10.4439 94.243 10.6332 93.9082 10.8042C93.5735 10.9789 93.2096 11.1353 92.8165 11.2736C92.4235 11.4083 92.0123 11.5247 91.5756 11.6193C91.139 11.7139 90.6877 11.7831 90.2256 11.834C89.7598 11.8813 89.294 11.9032 88.8209 11.9032C88.3478 11.9032 87.882 11.8813 87.4163 11.834C86.9541 11.7831 86.5029 11.7139 86.0662 11.6193C85.6295 11.5247 85.2147 11.4083 84.8216 11.2736C84.4323 11.1353 84.0684 10.9789 83.7336 10.8042C83.3988 10.6332 83.1004 10.4439 82.8384 10.2365C82.5764 10.0327 82.3544 9.81802 82.1724 9.58876C81.9941 9.35951 81.8558 9.12661 81.7649 8.88643C81.6703 8.64262 81.6266 8.39881 81.6266 8.15135C81.6266 7.90754 81.6703 7.66373 81.7649 7.41991C81.8558 7.17974 81.9941 6.9432 82.1724 6.71759C82.3544 6.48833 82.5764 6.27363 82.8384 6.06984C83.1004 5.86242 83.3988 5.67319 83.7336 5.49852C84.0684 5.32748 84.4323 5.17101 84.8216 5.03272C85.2147 4.89808 85.6295 4.78163 86.0662 4.68702C86.5029 4.5924 86.9541 4.51962 87.4163 4.47232C87.882 4.42501 88.3478 4.39954 88.8209 4.39954C89.294 4.39954 89.7598 4.42501 90.2256 4.47232C90.6877 4.51962 91.139 4.5924 91.5756 4.68702C92.0123 4.78163 92.4235 4.89808 92.8165 5.03272C93.2096 5.17101 93.5735 5.32748 93.9082 5.49852C94.243 5.67319 94.5414 5.86242 94.8034 6.06984C95.0654 6.27363 95.2874 6.48833 95.4694 6.71759C95.6477 6.9432 95.786 7.17974 95.8769 7.41991C95.9679 7.66373 96.0152 7.90754 96.0152 8.15135Z" fill="#AAD9DD"/>
<path d="M81.9978 45.9863H95.6514V59.5852H81.9978V45.9863Z" fill="#E9BBAE"/>
<path d="M110.224 30.9243C110.224 31.3209 110.195 31.714 110.14 32.0997C110.082 32.4891 110.002 32.8675 109.889 33.2314C109.78 33.5953 109.645 33.9447 109.485 34.2722C109.329 34.6033 109.147 34.9054 108.943 35.1856C108.743 35.4658 108.521 35.7169 108.281 35.9352C108.044 36.1536 107.793 36.3391 107.527 36.492C107.262 36.6448 106.989 36.7576 106.709 36.834C106.428 36.9105 106.141 36.9505 105.857 36.9505C105.57 36.9505 105.286 36.9105 105.005 36.834C104.722 36.7576 104.449 36.6448 104.183 36.492C103.921 36.3391 103.666 36.1536 103.43 35.9352C103.19 35.7169 102.971 35.4658 102.767 35.1856C102.564 34.9054 102.385 34.6033 102.225 34.2722C102.065 33.9447 101.93 33.5953 101.821 33.2314C101.712 32.8675 101.628 32.4891 101.574 32.0997C101.516 31.714 101.49 31.3209 101.49 30.9243C101.49 30.5313 101.516 30.1383 101.574 29.7489C101.628 29.3632 101.712 28.9847 101.821 28.6208C101.93 28.2533 102.065 27.9076 102.225 27.58C102.385 27.2489 102.564 26.9469 102.767 26.6667C102.971 26.3864 103.19 26.1354 103.43 25.917C103.666 25.695 103.921 25.5094 104.183 25.3602C104.449 25.2074 104.722 25.0946 105.005 25.0182C105.286 24.9381 105.57 24.9017 105.857 24.9017C106.141 24.9017 106.428 24.9381 106.709 25.0182C106.989 25.0946 107.262 25.2074 107.527 25.3602C107.793 25.5094 108.044 25.695 108.281 25.917C108.521 26.1354 108.743 26.3864 108.943 26.6667C109.147 26.9469 109.329 27.2489 109.485 27.58C109.645 27.9076 109.78 28.2533 109.889 28.6208C110.002 28.9847 110.082 29.3632 110.14 29.7489C110.195 30.1383 110.224 30.5313 110.224 30.9243Z" fill="#E9BBAE"/>
<path d="M76.1608 30.9243C76.1608 31.3209 76.1317 31.714 76.0771 32.0997C76.0189 32.4891 75.9352 32.8675 75.8261 33.2314C75.7169 33.5953 75.5822 33.9447 75.4221 34.2722C75.2656 34.6033 75.0837 34.9054 74.8799 35.1856C74.6761 35.4658 74.4578 35.7169 74.2176 35.9352C73.9811 36.1536 73.73 36.3391 73.4643 36.492C73.1987 36.6448 72.9258 36.7576 72.6456 36.834C72.3617 36.9105 72.0779 36.9505 71.7904 36.9505C71.5066 36.9505 71.2227 36.9105 70.9389 36.834C70.6587 36.7576 70.3857 36.6448 70.1201 36.492C69.8544 36.3391 69.6034 36.1536 69.3668 35.9352C69.1266 35.7169 68.9047 35.4658 68.7045 35.1856C68.5007 34.9054 68.3188 34.6033 68.1587 34.2722C68.0022 33.9447 67.8675 33.5953 67.7584 33.2314C67.6456 32.8675 67.5655 32.4891 67.5073 32.0997C67.4527 31.714 67.4236 31.3209 67.4236 30.9243C67.4236 30.5313 67.4527 30.1383 67.5073 29.7489C67.5655 29.3632 67.6456 28.9847 67.7584 28.6208C67.8675 28.2533 68.0022 27.9076 68.1587 27.58C68.3188 27.2489 68.5007 26.9469 68.7045 26.6667C68.9047 26.3864 69.1266 26.1354 69.3668 25.917C69.6034 25.695 69.8544 25.5094 70.1201 25.3602C70.3857 25.2074 70.6587 25.0946 70.9389 25.0182C71.2227 24.9381 71.5066 24.9017 71.7904 24.9017C72.0779 24.9017 72.3617 24.9381 72.6456 25.0182C72.9258 25.0946 73.1987 25.2074 73.4643 25.3602C73.73 25.5094 73.9811 25.695 74.2176 25.917C74.4578 26.1354 74.6761 26.3864 74.8799 26.6667C75.0837 26.9469 75.2656 27.2489 75.4221 27.58C75.5822 27.9076 75.7169 28.2533 75.8261 28.6208C75.9352 28.9847 76.0189 29.3632 76.0771 29.7489C76.1317 30.1383 76.1608 30.5313 76.1608 30.9243Z" fill="#E9BBAE"/>
<path d="M106.295 30.9244C106.295 40.5751 98.4716 50.9353 88.8246 50.9353C79.1776 50.9353 71.3537 40.5751 71.3537 30.9244C71.3537 21.2774 79.1776 13.4535 88.8246 13.4535C98.4716 13.4535 106.295 21.2774 106.295 30.9244Z" fill="#E9BBAE"/>
<path d="M106.14 22.791C106.144 21.5901 105.973 20.1527 105.496 18.4533C103.695 12.0705 94.7864 2.63089 80.3322 9.39945C76.1583 7.90745 73.953 12.0705 72.1517 18.4533C70.3504 24.8361 72.8613 27.6018 72.8577 27.6018C74.2441 27.2488 78.0178 24.6724 80.3322 20.7459C80.3577 20.7022 83.2871 23.7408 84.5098 24.6687C87.6503 27.0559 91.3147 27.2488 95.0629 27.6709C99.2587 28.1476 104.954 28.9009 105.405 33.9446C105.732 31.3936 106.529 26.7357 106.14 22.791Z" fill="#BDB5DA"/>
<path d="M82.4163 33.0494C82.1688 33.0494 81.9723 32.8529 81.9723 32.6054C81.9723 31.7029 81.2336 30.9679 80.3311 30.9679C79.4287 30.9679 78.6936 31.7029 78.6936 32.6054C78.6936 32.8529 78.4934 33.0494 78.2496 33.0494C78.0058 33.0494 77.8057 32.8529 77.8057 32.6054C77.8057 31.2153 78.941 30.0836 80.3311 30.0836C81.7249 30.0836 82.8566 31.2153 82.8566 32.6054C82.8566 32.8529 82.6601 33.0494 82.4163 33.0494Z" fill="#6563A5"/>
<path d="M99.3941 33.0494C99.1503 33.0494 98.9501 32.8529 98.9501 32.6054C98.9501 31.7029 98.2151 30.9679 97.3126 30.9679C96.4101 30.9679 95.675 31.7029 95.675 32.6054C95.675 32.8529 95.4749 33.0494 95.2311 33.0494C94.9873 33.0494 94.7871 32.8529 94.7871 32.6054C94.7871 31.2153 95.9225 30.0836 97.3126 30.0836C98.7063 30.0836 99.8381 31.2153 99.8381 32.6054C99.8381 32.8529 99.6379 33.0494 99.3941 33.0494Z" fill="#6563A5"/>
<path d="M88.8219 36.7723C88.196 36.7723 87.6829 37.2854 87.6829 37.9113H89.9609C89.9609 37.2854 89.4514 36.7723 88.8219 36.7723Z" fill="#6563A5"/>
<path d="M88.8228 44.4251C90.897 44.4251 92.5855 43.0678 92.5855 41.4011H85.0601C85.0601 43.0678 86.7486 44.4251 88.8228 44.4251Z" fill="white"/>
<path d="M100.473 26.048C94.4251 26.048 89.4943 25.0618 85.8189 23.1113C83.1005 21.6739 81.725 19.8435 80.2112 17.6019C80.0365 17.3435 80.1056 16.9869 80.364 16.8122C80.626 16.6339 80.979 16.703 81.1573 16.965C82.6275 19.1412 83.8611 20.786 86.3538 22.1069C90.7243 24.4214 96.4411 24.909 100.473 24.909C100.786 24.9053 101.055 25.1601 101.055 25.4803C101.055 25.7969 100.797 26.0407 100.473 26.048Z" fill="#6563A5"/>
<path d="M93.4079 19.7418C88.7063 19.7418 83.75 17.8422 80.6532 14.7054C80.4312 14.4798 80.4349 14.1195 80.6568 13.8975C80.8825 13.6755 81.2427 13.6792 81.4647 13.9048C84.8635 17.3509 90.9443 19.2396 95.9225 18.399C96.2354 18.348 96.5266 18.5554 96.5811 18.8648C96.6321 19.1777 96.4247 19.4688 96.1117 19.5234C95.2311 19.6726 94.325 19.7418 93.4079 19.7418Z" fill="#6563A5"/>
<path d="M91.5802 15.8043C87.8175 15.8043 83.2651 13.9121 81.3109 13.1006L80.8415 12.9077C80.5504 12.7876 80.4084 12.4565 80.5285 12.1653C80.6486 11.8706 80.9798 11.7323 81.2709 11.8524L81.7476 12.0489C84.0729 13.0132 90.2556 15.5824 93.7891 14.3378C94.0838 14.2359 94.4113 14.3924 94.5169 14.6872C94.6188 14.9856 94.4623 15.3094 94.1675 15.415C93.3888 15.6879 92.5081 15.8043 91.5802 15.8043Z" fill="#6563A5"/>
<path d="M86.508 11.8048C84.4265 11.8048 82.3486 11.3863 80.5109 11.0115C80.2016 10.9497 80.0015 10.6513 80.067 10.3419C80.1289 10.0326 80.4273 9.83248 80.7366 9.89434C84.1718 10.5894 88.0655 11.3791 91.2642 9.5268C91.5335 9.37033 91.8829 9.4613 92.043 9.73423C92.1994 10.0072 92.1048 10.3529 91.8355 10.513C90.1652 11.481 88.3348 11.8048 86.508 11.8048Z" fill="#6563A5"/>
<path d="M100.271 60.3092C100.271 60.6294 100.195 60.946 100.049 61.259C99.9036 61.5756 99.6852 61.8776 99.3977 62.176C99.1103 62.4708 98.7573 62.751 98.3388 63.0166C97.9239 63.2859 97.4472 63.5297 96.9159 63.7553C96.3846 63.9846 95.806 64.1847 95.1838 64.3631C94.5579 64.5414 93.8992 64.6906 93.2041 64.8143C92.5091 64.938 91.7922 65.029 91.0571 65.0909C90.3184 65.1527 89.5724 65.1855 88.8228 65.1855C88.0695 65.1855 87.3271 65.1527 86.5884 65.0909C85.8533 65.029 85.1365 64.938 84.4414 64.8143C83.7464 64.6906 83.0877 64.5414 82.4618 64.3631C81.8395 64.1847 81.2609 63.9846 80.7296 63.7553C80.1983 63.5297 79.7216 63.2859 79.3031 63.0166C78.8883 62.751 78.5353 62.4708 78.2478 62.176C77.9603 61.8776 77.742 61.5756 77.5964 61.259C77.4472 60.946 77.3745 60.6294 77.3745 60.3092C77.3745 59.989 77.4472 59.6724 77.5964 59.3558C77.742 59.0428 77.9603 58.7371 78.2478 58.4424C78.5353 58.1476 78.8883 57.8674 79.3031 57.5981C79.7216 57.3325 80.1983 57.0887 80.7296 56.8594C81.2609 56.6338 81.8395 56.4336 82.4618 56.2553C83.0877 56.077 83.7464 55.9278 84.4414 55.8041C85.1365 55.6804 85.8533 55.5894 86.5884 55.5275C87.3271 55.462 88.0695 55.4329 88.8228 55.4329C89.5724 55.4329 90.3184 55.462 91.0571 55.5275C91.7922 55.5894 92.5091 55.6804 93.2041 55.8041C93.8992 55.9278 94.5579 56.077 95.1838 56.2553C95.806 56.4336 96.3846 56.6338 96.9159 56.8594C97.4472 57.0887 97.9239 57.3325 98.3388 57.5981C98.7573 57.8674 99.1103 58.1476 99.3977 58.4424C99.6852 58.7371 99.9036 59.0428 100.049 59.3558C100.195 59.6724 100.271 59.989 100.271 60.3092Z" fill="#E9BBAE"/>
<path d="M114.52 127.362C113.486 125.04 112.809 122.536 112.089 120.047C110.721 115.298 109.392 110.844 109.782 105.808C110.549 95.9134 116.783 87.9185 117.009 77.7911C117.012 77.6274 117.038 77.4745 117.071 77.3362C117.049 75.5968 116.991 73.901 116.889 72.278C116.376 62.8239 114.436 60.8624 109.756 60.1383C109.716 60.131 109.676 60.1237 109.64 60.1201C109.421 60.091 109.199 60.0728 108.97 60.0728C108.967 60.0728 108.967 60.0728 108.963 60.0728H108.959C103.486 60.0728 101.255 59.4505 100.029 58.639C96.0808 65.2147 81.9469 64.2977 78.3297 58.0568C77.2489 59.1339 75.4149 60.0728 68.69 60.0728H68.6863C68.6827 60.0728 68.679 60.0728 68.679 60.0728C68.4498 60.0728 68.2278 60.091 68.0095 60.1201C67.9694 60.1237 67.9331 60.131 67.893 60.1383C63.2133 60.8624 61.2737 62.8239 60.7569 72.2817C60.6587 73.9046 60.6004 75.5968 60.5786 77.3362C60.6114 77.4782 60.6368 77.6274 60.6405 77.7911C60.8661 87.9185 67.0997 95.917 67.8639 105.808C68.2533 110.844 66.925 115.298 65.5568 120.047C64.8399 122.536 64.163 125.04 63.1296 127.365C61.4301 135.196 57.0306 136.841 57.0306 136.841C57.0306 138.533 71.2627 139.909 88.8246 139.909C106.383 139.909 120.619 138.533 120.619 136.841C120.619 136.838 116.219 135.196 114.52 127.362Z" fill="#E9BBAE"/>
<path d="M114.52 127.365C113.486 125.04 112.809 122.536 112.089 120.047C110.721 115.299 109.392 110.844 109.782 105.808C110.218 100.189 112.416 95.1821 114.276 90.0511C110.404 86.7323 107.351 82.1326 105.069 77.5147C102.103 71.5212 101.663 65.848 101.565 59.3378L99.1776 57.9077C98.1186 59.3778 95.8697 67.8495 88.8246 67.8495C81.7795 67.8495 79.5306 59.3778 78.4716 57.9077L76.0844 59.3378C75.9862 65.848 75.5459 71.5212 72.5837 77.5147C70.2984 82.1326 67.2489 86.7323 63.3734 90.0511C65.2365 95.1821 67.4309 100.189 67.8675 105.808C68.2569 110.844 66.9287 115.299 65.5604 120.047C64.8435 122.536 64.163 125.04 63.1296 127.365C61.4301 135.197 57.0306 136.838 57.0306 136.838C57.0306 138.534 69.4796 147.635 87.0379 147.635H88.8719C106.43 147.635 120.619 138.534 120.619 136.838C120.619 136.838 116.219 135.197 114.52 127.365Z" fill="#BDB5DA"/>
<mask id="mask1_0_924" style="mask-type:luminance" maskUnits="userSpaceOnUse" x="25" y="141" width="26" height="19">
<path d="M25.752 141.965H50.9048V160H25.752V141.965Z" fill="white"/>
</mask>
<g mask="url(#mask1_0_924)">
<path d="M49.8511 144.913C49.7347 143.133 47.3584 142.478 45.9319 142.536C43.9123 142.598 42.726 143.548 41.0011 144.261C37.2019 145.746 33.1008 143.664 29.4763 146.223C29.3963 146.277 29.3344 146.346 29.2616 146.408C29.0651 146.354 28.8541 146.335 28.6394 146.39C28.2536 146.492 27.9698 146.772 27.766 147.06C27.6823 147.187 27.5622 147.347 27.504 147.511C27.4348 147.675 27.4021 147.838 27.3912 147.988C27.3693 148.293 27.3912 148.533 27.4603 148.737C27.4822 148.825 27.5003 148.865 27.5149 148.901C27.3402 149.028 27.191 149.188 27.0746 149.352C26.9945 149.48 26.8635 149.643 26.8162 149.822C26.7616 149.996 26.7507 150.164 26.758 150.317C26.7689 150.619 26.838 150.862 26.8926 151.026C26.9108 151.081 26.9327 151.132 26.9472 151.172C26.8999 151.23 26.8526 151.288 26.8089 151.346C26.7252 151.474 26.5979 151.637 26.5506 151.812C26.4923 151.987 26.4814 152.158 26.4851 152.307C26.496 152.613 26.5651 152.853 26.6233 153.02C26.6488 153.097 26.6852 153.18 26.6998 153.213C26.7143 153.25 26.7216 153.264 26.7216 153.268C26.6561 153.413 26.6052 153.566 26.5724 153.715C26.5506 153.857 26.4887 154.079 26.496 154.268C26.496 154.465 26.5324 154.643 26.5833 154.8C26.6306 154.96 26.6961 155.095 26.758 155.215C26.798 155.291 26.849 155.357 26.8963 155.422C26.718 155.735 26.6197 156.106 26.6233 156.452C26.6088 156.688 26.6597 156.918 26.6852 157.161C26.7252 157.376 26.7762 157.529 26.8308 157.715C27.0018 158.177 27.1801 158.573 27.5222 158.948C27.8315 159.319 28.2718 159.607 28.7158 159.767C29.1634 159.938 29.6183 159.964 30.0295 159.96C30.4407 159.945 30.8228 159.862 31.1648 159.763C31.5069 159.661 31.8126 159.538 32.0819 159.399C32.6277 159.137 33.0316 158.846 33.3009 158.628C33.5666 158.406 33.7012 158.26 33.7012 158.26C34.9603 157.511 36.1394 156.576 37.4967 156.026C38.6248 155.553 39.8111 154.956 41.0011 154.778C42.3075 154.541 43.734 154.778 45.0986 154.661C46.6452 154.483 47.8315 153.592 48.7231 152.343C49.9712 150.56 49.9712 148.661 50.5062 146.699L49.8511 144.913Z" fill="#E9BBAE"/>
</g>
<mask id="mask2_0_924" style="mask-type:luminance" maskUnits="userSpaceOnUse" x="25" y="154" width="18" height="7">
<path d="M25.752 154.076H42.5206V160H25.752V154.076Z" fill="white"/>
</mask>
<g mask="url(#mask2_0_924)">
<path d="M30.1223 159.902C29.7038 159.902 29.2853 159.847 28.8886 159.713C28.0116 159.411 27.3784 158.781 27 157.835C26.5306 156.671 26.5597 155.746 27.0837 155.091C28.0044 153.945 30.024 154.236 30.2496 154.272C30.5626 154.323 30.77 154.618 30.7227 154.927C30.6717 155.237 30.377 155.448 30.0677 155.401C29.6601 155.335 28.401 155.27 27.9716 155.808C27.6659 156.194 27.8479 156.893 28.0553 157.409C28.31 158.042 28.703 158.443 29.2562 158.632C30.9119 159.203 33.3864 157.78 33.4119 157.766C33.5356 157.671 37.5677 154.8 41.4396 154.141C41.7525 154.091 42.0437 154.298 42.0946 154.611C42.1492 154.92 41.9418 155.215 41.6288 155.266C38.0153 155.881 34.0706 158.69 34.0342 158.719C33.8995 158.799 31.9891 159.902 30.1223 159.902Z" fill="#6563A5"/>
</g>
<path d="M27.5054 155.848C27.3926 155.848 27.2834 155.815 27.1852 155.75C26.6503 155.389 26.1408 154.636 26.2099 153.897C26.3045 152.857 26.7995 152.394 27.1961 152.194C28.3642 151.594 30.0091 152.529 30.191 152.638C30.4639 152.798 30.5513 153.148 30.3948 153.417C30.2347 153.686 29.8853 153.781 29.6124 153.621C29.2012 153.377 28.1968 152.962 27.7128 153.21C27.5091 153.315 27.3817 153.581 27.3453 153.999C27.3198 154.258 27.5818 154.643 27.822 154.803C28.084 154.982 28.1532 155.335 27.9785 155.597C27.8657 155.761 27.6874 155.848 27.5054 155.848Z" fill="#6563A5"/>
<path d="M27.0315 153.661C26.8423 153.661 26.6567 153.563 26.5475 153.392C26.2127 152.849 25.9507 151.98 26.3219 151.317C26.835 150.408 27.4755 150.189 27.9194 150.167C29.2404 150.084 30.3466 151.627 30.4704 151.801C30.6523 152.06 30.5905 152.413 30.3357 152.595C30.0774 152.777 29.7244 152.715 29.5424 152.46C29.2659 152.071 28.5162 151.285 27.9776 151.306C27.7447 151.317 27.5228 151.51 27.3153 151.878C27.2207 152.045 27.3117 152.464 27.5155 152.791C27.6829 153.057 27.5992 153.41 27.3335 153.577C27.2389 153.632 27.1334 153.661 27.0315 153.661Z" fill="#6563A5"/>
<path d="M27.305 151.67C27.1122 151.67 26.9266 151.576 26.8211 151.401C26.479 150.855 26.2206 149.986 26.5954 149.32C27.1085 148.41 27.7454 148.191 28.1893 148.17C29.4994 148.104 30.6202 149.629 30.7439 149.804C30.9259 150.058 30.864 150.415 30.6056 150.597C30.3509 150.779 29.9943 150.717 29.8123 150.462C29.5358 150.073 28.7825 149.276 28.2475 149.309C28.0183 149.32 27.7963 149.512 27.5889 149.88C27.4906 150.051 27.5816 150.47 27.789 150.801C27.9528 151.066 27.8727 151.419 27.6034 151.583C27.5125 151.641 27.4069 151.67 27.305 151.67Z" fill="#6563A5"/>
<path d="M27.8633 149.392C27.6741 149.392 27.4885 149.294 27.3793 149.119C27.0554 148.599 26.9135 147.689 27.2811 147.031C27.7942 146.121 28.4346 145.902 28.8786 145.881C30.1814 145.819 31.3094 147.34 31.4295 147.515C31.6115 147.769 31.5496 148.126 31.2949 148.308C31.0365 148.49 30.6835 148.428 30.5016 148.173C30.225 147.784 29.4754 146.976 28.9368 147.02C28.7039 147.031 28.4819 147.223 28.2745 147.591C28.1399 147.831 28.2017 148.286 28.3473 148.519C28.5147 148.788 28.431 149.138 28.1653 149.305C28.0707 149.363 27.9652 149.392 27.8633 149.392Z" fill="#6563A5"/>
<mask id="mask3_0_924" style="mask-type:luminance" maskUnits="userSpaceOnUse" x="126" y="141" width="26" height="19">
<path d="M126.367 141.965H151.52V160H126.367V141.965Z" fill="white"/>
</mask>
<g mask="url(#mask3_0_924)">
<path d="M127.139 146.696C127.674 148.657 127.674 150.557 128.922 152.34C129.814 153.588 131 154.479 132.543 154.658C133.911 154.774 135.338 154.538 136.644 154.774C137.83 154.952 139.02 155.549 140.148 156.022C141.506 156.575 142.681 157.511 143.944 158.257H143.94C143.94 158.257 144.075 158.402 144.344 158.624C144.613 158.843 145.017 159.134 145.563 159.396C145.833 159.534 146.138 159.661 146.48 159.76C146.822 159.858 147.201 159.942 147.612 159.956C148.027 159.96 148.482 159.934 148.926 159.767C149.373 159.603 149.814 159.319 150.123 158.948C150.461 158.57 150.643 158.173 150.814 157.715C150.865 157.525 150.92 157.372 150.956 157.158C150.985 156.918 151.036 156.685 151.022 156.452C151.025 156.102 150.927 155.735 150.749 155.418C150.796 155.353 150.847 155.287 150.887 155.211C150.949 155.091 151.014 154.956 151.062 154.796C151.113 154.643 151.149 154.461 151.149 154.268C151.156 154.075 151.095 153.854 151.073 153.712C151.04 153.562 150.989 153.41 150.923 153.264C150.923 153.26 150.931 153.246 150.945 153.213C150.96 153.177 150.996 153.097 151.022 153.017C151.08 152.849 151.145 152.609 151.156 152.303C151.164 152.154 151.153 151.983 151.095 151.808C151.044 151.634 150.916 151.47 150.836 151.343C150.792 151.284 150.745 151.226 150.698 151.168C150.712 151.128 150.734 151.077 150.752 151.022C150.807 150.859 150.876 150.618 150.887 150.313C150.891 150.16 150.883 149.993 150.829 149.818C150.778 149.643 150.651 149.476 150.57 149.348C150.454 149.185 150.305 149.025 150.13 148.897C150.145 148.861 150.163 148.821 150.185 148.733C150.25 148.53 150.276 148.289 150.254 147.984C150.243 147.835 150.21 147.671 150.141 147.507C150.083 147.347 149.963 147.187 149.879 147.056C149.675 146.772 149.391 146.488 149.006 146.386C148.795 146.332 148.58 146.35 148.38 146.404C148.311 146.343 148.245 146.273 148.169 146.219C144.544 143.664 140.447 145.742 136.644 144.257C134.923 143.544 133.733 142.594 131.713 142.536C130.287 142.474 127.91 143.129 127.794 144.912L127.139 146.696Z" fill="#E9BBAE"/>
</g>
<mask id="mask4_0_924" style="mask-type:luminance" maskUnits="userSpaceOnUse" x="134" y="154" width="18" height="7">
<path d="M134.755 154.076H151.523V160H134.755V154.076Z" fill="white"/>
</mask>
<g mask="url(#mask4_0_924)">
<path d="M147.522 159.902C145.655 159.902 143.751 158.807 143.653 158.748C143.57 158.69 139.621 155.877 136.011 155.266C135.702 155.215 135.495 154.92 135.546 154.611C135.6 154.302 135.891 154.09 136.204 154.141C140.076 154.8 144.104 157.671 144.276 157.795C144.279 157.795 146.735 159.2 148.388 158.632C148.941 158.443 149.334 158.042 149.588 157.409C149.796 156.893 149.978 156.19 149.669 155.804C149.268 155.306 148.086 155.317 147.576 155.401C147.267 155.448 146.972 155.24 146.921 154.927C146.87 154.618 147.081 154.323 147.394 154.272C147.62 154.236 149.639 153.945 150.56 155.091C151.084 155.746 151.113 156.671 150.647 157.835C150.265 158.781 149.632 159.411 148.755 159.713C148.358 159.847 147.94 159.902 147.522 159.902Z" fill="#6563A5"/>
</g>
<path d="M150.139 155.848C149.957 155.848 149.779 155.76 149.666 155.597C149.492 155.335 149.561 154.982 149.823 154.803C150.063 154.643 150.321 154.258 150.299 153.999C150.259 153.581 150.136 153.315 149.932 153.206C149.448 152.958 148.444 153.377 148.032 153.617C147.759 153.777 147.41 153.686 147.25 153.417C147.094 153.144 147.181 152.798 147.45 152.638C147.636 152.529 149.277 151.594 150.449 152.191C150.845 152.394 151.34 152.857 151.435 153.897C151.5 154.636 150.995 155.389 150.46 155.75C150.361 155.815 150.252 155.848 150.139 155.848Z" fill="#6563A5"/>
<path d="M150.613 153.661C150.507 153.661 150.406 153.632 150.311 153.574C150.045 153.41 149.962 153.057 150.129 152.791C150.329 152.464 150.424 152.045 150.329 151.878C150.122 151.51 149.9 151.317 149.667 151.306C149.099 151.285 148.379 152.071 148.102 152.46C147.92 152.715 147.567 152.777 147.309 152.595C147.05 152.413 146.989 152.056 147.17 151.801C147.294 151.627 148.415 150.087 149.725 150.167C150.169 150.189 150.809 150.408 151.323 151.317C151.694 151.98 151.432 152.849 151.097 153.392C150.988 153.566 150.802 153.661 150.613 153.661Z" fill="#6563A5"/>
<path d="M150.339 151.67C150.237 151.67 150.132 151.641 150.041 151.583C149.771 151.419 149.691 151.066 149.855 150.8C150.059 150.469 150.154 150.047 150.055 149.88C149.848 149.512 149.626 149.319 149.397 149.308C148.836 149.265 148.105 150.073 147.832 150.458C147.65 150.717 147.297 150.779 147.039 150.597C146.78 150.415 146.718 150.058 146.9 149.803C147.024 149.629 148.148 148.108 149.455 148.169C149.899 148.191 150.536 148.41 151.049 149.319C151.424 149.985 151.162 150.855 150.827 151.401C150.718 151.576 150.528 151.67 150.339 151.67Z" fill="#6563A5"/>
<path d="M149.784 149.392C149.678 149.392 149.576 149.363 149.481 149.305C149.216 149.138 149.132 148.788 149.3 148.519C149.441 148.286 149.507 147.831 149.369 147.591C149.161 147.224 148.939 147.031 148.71 147.02C148.171 146.983 147.422 147.784 147.145 148.173C146.963 148.428 146.61 148.49 146.352 148.308C146.094 148.126 146.035 147.773 146.214 147.515C146.337 147.34 147.444 145.812 148.768 145.881C149.212 145.903 149.849 146.121 150.362 147.031C150.737 147.689 150.591 148.599 150.267 149.123C150.158 149.294 149.973 149.392 149.784 149.392Z" fill="#6563A5"/>
<path d="M128.75 144.039C127.768 143.628 126.581 143.985 125.38 144.167C122.673 144.574 119.922 144.76 117.189 144.862C108.241 145.204 99.0231 144.45 90.3841 142.001C82.9642 139.898 75.8754 136.907 69.5108 132.5C65.9846 130.055 62.553 127.263 59.6782 124.065C58.3572 122.595 57.0835 121.103 55.8608 119.552C55.2568 118.785 54.6745 117.973 54.0013 117.267C49.1614 112.172 40.6425 112.755 36.5377 118.457C34.6163 121.128 33.9504 124.581 34.7291 127.777C35.4023 130.539 37.0908 132.496 39.0741 134.41C45.2422 140.371 52.069 145.44 59.7327 149.323C67.1854 153.097 75.1803 155.644 83.3972 157.089C91.4576 158.508 99.6818 158.781 107.84 158.199C112.16 157.893 116.469 157.303 120.719 156.466C123.383 155.946 125.999 155.331 128.608 154.585C129.751 154.258 131.494 154.199 131.72 152.718C131.898 151.539 131.549 150.135 131.257 148.996C130.901 147.613 130.617 146.219 129.831 144.996C129.514 144.505 129.15 144.21 128.75 144.039Z" fill="#7DA5BC"/>
<path d="M78.2418 138.082C78.1581 138.082 78.0744 138.064 77.9979 138.028C74.8575 136.543 71.8917 134.84 69.1879 132.966C65.134 130.16 61.888 127.373 59.257 124.443C59.046 124.21 59.0642 123.85 59.3007 123.639C59.5336 123.428 59.8939 123.45 60.1049 123.683C62.6741 126.543 65.8582 129.276 69.8356 132.031C72.4921 133.868 75.3997 135.539 78.4856 136.994C78.7694 137.129 78.8895 137.471 78.7585 137.755C78.6602 137.962 78.4528 138.082 78.2418 138.082Z" fill="#6563A5"/>
<path d="M141.109 118.453C137 112.755 128.485 112.173 123.645 117.264C122.972 117.973 122.389 118.785 121.785 119.549C120.559 121.103 119.289 122.591 117.968 124.065C115.09 127.264 111.662 130.055 108.135 132.496C101.771 136.907 94.6821 139.898 87.2621 142.002C78.6231 144.451 69.4055 145.204 60.4535 144.862C58.4266 144.785 56.396 144.643 54.38 144.425C53.3429 144.312 52.3094 144.185 51.2796 144.032C50.8247 143.967 49.6493 143.53 49.2272 143.745C48.8305 143.945 48.6741 145.095 48.5358 145.491C48.2228 146.397 47.9353 147.311 47.6697 148.231C47.4368 149.047 47.2221 149.865 47.0183 150.688C46.7927 151.594 45.8138 153.275 46.8072 154.014C47.1566 154.272 47.7243 154.272 48.1318 154.352C49.1071 154.542 50.0496 154.898 51.0103 155.149C52.9681 155.655 54.9441 156.077 56.9237 156.467C61.1741 157.3 65.4826 157.889 69.8022 158.199C77.9608 158.781 86.185 158.508 94.249 157.089C102.466 155.641 110.461 153.097 117.91 149.323C125.574 145.437 132.404 140.368 138.572 134.411C140.552 132.496 142.244 130.539 142.917 127.777C143.696 124.578 143.03 121.125 141.109 118.453Z" fill="#7DA5BC"/>
<path d="M64.499 145.509C63.1562 145.509 61.8025 145.484 60.4305 145.433C56.8388 145.295 53.3054 144.949 49.9284 144.403C49.619 144.352 49.408 144.061 49.4553 143.748C49.5062 143.439 49.7937 143.228 50.1103 143.279C53.4436 143.817 56.9298 144.156 60.4742 144.294C70.194 144.661 79.1532 143.704 87.1045 141.452C95.1904 139.159 101.963 136.077 107.81 132.03C111.784 129.276 114.968 126.546 117.541 123.683C117.752 123.446 118.112 123.428 118.345 123.639C118.582 123.85 118.6 124.21 118.389 124.443C115.758 127.373 112.508 130.16 108.458 132.966C102.508 137.089 95.627 140.222 87.4174 142.547C80.4742 144.516 72.7813 145.509 64.499 145.509Z" fill="#6563A5"/>
<path d="M77.6806 159.054C75.0787 159.054 72.4368 158.959 69.7621 158.77C69.4491 158.745 69.2126 158.475 69.2344 158.159C69.2599 157.846 69.5256 157.616 69.8458 157.631C78.3611 158.239 86.5379 157.868 94.1507 156.528C102.571 155.047 110.479 152.449 117.651 148.814C117.935 148.672 118.277 148.785 118.419 149.065C118.561 149.345 118.448 149.687 118.168 149.829C110.894 153.519 102.877 156.15 94.3472 157.649C89.0379 158.584 83.4557 159.054 77.6806 159.054Z" fill="#6563A5"/>
<path d="M166.33 103.741C165.693 101.576 163.754 99.243 160.995 99.243C159.991 99.243 158.976 99.5668 157.982 100.204C154.35 102.536 151.046 103.915 147.265 104.672C146.621 104.803 145.555 104.876 144.339 104.876C143.655 104.876 142.953 104.854 142.323 104.811C142.185 104.796 142.025 104.782 141.858 104.756C141.843 104.756 141.825 104.752 141.807 104.752C141.792 104.745 141.774 104.742 141.756 104.738C141.665 104.723 141.577 104.705 141.486 104.676C141.461 104.669 141.436 104.661 141.41 104.658C141.115 104.596 140.813 104.527 140.511 104.447C140.417 104.421 140.104 104.323 139.758 104.21L139.612 104.163C139.343 104.072 139.07 103.985 138.903 103.937C138.859 103.923 138.819 103.915 138.775 103.908C138.717 103.901 138.659 103.883 138.608 103.861C131.392 100.608 129.86 92.7073 129.329 86.1935C128.579 76.9613 127.134 67.5435 118.648 62.6964C116.097 61.2371 113.397 60.4584 110.388 60.3092C110.136 60.291 109.893 60.3892 109.711 60.5603C109.529 60.735 109.427 60.9751 109.427 61.2226V71.2117C109.427 71.6665 109.758 72.0523 110.209 72.1178C110.762 72.2015 111.305 72.3252 111.861 72.4962C112.713 72.7619 113.226 73.1039 113.936 73.5734L114.045 73.6462C114.198 73.7481 114.263 73.8863 114.292 73.9846C114.332 74.112 114.398 74.232 114.489 74.3339L114.587 74.4395C114.638 74.4977 114.7 74.5486 114.765 74.5887C114.838 74.6323 114.9 74.6942 114.951 74.767C116.821 77.5872 117.16 81.3026 117.458 84.5814L117.596 86.1134C117.964 90.3383 118.317 94.3303 119.583 98.2604C122.374 106.925 129.03 113.468 137.385 115.768C139.54 116.361 141.825 116.659 144.176 116.659C150.551 116.659 157.542 114.425 163.863 110.367C166.599 108.613 166.93 105.793 166.33 103.741Z" fill="#E9BBAE"/>
<path d="M67.2579 60.3092C64.2485 60.4584 61.5483 61.2408 58.9974 62.6964C50.5112 67.5472 49.0665 76.9649 48.3169 86.1935C47.7856 92.7109 46.2536 100.608 39.0374 103.861C38.9865 103.886 38.9282 103.901 38.8737 103.908C38.83 103.915 38.7827 103.926 38.7427 103.937C38.5753 103.985 38.306 104.076 38.0367 104.163L37.8875 104.214C37.5345 104.327 37.2215 104.429 37.1087 104.454C36.8322 104.527 36.5447 104.592 36.2572 104.654C36.2281 104.658 36.2026 104.665 36.1735 104.676C36.0643 104.709 35.9552 104.731 35.8496 104.749C35.8424 104.752 35.8314 104.752 35.8242 104.752C35.8169 104.756 35.8132 104.756 35.8096 104.756C35.6422 104.782 35.4857 104.796 35.3729 104.807C33.517 104.934 31.3919 104.876 30.3766 104.672C26.5993 103.915 23.2951 102.536 19.6633 100.204C18.6699 99.5668 17.6546 99.2466 16.6502 99.2466C13.8919 99.2466 11.9523 101.576 11.3154 103.741C10.715 105.797 11.0462 108.613 13.779 110.371C20.1 114.429 27.0942 116.663 33.4697 116.663C35.8205 116.663 38.1058 116.361 40.2601 115.768C48.6153 113.468 55.271 106.925 58.0622 98.2641C59.3285 94.3267 59.6815 90.331 60.0527 86.0989L60.1873 84.585C60.4857 81.3063 60.8242 77.5872 62.6983 74.767C62.7456 74.6978 62.8074 74.636 62.8802 74.5887C62.9457 74.5486 63.0076 74.4977 63.0585 74.4431L63.1531 74.3412C63.2441 74.2393 63.3132 74.1156 63.3533 73.9846C63.386 73.8718 63.4515 73.7699 63.5425 73.6935C63.5498 73.6862 63.5607 73.6789 63.568 73.6716C63.5716 73.668 63.5716 73.668 63.5753 73.668C63.5825 73.6607 63.5898 73.6534 63.5971 73.6462V73.6498L63.7099 73.577C64.4195 73.1039 64.9326 72.7619 65.7769 72.4999C66.3373 72.3252 66.8795 72.2015 67.4362 72.1214C67.8875 72.0523 68.2186 71.6665 68.2186 71.2153V61.2262C68.2186 60.9751 68.1167 60.735 67.9348 60.5639C67.7528 60.3892 67.5054 60.291 67.2579 60.3092Z" fill="#E9BBAE"/>
<path d="M174.403 93.2716C172.507 91.0372 170.618 92.7621 170.028 93.7701C170.156 92.8458 169.101 91.3647 167.667 91.5685C164.905 91.9579 158.322 97.6675 158.322 97.6675C156.178 99.0685 155.574 101.936 156.975 104.079L159.974 108.679C161.371 110.819 163.919 110.71 166.386 110.026C169.323 109.21 173.315 107.602 175.09 105.262C176.641 103.224 178.475 99.6544 177.077 97.511C177.077 97.511 175.29 94.3196 174.403 93.2716ZM171.604 99.2032C171.055 100.895 169.239 101.827 167.547 101.277C165.851 100.732 164.923 98.9157 165.469 97.2199C166.018 95.5278 169.162 95.535 169.625 94.8982C169.65 96.1755 172.15 97.5074 171.604 99.2032Z" fill="#E9BBAE"/>
<path d="M158.322 98.2386C158.161 98.2386 158.001 98.1731 157.889 98.0421C157.685 97.8055 157.71 97.4453 157.947 97.2378C158.22 97.0013 164.69 91.4118 167.586 91.0006C168.383 90.8914 169.159 91.1643 169.77 91.7721C169.996 91.9977 170.181 92.256 170.319 92.5253C170.803 92.0814 171.447 91.6847 172.204 91.6192C172.859 91.561 173.846 91.7393 174.835 92.9038C175.749 93.9809 177.499 97.0996 177.576 97.2342C177.728 97.5071 177.63 97.8565 177.357 98.0093C177.081 98.1622 176.735 98.0675 176.578 97.791C176.564 97.7582 174.81 94.6323 173.969 93.6389C173.427 93.002 172.867 92.7073 172.306 92.7546C171.451 92.831 170.763 93.6389 170.52 94.0574C170.381 94.2902 170.097 94.3958 169.843 94.3084C169.584 94.2175 169.428 93.9591 169.464 93.6898C169.501 93.4242 169.34 92.9547 168.966 92.5799C168.762 92.3761 168.332 92.0486 167.747 92.1323C165.618 92.4344 160.49 96.5428 158.693 98.1003C158.587 98.1913 158.453 98.2386 158.322 98.2386Z" fill="#6563A5"/>
<path d="M0.567538 97.5109C-0.829842 99.6543 1.00786 103.221 2.55444 105.262C4.33391 107.602 8.32227 109.207 11.2626 110.025C13.7262 110.71 16.2735 110.819 17.6709 108.675L20.6694 104.079C22.0704 101.936 21.4664 99.0684 19.323 97.6674C19.323 97.6674 12.74 91.9578 9.97802 91.5684C8.54425 91.3646 7.48893 92.8421 7.6163 93.7664C7.03042 92.7584 5.13813 91.0371 3.24221 93.2715C2.35429 94.3195 0.567538 97.5109 0.567538 97.5109ZM8.01659 94.8981C8.48239 95.5349 11.6265 95.5276 12.1723 97.2198C12.7218 98.9156 11.7939 100.731 10.0981 101.277C8.40596 101.827 6.58646 100.899 6.04061 99.203C5.49476 97.5073 7.99476 96.1754 8.01659 94.8981Z" fill="#E9BBAE"/>
<path d="M19.3248 98.2387C19.1938 98.2387 19.0592 98.1914 18.9537 98.1004C17.156 96.5429 12.0286 92.4345 9.8998 92.1324C9.31392 92.0487 8.88452 92.3762 8.68073 92.58C8.30591 92.9548 8.1458 93.4243 8.18219 93.6899C8.22222 93.9592 8.0621 94.2176 7.80373 94.3085C7.549 94.3959 7.26516 94.2904 7.12687 94.0575C6.88306 93.639 6.19529 92.8311 5.34012 92.7547C4.77971 92.7074 4.21931 93.0021 3.68073 93.6426C2.83648 94.6324 1.08248 97.7583 1.06792 97.7911C0.915086 98.0676 0.565741 98.1623 0.292815 98.0094C0.0162504 97.8566 -0.0820031 97.5109 0.0744746 97.2343C0.147255 97.1033 1.89762 93.981 2.81101 92.9039C3.80082 91.7394 4.78699 91.5611 5.44201 91.6193C6.19893 91.6848 6.84303 92.0815 7.32702 92.5254C7.4653 92.2561 7.65089 91.9978 7.87651 91.7758C8.48786 91.1644 9.26297 90.8915 10.0599 91.0043C12.9566 91.4155 19.4267 97.0014 19.6997 97.2379C19.9398 97.4454 19.9653 97.8056 19.7579 98.0422C19.6451 98.1732 19.485 98.2387 19.3248 98.2387Z" fill="#6563A5"/>
</svg>
