<svg width="118" height="160" viewBox="0 0 118 160" fill="none" xmlns="http://www.w3.org/2000/svg">
<path d="M60.5622 33.8568C60.5622 33.8568 82.3732 33.0567 77.9949 67.0009C77.9949 67.0009 78.4316 71.2362 80.2923 87.6119C82.153 103.988 80.4868 107.915 75.9103 110.506H54.0625V37.3103L60.5622 33.8568Z" fill="#161A32"/>
<mask id="mask0_0_1217" style="mask-type:luminance" maskUnits="userSpaceOnUse" x="109" y="11" width="9" height="10">
<path d="M109.761 11.2196H117.835V20.5415H109.761V11.2196Z" fill="white"/>
</mask>
<g mask="url(#mask0_0_1217)">
<path d="M117.398 11.7371C116.866 11.2783 116.066 11.3407 115.611 11.8655L110.223 18.123C110.04 18.3358 109.937 18.5964 109.922 18.8607C109.897 19.246 110.047 19.635 110.359 19.9029C110.884 20.358 111.688 20.2993 112.143 19.7708L117.527 13.5171C117.806 13.1978 117.89 12.772 117.798 12.3867C117.736 12.1408 117.6 11.9096 117.398 11.7371Z" fill="#F3AC71"/>
</g>
<path d="M115.916 8.01216C115.344 7.61579 114.503 7.83232 114.044 8.49293L108.609 16.3395C108.422 16.6074 108.323 16.912 108.315 17.2056C108.304 17.6277 108.473 18.0277 108.815 18.2626C109.387 18.6553 110.228 18.4388 110.686 17.7781L116.122 9.93159C116.404 9.52789 116.478 9.05445 116.364 8.65075C116.29 8.39384 116.14 8.16263 115.916 8.01216Z" fill="#F3AC71"/>
<path d="M114.639 5.05799C114.066 4.66163 113.226 4.87816 112.767 5.53877L107.332 13.3853C107.145 13.6532 107.046 13.9579 107.038 14.2478C107.027 14.6735 107.196 15.0699 107.534 15.3084C108.11 15.7011 108.95 15.4846 109.409 14.824L114.845 6.97743C115.127 6.57372 115.197 6.09662 115.083 5.69658C115.01 5.43968 114.863 5.21214 114.639 5.05799Z" fill="#F3AC71"/>
<path d="M110.137 4.18061C109.51 3.876 108.666 4.30906 108.258 5.14217L103.428 15.0329C103.263 15.3706 103.194 15.7266 103.216 16.0532C103.241 16.523 103.454 16.9193 103.825 17.1028C104.452 17.4038 105.293 16.9744 105.704 16.1413L110.534 6.25052C110.783 5.74405 110.813 5.19722 110.655 4.7825C110.556 4.51459 110.38 4.30172 110.137 4.18061Z" fill="#F3AC71"/>
<path d="M96.8913 8.25074C96.0179 8.52232 95.5261 9.45819 95.8013 10.3243L99.0383 20.5968C99.1484 20.9528 99.3723 21.2427 99.6549 21.4409C100.066 21.7345 100.605 21.8372 101.119 21.6758C101.993 21.4005 102.481 20.4647 102.209 19.6022L98.9686 9.32606C98.8034 8.79758 98.3887 8.41222 97.8969 8.25074C97.5813 8.15165 97.229 8.14431 96.8913 8.25074Z" fill="#F3AC71"/>
<path d="M103.894 25.1403L99.659 22.2851C99.2663 22.0171 99.1635 21.4813 99.4278 21.0886L105.215 12.5264C105.476 12.13 106.019 12.0273 106.412 12.2915L113.066 16.7873C113.458 17.0479 113.561 17.5874 113.297 17.9801L109.146 24.1237C108.669 24.8284 107.994 25.3202 107.245 25.5771C106.159 25.9514 104.914 25.8303 103.894 25.1403Z" fill="#F3AC71"/>
<path d="M104.506 25.4851L100.16 22.549C99.1216 21.848 98.5601 20.6956 98.5601 19.5249C98.5601 18.8203 98.7619 18.1119 99.1766 17.488L99.5803 16.9008C100.762 15.1429 103.17 14.6768 104.924 15.8622L109.1 18.6808C109.493 18.9487 109.6 19.4845 109.332 19.8809L105.702 25.2538C105.438 25.6429 104.902 25.7493 104.506 25.4851Z" fill="#F3AC71"/>
<path d="M99.3804 21.8703C99.3804 21.8703 100.224 27.3423 101.01 28.1387C101.795 28.9351 105.069 27.4818 105.069 27.4818C105.069 27.4818 108.717 27.9075 107.366 26.2817C106.016 24.6522 104.394 22.5345 104.394 22.5345L99.3804 21.8703Z" fill="#F3AC71"/>
<path d="M83.7348 55.8146C84.9238 52.6877 89.0306 51.3408 92.9099 52.8162C96.7891 54.2879 98.9691 58.0167 97.78 61.1472C96.5909 64.2741 92.4805 65.6173 88.6049 64.1456C84.7257 62.6739 82.5457 58.9452 83.7348 55.8146Z" fill="#B5C3E4"/>
<path d="M65.9752 102.465C67.168 99.334 71.2748 97.9907 75.1503 99.4624C79.0296 100.934 81.2096 104.667 80.0241 107.793C78.8314 110.924 74.7246 112.267 70.849 110.792C66.9661 109.32 64.7861 105.591 65.9752 102.465Z" fill="#B5C3E4"/>
<path d="M65.9756 102.465L80.0245 107.793L97.8646 60.8389L83.8193 55.51L65.9756 102.465Z" fill="#B5C3E4"/>
<path d="M96.1826 20.707L84.5522 54.9779L98.0066 59.3893C98.0066 59.3893 106.675 30.9941 110.94 26.0579L96.1826 20.707Z" fill="#B5C3E4"/>
<path d="M51.9553 33.8566C51.9553 33.8566 26.2943 32.5684 30.6764 67.9257C30.6764 67.9257 30.236 72.3334 28.3752 89.3954C26.5145 106.45 28.1807 110.539 32.7536 113.24H54.6087V37.0018L51.9553 33.8566Z" fill="#161A32"/>
<path d="M73.021 65.3419C70.9401 61.6571 67.7252 66.3511 67.7252 66.3511L66.6829 74.9978C72.1696 73.783 75.1019 69.0303 73.021 65.3419Z" fill="#F3AC71"/>
<path d="M68.0068 68.3183C68.0068 68.3183 69.6143 65.3896 71.13 66.2888C72.6421 67.1843 72.3118 71.8159 67.6765 72.7627L68.0068 68.3183Z" fill="#E37748"/>
<path d="M48.2493 98.4238H58.8227V82.6793H48.2493V98.4238Z" fill="#F3AC71"/>
<path d="M48.2493 79.4498H56.1545C56.1619 79.4572 56.1656 79.4645 56.1692 79.4682C56.8519 80.1655 57.8795 81.3032 58.8227 82.5951V89.8948C58.6795 89.9058 58.5364 89.9131 58.3969 89.9131C54.6021 89.9095 50.9504 87.5239 48.2493 84.8338V79.4498Z" fill="#D6562B"/>
<path d="M40.3218 54.7945C40.3218 63.3787 47.2875 70.3408 55.8754 70.3408C64.4633 70.3408 71.4254 63.3787 71.4254 54.7945C71.4254 46.2102 64.4633 39.2518 55.8754 39.2518C47.2875 39.2518 40.3218 46.2102 40.3218 54.7945Z" fill="#F3AC71"/>
<path d="M40.3218 71.974C40.3218 80.5582 47.3352 86.5881 55.8754 87.5166C61.0869 88.0855 71.319 84.8338 71.319 76.2496C71.319 67.6617 64.4633 56.4276 55.8754 56.4276C47.2875 56.4276 40.3218 63.386 40.3218 71.974Z" fill="#F3AC71"/>
<path d="M40.3218 73.2656H71.4254V54.2621H40.3218V73.2656Z" fill="#F3AC71"/>
<path d="M37.2076 65.0776C39.2848 61.3929 42.4998 66.0905 42.4998 66.0905L43.5421 74.7335C38.059 73.5187 35.123 68.766 37.2076 65.0776Z" fill="#F3AC71"/>
<path d="M42.2194 68.0578C42.2194 68.0578 40.6119 65.1291 39.0999 66.0246C37.5842 66.9238 37.9145 71.5554 42.5497 72.5023L42.2194 68.0578Z" fill="#E37748"/>
<path d="M60.4466 68.0984C60.3805 68.781 60.3805 69.4526 60.3989 70.1243C60.4172 70.7959 60.4649 71.4638 60.52 72.1281L60.5713 72.6236L60.6227 73.1227L60.6374 73.2438L60.6447 73.3539C60.6447 73.4236 60.6558 73.497 60.6484 73.5704C60.6411 73.6402 60.6447 73.7172 60.6264 73.787L60.6117 73.8971C60.608 73.9117 60.608 73.9301 60.6007 73.9521L60.586 74.0035C60.4392 74.576 60.0429 75.1155 59.5291 75.5633C59.6979 75.5156 59.8557 75.4422 60.0062 75.3577C60.0869 75.3174 60.1566 75.2623 60.23 75.2183C60.2998 75.1632 60.3732 75.1118 60.4392 75.0531C60.7071 74.8182 60.9384 74.5246 61.0852 74.176C61.1549 73.9998 61.2099 73.8163 61.2393 73.6291C61.254 73.5337 61.254 73.4383 61.2576 73.3429L61.265 73.2034L61.2576 73.075C61.254 72.9061 61.2393 72.7373 61.232 72.5685L61.1916 72.0657C61.1292 71.3978 61.0374 70.7298 60.9237 70.0692C60.7989 69.4049 60.6558 68.748 60.4466 68.0984Z" fill="#D6562B"/>
<path d="M69.8475 61.6426C69.3557 60.593 68.1409 59.9067 66.9078 59.9471C66.2949 59.9874 65.6966 60.1489 65.1975 60.4609C64.9369 60.5967 64.7204 60.8022 64.4965 60.9783C64.2984 61.1875 64.1112 61.4077 63.9497 61.6426C64.236 61.5656 64.4855 61.4555 64.7351 61.36C64.9957 61.283 65.2379 61.1765 65.4838 61.1141C65.9756 60.9673 66.4563 60.8829 66.9335 60.8646C67.4106 60.8352 67.8877 60.916 68.3721 61.0407C68.8566 61.1802 69.3373 61.3857 69.8475 61.6426Z" fill="#161A32"/>
<path d="M56.2335 61.6426C55.7453 60.593 54.5232 59.9067 53.2938 59.9471C52.6809 59.9874 52.079 60.1489 51.5798 60.4609C51.3193 60.5967 51.1064 60.8022 50.8825 60.9783C50.6843 61.1875 50.4972 61.4077 50.3357 61.6426C50.622 61.5656 50.8715 61.4555 51.1211 61.36C51.3853 61.283 51.6202 61.1765 51.8698 61.1141C52.3616 60.9673 52.8423 60.8829 53.3194 60.8646C53.7965 60.8352 54.2737 60.916 54.7581 61.0407C55.2425 61.1802 55.7233 61.3857 56.2335 61.6426Z" fill="#161A32"/>
<path d="M54.7594 76.2789L65.186 77.9525C65.186 77.9525 64.6721 83.3915 59.2772 82.5364C53.8822 81.6812 54.7594 76.2789 54.7594 76.2789Z" fill="#572916"/>
<path d="M59.8162 78.488C58.117 78.2054 56.4691 78.7522 55.2874 79.8275C55.8782 81.0423 57.038 82.18 59.2767 82.536C61.4457 82.881 62.8256 82.2057 63.6991 81.2735C62.9394 79.8422 61.5411 78.7706 59.8162 78.488Z" fill="#CB4259"/>
<path d="M53.4716 65.4959C51.9192 65.3858 50.5099 66.4795 49.6475 67.7714C50.5209 67.2098 51.5852 67.0374 52.6239 66.9456C53.2625 66.8942 53.9084 66.8649 54.5396 66.964C55.4168 67.0961 56.2058 67.4741 56.9288 67.9695C56.1214 66.7878 54.9874 65.6024 53.4716 65.4959Z" fill="#35333F"/>
<path d="M51.0705 66.7366C50.887 66.8503 50.6521 66.8503 50.4429 66.7806C50.2264 66.7109 50.0539 66.5494 49.9328 66.3769C49.8153 66.1971 49.7493 65.9989 49.7346 65.8007C49.7199 65.6025 49.7383 65.408 49.819 65.2172C50.0465 65.5621 50.164 65.8704 50.3401 66.12C50.5053 66.3732 50.6888 66.5714 51.0705 66.7366Z" fill="#35333F"/>
<path d="M66.5426 65.632C67.7317 65.5182 68.818 66.6119 69.4786 67.9111C68.8034 67.3459 67.9849 67.1697 67.1922 67.0817C66.7041 67.0266 66.205 67.0046 65.7205 67.0963C65.0489 67.2285 64.447 67.6101 63.8892 68.1019C64.5094 66.9238 65.3792 65.7384 66.5426 65.632Z" fill="#35333F"/>
<path d="M68.3867 66.8725C68.5262 66.9863 68.706 66.9826 68.8675 66.9129C69.0363 66.8505 69.1648 66.6853 69.2602 66.5092C69.3519 66.333 69.396 66.1348 69.4107 65.933C69.4217 65.7348 69.407 65.5439 69.3483 65.3531C69.1721 65.6944 69.0804 66.0064 68.9482 66.2522C68.8198 66.5092 68.6767 66.7073 68.3867 66.8725Z" fill="#35333F"/>
<path d="M58.5948 51.9502C55.167 54.0972 51.0345 54.5302 47.2066 55.7303C43.3788 56.9378 39.4041 59.4298 38.516 63.4668C38.0719 56.4533 38.6811 49.1573 41.8153 42.8889C44.9496 36.6204 50.9721 31.5631 57.7617 31.1814C70.9812 30.4327 65.9642 47.348 58.5948 51.9502Z" fill="#161A32"/>
<path d="M61.9215 95.2347C62.6995 95.3998 63.5143 95.3778 64.2923 95.5503C67.2247 96.1926 68.8615 99.2607 69.9772 102.046C70.9021 104.344 71.7462 106.711 71.9077 109.181C72.0692 111.651 71.4783 114.26 69.8268 116.099C66.8467 119.417 61.5692 119.244 57.3156 117.894C51.66 116.099 46.4376 112.572 43.2593 107.559C41.6225 104.979 40.5802 101.555 42.1436 98.9304C42.9657 97.5505 44.2832 96.8128 45.5714 95.9467C46.9734 95.0035 47.3771 94.2988 48.368 93.1501C50.2728 90.9444 52.7243 90.6948 55.631 90.7976C56.7687 90.8343 58.0753 90.8196 58.8753 91.638C60.0167 92.8014 59.4589 94.4933 61.5765 95.1429C61.6903 95.176 61.804 95.2053 61.9215 95.2347Z" fill="#F3AC71"/>
<mask id="mask1_0_1217" style="mask-type:luminance" maskUnits="userSpaceOnUse" x="39" y="99" width="44" height="61">
<path d="M39.1702 99.4626H82.3886V160H39.1702V99.4626Z" fill="white"/>
</mask>
<g mask="url(#mask1_0_1217)">
<path d="M42.932 169.377C41.5153 172.75 39.9886 176.141 39.728 176.042C53.2888 181.206 68.8462 180.908 82.2015 175.227C80.3811 168.272 76.9863 160.444 76.2523 153.405C75.6908 148.006 75.4449 142.571 75.4706 137.143C75.5036 129.513 76.0688 121.666 74.6779 114.11C74.1861 111.431 73.4117 108.785 72.2703 106.307C71.8409 105.371 69.782 100.975 68.6957 100.802C68.2296 100.733 67.7929 101.103 67.591 101.533C67.3892 101.958 67.3525 102.443 67.2313 102.898C66.8056 104.487 65.3963 105.628 63.8953 106.296C60.5996 107.764 56.691 107.397 53.3843 105.948C50.0078 104.469 47.5379 101.969 44.8551 99.5654C44.2165 101.364 46.5837 105.599 47.0718 107.46C48.0223 111.064 48.9288 114.686 49.4463 118.385C50.0776 122.914 49.2188 127.682 48.9288 132.269C48.5692 138.002 47.9416 143.712 47.248 149.412C46.7048 153.827 46.5763 158.642 45.4827 162.907C45.3395 163.461 44.1798 166.412 42.932 169.377Z" fill="#DDE9E8"/>
</g>
<mask id="mask2_0_1217" style="mask-type:luminance" maskUnits="userSpaceOnUse" x="63" y="94" width="22" height="66">
<path d="M63.6011 94.7645H84.2708V160H63.6011V94.7645Z" fill="white"/>
</mask>
<g mask="url(#mask2_0_1217)">
<path d="M72.5596 121.405C73.6129 126.371 73.9432 131.469 74.2405 136.544C74.9195 148.248 75.4259 159.963 75.7599 171.678C75.8113 173.509 76.248 193.092 74.747 193.283C75.4259 193.195 83.3789 192.105 83.3899 192.535C83.3496 191.044 84.2083 184.372 84.146 182.871C84.0799 181.256 83.9368 179.645 83.7386 178.045C83.3496 174.878 82.7367 171.744 82.0247 168.639C80.8246 163.387 78.2555 157.955 77.7087 152.63C77.5105 150.751 77.7124 148.85 77.9106 146.964C78.4574 141.807 79.0042 136.647 79.5474 131.491C82.8431 129.571 84.0432 125.028 83.2321 121.196C82.4174 117.368 80.0245 114.124 77.5289 111.177C74.0313 107.044 70.3099 102.798 69.1869 97.2418C69.1355 96.9885 69.0694 96.7023 68.8492 96.5848C68.7611 96.5408 68.6584 96.5261 68.5593 96.5151C66.8637 96.3096 65.1902 95.8582 63.6157 95.1755C63.8433 97.8657 64.8709 100.405 65.8875 102.894C68.3758 109.001 71.1723 114.876 72.5596 121.405Z" fill="#C8D0EB"/>
</g>
<mask id="mask3_0_1217" style="mask-type:luminance" maskUnits="userSpaceOnUse" x="28" y="92" width="31" height="68">
<path d="M28.8391 92.8854H58.9041V160H28.8391V92.8854Z" fill="white"/>
</mask>
<g mask="url(#mask3_0_1217)">
<path d="M30.7632 160.356C31.1376 158.939 31.5927 157.548 32.1615 156.194C34.4039 150.832 38.2281 146.314 41.2596 141.356C42.0009 140.145 42.7056 138.875 42.9808 137.481C43.2597 136.057 43.0689 134.581 42.8083 133.157C41.722 127.311 39.0979 122.624 36.4298 117.446C33.4938 111.746 30.4036 106.454 33.1561 100.013C33.6222 98.9267 34.2314 97.8808 35.1122 97.0954C37.3583 95.1062 40.5402 95.2677 43.2194 94.3025C46.4527 93.1391 45.7517 93.018 47.0069 96.0017C48.3061 99.0809 50.7797 101.833 52.3688 104.813C53.9396 107.757 55.2938 110.814 56.4169 113.956C57.7124 117.585 58.8171 121.534 58.4427 125.395C58.0464 129.502 57.3931 133.576 56.7325 137.649C54.057 154.15 51.2384 176.078 52.534 192.843C44.7828 192.832 37.0317 192.139 29.4053 190.777C29.5631 185.833 28.8438 175.968 29.1998 171.01C29.4457 167.424 29.8494 163.817 30.7632 160.356Z" fill="#C8D0EB"/>
</g>
<path d="M0.437185 7.64867C0.965671 7.19726 1.76941 7.25598 2.22083 7.78079L7.60845 14.0346C7.79563 14.2511 7.89472 14.5117 7.91307 14.7796C7.93509 15.1613 7.78829 15.5503 7.47633 15.8182C6.95152 16.2733 6.14411 16.2146 5.69269 15.6861L0.305063 9.43231C0.0298103 9.10935 -0.058271 8.6873 0.0371497 8.30561C0.0995402 8.05605 0.235332 7.8285 0.437185 7.64867Z" fill="#F3AC71"/>
<path d="M1.91853 3.92738C2.49473 3.53101 3.33517 3.74755 3.79393 4.40816L9.22927 12.2547C9.41644 12.5263 9.51186 12.8272 9.5192 13.1172C9.53388 13.5466 9.36139 13.9429 9.02374 14.1778C8.45122 14.5705 7.60711 14.354 7.15202 13.6934L1.71301 5.85048C1.43409 5.44678 1.36069 4.966 1.47446 4.5623C1.54786 4.30539 1.69833 4.08152 1.91853 3.92738Z" fill="#F3AC71"/>
<path d="M3.19805 0.973139C3.77058 0.573104 4.61102 0.793307 5.06978 1.45391L10.5051 9.2968C10.6923 9.56839 10.7914 9.873 10.795 10.1666C10.8097 10.5887 10.6372 10.9887 10.2996 11.2199C9.72707 11.6163 8.88663 11.3997 8.42787 10.7391L2.98886 2.89257C2.70994 2.48887 2.63654 2.01176 2.75398 1.60806C2.82371 1.35115 2.97418 1.12728 3.19805 0.973139Z" fill="#F3AC71"/>
<path d="M7.70281 0.0994603C8.32672 -0.208824 9.17083 0.224242 9.57821 1.05734L14.408 10.9481C14.5768 11.2894 14.6465 11.6418 14.6245 11.9647C14.5952 12.4382 14.3823 12.8345 14.0153 13.0144C13.3877 13.3226 12.5436 12.8896 12.1362 12.0565L7.30645 2.1657C7.05689 1.65923 7.02753 1.11239 7.18534 0.697678C7.28443 0.429765 7.45692 0.213231 7.70281 0.0994603Z" fill="#F3AC71"/>
<path d="M20.9477 4.1659C21.8212 4.44115 22.3093 5.37334 22.0377 6.23948L18.8007 16.5156C18.6869 16.8679 18.4631 17.1579 18.1841 17.3597C17.7694 17.6496 17.2336 17.7487 16.7198 17.5909C15.8463 17.3157 15.3582 16.3835 15.6298 15.5137L18.8668 5.24122C19.0319 4.71274 19.4503 4.32738 19.9421 4.16957C20.2577 4.06681 20.61 4.05947 20.9477 4.1659Z" fill="#F3AC71"/>
<path d="M13.9449 21.0555L18.1802 18.1966C18.5728 17.9323 18.6756 17.3928 18.4114 17.0038L12.6237 8.43791C12.3595 8.04889 11.82 7.94246 11.4273 8.2067L4.77347 12.6988C4.38078 12.9631 4.27802 13.5026 4.54226 13.8953L8.69308 20.0389C9.16652 20.7436 9.84548 21.2354 10.5905 21.4923C11.6805 21.8666 12.9246 21.7455 13.9449 21.0555Z" fill="#F3AC71"/>
<path d="M13.3282 21.397L17.6772 18.4683C18.7158 17.7637 19.2774 16.6113 19.2774 15.4405C19.2774 14.7359 19.0755 14.0239 18.6571 13.4L18.2571 12.8128C17.0717 11.0622 14.6678 10.5924 12.9098 11.7815L8.73699 14.6001C8.34063 14.8643 8.23787 15.4038 8.50578 15.7965L12.1318 21.1658C12.3997 21.5585 12.9355 21.6649 13.3282 21.397Z" fill="#F3AC71"/>
<path d="M18.4556 17.7855C18.4556 17.7855 17.6152 23.2612 16.8298 24.0539C16.0408 24.8503 12.7707 23.397 12.7707 23.397C12.7707 23.397 9.12272 23.819 10.4733 22.1932C11.8239 20.5674 13.4424 18.4498 13.4424 18.4498L18.4556 17.7855Z" fill="#F3AC71"/>
<path d="M31.8939 54.475C30.9103 51.2747 26.899 49.6672 22.9316 50.882C18.9643 52.1005 16.5458 55.6788 17.5257 58.8754C18.5092 62.0757 22.5206 63.6868 26.4842 62.472C30.4516 61.2572 32.8738 57.6753 31.8939 54.475Z" fill="#B5C3E4"/>
<path d="M46.5531 102.189C45.5732 98.989 41.5618 97.3778 37.5945 98.5926C33.6272 99.8111 31.2086 103.389 32.1885 106.59C33.1684 109.786 37.1798 111.397 41.1471 110.183C45.1144 108.968 47.5366 105.39 46.5531 102.189Z" fill="#B5C3E4"/>
<path d="M46.5536 102.189L32.1891 106.59L17.4648 58.5672L31.8294 54.1668L46.5536 102.189Z" fill="#B5C3E4"/>
<path d="M21.7736 18.6299L31.1285 53.5907L17.4172 57.1066C17.4172 57.1066 10.6276 28.2087 6.69702 23.0009L21.7736 18.6299Z" fill="#B5C3E4"/>
</svg>
