<svg width="170" height="160" viewBox="0 0 170 160" fill="none" xmlns="http://www.w3.org/2000/svg">
<path fill-rule="evenodd" clip-rule="evenodd" d="M91.6798 75.4481C91.6639 75.7728 91.6006 77.309 91.5926 77.4317C91.4739 78.857 91.3551 80.2783 91.2403 81.6997C90.6741 88.7865 89.6685 95.7982 87.491 102.719C81.5008 121.818 76.1282 139.262 81.3543 158.99C81.4018 159.164 81.481 159.323 81.5879 159.465C81.6987 159.612 81.8333 159.727 81.9877 159.818C82.1461 159.909 82.3124 159.964 82.4945 159.988C82.6727 160.012 82.8469 160 83.0211 159.956C83.1992 159.909 83.3576 159.83 83.5001 159.723C83.6427 159.612 83.7614 159.481 83.8525 159.323C83.9436 159.168 84.003 159.002 84.0307 158.824C84.0544 158.642 84.0425 158.468 83.999 158.293C78.9075 139.103 84.2722 122.123 90.1 103.538C92.333 96.4198 93.3822 89.2022 93.9681 81.9174C94.079 80.5 94.2017 79.0787 94.3165 77.6574C94.3324 77.4634 94.4512 75.3175 94.3759 74.9057C94.1542 73.722 93.1644 73.6824 92.7844 73.7497C92.6022 73.7774 92.4359 73.8407 92.2815 73.9358C92.1271 74.0308 91.9965 74.1535 91.8896 74.3C91.7827 74.4504 91.7075 74.6128 91.6679 74.787C91.6243 74.9651 91.6204 75.1433 91.6481 75.3215C91.656 75.365 91.6639 75.4086 91.6758 75.4521L91.6798 75.4481ZM92.0282 76.0579C92.3488 76.4221 92.7487 76.5567 93.2278 76.4538C92.7606 76.529 92.3607 76.3944 92.0282 76.0579Z" fill="#6F963E"/>
<path fill-rule="evenodd" clip-rule="evenodd" d="M95.6287 85.8608C96.2463 86.5853 95.2407 83.8812 95.2011 82.8598C95.114 80.6149 95.308 78.3226 95.5812 76.0698C96.4166 69.1848 98.6099 62.4305 102.625 56.6422C111.675 43.6048 126.989 40.8452 140.102 36.1497C143.4 34.9659 148.444 30.7929 151.762 30.5831C152.648 30.5277 151.021 32.3805 150.768 33.3149C150.229 35.2707 149.849 37.282 149.477 39.2655C148.4 44.9984 147.992 50.7867 146.52 56.472C141.412 76.1728 124.732 88.2561 107.063 88.7827C104.683 88.8539 97.6637 86.8348 95.6287 85.8608Z" fill="#7DAA46"/>
<path fill-rule="evenodd" clip-rule="evenodd" d="M95.4975 83.9326C95.929 84.5739 95.3708 82.2183 95.4381 81.3393C95.6123 79.3677 95.933 77.4198 96.3922 75.4956C97.7265 69.5806 100.146 63.8121 103.954 58.9107C112.522 47.8726 125.207 45.8336 136.285 42.0645C139.072 41.1183 143.558 37.6342 146.266 37.5194C146.99 37.4917 145.494 39.0516 145.197 39.8513C144.579 41.5221 144.076 43.2483 143.585 44.9507C142.168 49.868 141.285 54.8447 139.547 59.7105C133.529 76.5804 118.856 86.6288 104.485 86.7C102.553 86.7 97.0534 84.8155 95.4975 83.9326Z" fill="#79A343"/>
<path fill-rule="evenodd" clip-rule="evenodd" d="M89.5026 98.1937C89.4512 98.2531 89.4076 98.3243 89.3759 98.3995C89.2967 98.5896 89.3007 98.7836 89.3799 98.9736C89.463 99.1637 89.5976 99.2983 89.7916 99.3775C89.9658 99.4408 90.144 99.4408 90.3222 99.3814C90.5003 99.3181 90.6389 99.2072 90.7379 99.0488C90.9517 98.7282 91.8425 97.0613 91.9019 96.9505C93.1252 94.6977 94.2496 92.4014 95.4295 90.1289C98.3592 84.495 101.82 78.9165 106.186 74.2764C111.832 68.2783 119.477 64.4577 126.137 59.7265C133.56 54.449 140.924 47.1483 145.449 39.1429C145.564 38.9647 145.596 38.7707 145.54 38.5609C145.489 38.355 145.37 38.1967 145.184 38.0937C144.998 37.9868 144.804 37.967 144.598 38.0264C144.392 38.0898 144.242 38.2164 144.147 38.4065C139.721 46.2258 132.519 53.3483 125.262 58.5032C118.527 63.2898 110.803 67.1816 105.09 73.247C100.628 77.9861 97.0884 83.6834 94.0952 89.44C92.9154 91.7007 91.7871 93.9851 90.5756 96.2339L89.5026 98.1937Z" fill="#6F963E"/>
<path fill-rule="evenodd" clip-rule="evenodd" d="M135.974 41.5103C136.129 41.3875 136.224 41.2292 136.255 41.0352C136.287 40.8372 136.247 40.6591 136.133 40.4967C136.022 40.3305 135.871 40.2275 135.677 40.184C135.483 40.1404 135.301 40.1681 135.131 40.2671C134.838 40.4453 134.533 40.9085 134.351 41.5578C134.082 42.5199 133.959 43.9847 133.801 44.4915C132.732 47.8608 131.591 51.3131 130.126 54.528C130.051 54.7141 130.051 54.9001 130.126 55.0862C130.202 55.2763 130.332 55.4109 130.514 55.494C130.701 55.5772 130.887 55.5851 131.077 55.5178C131.267 55.4505 131.405 55.3277 131.496 55.1456C132.977 51.8793 134.145 48.3675 135.226 44.9429C135.372 44.4955 135.491 43.3196 135.697 42.3615C135.768 42.0725 135.863 41.7874 135.974 41.5103Z" fill="#6F963E"/>
<path fill-rule="evenodd" clip-rule="evenodd" d="M124.925 44.1432L124.913 44.1946C124.739 45.0538 123.725 49.4089 123.531 50.07C122.308 54.2747 120.487 58.4041 119.497 62.6562C119.449 62.8581 119.481 63.0481 119.592 63.2223C119.699 63.4005 119.857 63.5114 120.055 63.5589C120.257 63.6064 120.447 63.5747 120.625 63.4638C120.799 63.353 120.91 63.1986 120.958 62.9967C121.943 58.7643 123.745 54.6626 124.972 50.4818C125.17 49.8087 126.219 45.3547 126.39 44.4757C126.421 44.3174 126.429 44.159 126.401 44.0006C126.354 43.8146 126.251 43.6681 126.093 43.5612C125.934 43.4543 125.76 43.4147 125.574 43.4384C125.396 43.4622 125.245 43.5414 125.123 43.672C125 43.8066 124.937 43.9611 124.925 44.1392V44.1432ZM125.123 44.6975C125.297 44.8994 125.511 44.9786 125.776 44.935C125.515 44.9667 125.301 44.8875 125.123 44.6975Z" fill="#6F963E"/>
<path fill-rule="evenodd" clip-rule="evenodd" d="M115.53 49.1713C115.471 49.3455 115.388 49.6108 115.356 49.7256C115.233 50.2482 115.122 50.7589 114.988 51.2776C114.623 52.7029 114.263 54.1242 113.832 55.5297C112.462 59.9996 111.242 64.5011 110.177 69.0304C110.122 69.2363 110.146 69.4303 110.257 69.6164C110.363 69.7985 110.522 69.9133 110.732 69.9608C110.937 70.0123 111.131 69.9766 111.31 69.8579C111.488 69.7431 111.599 69.5807 111.638 69.3709C112.687 64.8654 113.895 60.3995 115.265 55.9692C115.704 54.5439 116.073 53.0948 116.441 51.6458C116.575 51.1232 116.694 50.5966 116.817 50.074C116.852 49.9196 116.979 49.591 117.027 49.4286C117.058 49.3178 117.07 49.2069 117.07 49.0961C117.066 48.7912 116.928 48.5735 116.651 48.4468C116.48 48.3517 116.298 48.3319 116.112 48.3795C115.922 48.4309 115.776 48.5378 115.677 48.7081C115.57 48.8466 115.522 49.005 115.526 49.1792L115.53 49.1713ZM116.805 49.682L116.825 49.6622C116.805 49.682 116.781 49.7058 116.757 49.7256L116.777 49.7097L116.805 49.682ZM116.852 49.6345L116.837 49.6503L116.845 49.6385L116.852 49.6345Z" fill="#6F963E"/>
<path fill-rule="evenodd" clip-rule="evenodd" d="M103.042 78.3505C103.327 78.0417 103.933 77.8912 104.602 77.7645C105.762 77.5745 106.93 77.4913 108.106 77.5191C112.861 77.5864 118.748 78.0773 123.333 79.5541C123.531 79.6293 123.729 79.6174 123.919 79.5264C124.109 79.4313 124.24 79.2848 124.303 79.079C124.37 78.877 124.35 78.6831 124.251 78.497C124.149 78.3069 123.998 78.1842 123.792 78.1288C119.073 76.6085 113.019 76.0898 108.13 76.0146C107.096 76.0027 105.089 76.0581 103.648 76.4422C102.9 76.6441 102.29 76.9529 101.942 77.333C101.807 77.4874 101.744 77.6655 101.756 77.8675C101.767 78.0733 101.847 78.2436 101.997 78.3822C102.148 78.5168 102.322 78.5841 102.528 78.5801C102.73 78.5722 102.904 78.497 103.042 78.3505Z" fill="#6F963E"/>
<path fill-rule="evenodd" clip-rule="evenodd" d="M114.672 66.6392C114.6 66.6274 114.529 66.6274 114.458 66.6392C114.264 66.663 114.105 66.7541 113.983 66.9085C113.864 67.0629 113.812 67.2371 113.836 67.435C113.844 67.6211 113.915 67.7795 114.046 67.9141C114.177 68.0447 114.335 68.12 114.521 68.1318C114.592 68.1318 115.174 68.1398 115.273 68.1398C115.788 68.1398 116.299 68.1556 116.814 68.1794C118.27 68.2506 119.72 68.4011 121.161 68.6069C123.912 68.9949 126.965 69.4463 129.538 70.5588C130.789 71.0973 131.751 72.1068 133.046 72.5661C133.236 72.6215 133.422 72.6057 133.6 72.5146C133.782 72.4236 133.905 72.285 133.972 72.095C134.036 71.9049 134.028 71.7188 133.949 71.5367C133.866 71.3546 133.731 71.2239 133.545 71.1487C132.983 70.927 132.46 70.634 131.973 70.2738C131.395 69.8501 130.781 69.4859 130.132 69.181C127.44 68.021 124.253 67.5261 121.374 67.1223C119.886 66.9124 118.385 66.7541 116.885 66.6868C116.358 66.659 115.82 66.6472 115.285 66.6432L114.672 66.6392ZM115.329 67.5023C115.277 67.8349 115.087 68.0368 114.759 68.116C114.913 68.0923 115.044 68.021 115.151 67.9062C115.258 67.7914 115.317 67.6568 115.329 67.5023Z" fill="#6F963E"/>
<path fill-rule="evenodd" clip-rule="evenodd" d="M124.763 61.1636L126.097 60.9221C127.392 60.7004 128.694 60.5341 129.997 60.3995C132.135 60.1778 134.213 60.3401 136.256 60.2926C138.43 60.2451 140.564 59.968 142.686 58.8634C142.872 58.7683 142.995 58.6218 143.054 58.4239C143.118 58.222 143.102 58.0319 143.003 57.8498C142.908 57.6637 142.761 57.541 142.563 57.4816C142.361 57.4183 142.171 57.4341 141.989 57.5331C140.085 58.5229 138.165 58.7565 136.217 58.796C134.134 58.8436 132.024 58.6852 129.839 58.9069C128.5 59.0455 127.166 59.2197 125.84 59.4453C125.555 59.4968 124.696 59.6116 124.288 59.7304C124.098 59.7819 123.928 59.869 123.777 59.9957C123.607 60.1501 123.524 60.348 123.536 60.5777C123.536 60.7598 123.595 60.9182 123.71 61.0567C123.841 61.219 124.007 61.3061 124.213 61.3299C124.415 61.3497 124.597 61.2943 124.759 61.1676L124.763 61.1636ZM124.898 60.1342C124.985 60.2491 125.036 60.3797 125.044 60.5262C125.04 60.3797 124.989 60.2491 124.898 60.1342Z" fill="#6F963E"/>
<path fill-rule="evenodd" clip-rule="evenodd" d="M136.617 49.5515C136.451 49.4683 136.277 49.4485 136.098 49.4921C135.916 49.5356 135.774 49.6346 135.667 49.7851C135.56 49.9395 135.512 50.1058 135.532 50.2918C135.548 50.474 135.623 50.6323 135.758 50.759C136.094 51.0955 136.486 51.1866 136.934 51.0362C137.175 50.9609 137.405 50.854 137.619 50.7194C137.773 50.6046 137.947 50.5175 138.133 50.4581C140.149 50.1889 142.302 49.7851 144.171 48.9418C144.361 48.8586 144.492 48.72 144.567 48.526C144.642 48.3281 144.634 48.1381 144.551 47.948C144.464 47.758 144.326 47.6273 144.128 47.5561C143.934 47.4808 143.744 47.4888 143.553 47.5759C141.815 48.3598 139.808 48.724 137.935 48.9734C137.563 49.0526 137.219 49.1951 136.902 49.401C136.823 49.4525 136.696 49.5119 136.617 49.5515Z" fill="#6F963E"/>
<path fill-rule="evenodd" clip-rule="evenodd" d="M86.4349 111.9C86.138 112.031 88.1809 103.693 88.4937 102.822C90.7504 96.5941 95.1926 90.8177 100.858 87.3178C110.776 81.1969 126.545 76.7944 138.149 78.2553C143.942 78.9798 149.338 81.4741 154.778 83.4576C158.298 84.7404 161.793 85.9598 165.468 86.7041C165.994 86.811 168.864 86.9773 169.134 87.5395C169.399 88.1057 165.483 91.7125 165.111 92.144C160.764 97.1919 156.92 102.636 152.418 107.553C142.326 118.591 124.181 130.492 108.436 125.852C101.46 123.801 91.8471 116.477 86.431 111.9H86.4349Z" fill="#A5C67C"/>
<path fill-rule="evenodd" clip-rule="evenodd" d="M87.2192 112.597C86.9618 112.712 89.171 106.068 89.4917 105.372C91.7643 100.367 95.858 95.5806 100.858 92.5281C109.616 87.1793 123.247 82.8321 133.003 83.3152C137.877 83.5567 142.319 85.1997 146.816 86.4429C149.726 87.2506 152.624 88.0028 155.701 88.375C156.144 88.4304 158.567 88.3987 158.761 88.8263C158.955 89.2539 155.427 92.2985 155.091 92.6588C151.116 96.8555 147.541 101.337 143.447 105.443C134.254 114.656 118.18 125.005 105.083 122.269C99.2867 121.058 91.5465 115.871 87.2073 112.597H87.2192Z" fill="#99BE6A"/>
<path fill-rule="evenodd" clip-rule="evenodd" d="M81.773 132.761C81.9908 132.84 76.9587 135.354 76.3846 135.572C74.1715 136.376 71.891 136.851 69.5432 136.993C67.1954 137.136 64.8754 136.946 62.583 136.415C54.5182 134.495 44.2403 129.265 38.9112 123.477C36.2546 120.591 34.6353 117.158 32.7587 113.911C31.5472 111.813 30.3119 109.75 28.756 107.802C28.5343 107.521 27.1248 106.175 27.2555 105.819C27.3861 105.467 31.1355 105.74 31.5353 105.724C36.1913 105.593 40.7839 105.079 45.4597 105.067C55.9514 105.043 71.0358 108.262 77.0023 117.201C79.643 121.161 81.1435 128.461 81.773 132.761Z" fill="#82AF48"/>
<path fill-rule="evenodd" clip-rule="evenodd" d="M79.4781 130.583C79.6681 130.651 75.4002 132.286 74.9053 132.42C71.3816 133.386 67.0147 133.47 62.9922 132.472C55.9488 130.734 46.8745 126.466 42.0641 122.004C39.6648 119.779 38.1485 117.19 36.4104 114.731C35.29 113.139 34.1497 111.583 32.7403 110.083C32.5344 109.865 31.2714 108.82 31.3744 108.567C31.4733 108.313 34.7278 108.665 35.0722 108.673C39.0908 108.768 43.0539 108.578 47.1041 108.764C56.1824 109.18 69.3466 112.161 74.8142 118.971C77.2372 121.98 78.7852 127.4 79.4781 130.583Z" fill="#79A343"/>
<path fill-rule="evenodd" clip-rule="evenodd" d="M80.9041 91.5661C81.0189 91.8947 71.3229 89.6459 70.3252 89.2935C63.171 86.8072 56.8641 81.8978 53.4236 75.6305C47.4176 64.6596 44.2423 47.1998 47.5245 34.3484C49.1596 27.9306 52.8535 21.9443 55.9456 15.9185C57.945 12.0187 59.8652 8.14669 61.239 4.07272C61.4369 3.4828 62.015 0.31152 62.7276 0.0145837C63.4403 -0.282353 67.2331 4.04896 67.7003 4.45675C73.16 9.25921 79.1581 13.5113 84.4436 18.484C96.3052 29.6568 108.127 49.7257 100.502 67.1777C97.1208 74.902 87.0962 85.56 80.9041 91.5661Z" fill="#82AF48"/>
<path fill-rule="evenodd" clip-rule="evenodd" d="M83.3888 91.1624C83.4957 91.4474 75.6012 89.1986 74.7856 88.8661C68.934 86.4945 63.6762 82.0761 60.695 76.5927C55.4847 66.9957 52.3332 51.939 54.5385 41.0434C55.6431 35.6036 58.4184 30.6031 60.7068 25.5473C62.1876 22.2731 63.601 19.0266 64.5749 15.5821C64.7135 15.0793 65.0698 12.3831 65.636 12.1535C66.1982 11.9239 69.4011 15.7603 69.7931 16.1285C74.358 20.4242 79.3347 24.2685 83.765 28.7146C93.7024 38.6798 103.917 56.2624 98.3584 70.9469C95.8958 77.4479 88.1755 86.2332 83.3888 91.1703V91.1624Z" fill="#79A343"/>
<path fill-rule="evenodd" clip-rule="evenodd" d="M63.6881 7.22804C64.0365 7.55665 64.3057 8.27721 64.5749 9.0928C65.058 10.5339 65.4578 12.2601 65.8221 13.1984C67.8571 18.472 69.8446 23.7456 71.8558 29.039C77.4857 43.8977 81.821 58.9861 85.3605 74.4703C87.0629 81.9214 89.3355 89.8754 89.3355 97.5838C89.3355 97.7897 89.4107 97.9679 89.5572 98.1144C89.7037 98.2609 89.8779 98.3321 90.0877 98.3321C90.2936 98.3321 90.4718 98.2609 90.6182 98.1144C90.7647 97.9679 90.836 97.7897 90.836 97.5838C90.836 89.7685 88.5516 81.6918 86.8175 74.1338C83.2582 58.5862 78.9031 43.4345 73.2534 28.5006C71.2461 23.2072 69.2507 17.9257 67.2117 12.6481C66.796 11.5673 66.3249 9.41349 65.731 7.88526C65.4301 7.1053 65.0777 6.4758 64.7135 6.13531C64.5631 5.99674 64.3849 5.92548 64.1751 5.9334C63.9692 5.93736 63.795 6.01654 63.6525 6.16699C63.5099 6.31743 63.4426 6.4956 63.4466 6.70543C63.4545 6.91131 63.5297 7.08551 63.6802 7.22804H63.6881Z" fill="#6F963E"/>
<path fill-rule="evenodd" clip-rule="evenodd" d="M58.9192 16.9398C59.4141 17.3278 62.4666 19.7151 63.302 20.4357C64.8461 21.7739 67.2849 23.3338 69.1853 25.155C70.3493 26.2675 71.3114 27.4672 71.644 28.7974C71.6994 28.9914 71.8142 29.1379 71.9884 29.2369C72.1626 29.3398 72.3487 29.3636 72.5466 29.3161C72.7406 29.2686 72.8911 29.1577 72.998 28.9875C73.1049 28.8172 73.1405 28.6312 73.097 28.4372C72.705 26.8535 71.6044 25.3926 70.2226 24.0663C68.2985 22.2292 65.8517 20.6535 64.276 19.3034C63.302 18.4601 60.0991 15.8193 59.4933 15.5303C59.2241 15.3838 58.9588 15.3878 58.6975 15.5382C58.4006 15.6966 58.2779 15.9421 58.3254 16.2746C58.3412 16.437 58.4045 16.5795 58.5114 16.7022C58.6183 16.821 58.753 16.9002 58.9153 16.9358L58.9192 16.9398ZM59.6556 16.6864C59.8021 16.532 59.8615 16.3499 59.8298 16.1361C59.8496 16.3459 59.7903 16.528 59.6556 16.6864Z" fill="#6F963E"/>
<path fill-rule="evenodd" clip-rule="evenodd" d="M57.6864 26.921C57.8527 26.8893 58.0151 26.9052 58.1695 26.9645C58.5377 27.0675 58.894 27.2021 59.2345 27.3723C60.4816 27.9583 61.8515 28.8966 62.4731 29.3084C64.6427 30.7455 67.228 32.1985 69.5797 33.9049C71.8404 35.544 73.8833 37.4207 75.0592 39.7764C75.1542 39.9624 75.2968 40.0891 75.4947 40.1525C75.6887 40.2198 75.8827 40.2079 76.0648 40.1129C76.2509 40.0218 76.3776 39.8753 76.4449 39.6813C76.5083 39.4834 76.4964 39.2933 76.4014 39.1073C73.8833 34.0673 67.7625 31.0108 63.3005 28.0573C62.5245 27.5426 60.6677 26.2836 59.1988 25.7214C58.3833 25.4126 57.6548 25.3373 57.1757 25.5076C56.9778 25.5788 56.8392 25.7095 56.7481 25.8956C56.661 26.0856 56.6531 26.2756 56.7244 26.4696C56.7956 26.6676 56.9223 26.8062 57.1124 26.8972C57.2985 26.9843 57.4924 26.9923 57.6864 26.921Z" fill="#6F963E"/>
<path fill-rule="evenodd" clip-rule="evenodd" d="M76.2794 19.1849C76.315 19.3749 76.3388 19.5649 76.3546 19.7589C76.4021 20.9111 76.2042 22.6491 76.2121 23.0648C76.2794 27.3605 76.319 31.4582 74.961 35.5283C74.8976 35.7223 74.9135 35.9123 75.0085 36.0944C75.0996 36.2765 75.246 36.4032 75.44 36.4666C75.634 36.5299 75.8241 36.518 76.0062 36.427C76.1923 36.3359 76.319 36.1934 76.3863 35.9994C77.7997 31.7591 77.7839 27.511 77.7086 23.0411C77.7086 22.6175 77.8987 20.8596 77.8512 19.6956C77.8432 19.3314 77.7839 18.979 77.673 18.6306C77.6097 18.4445 77.4988 18.2822 77.3523 18.1515C77.2058 18.0248 77.0356 17.9615 76.8416 17.9694C76.6476 17.9734 76.4813 18.0446 76.3427 18.1753C76.2002 18.3099 76.125 18.4762 76.1131 18.6702C76.1012 18.8602 76.1527 19.0344 76.2754 19.1849H76.2794Z" fill="#6F963E"/>
<path fill-rule="evenodd" clip-rule="evenodd" d="M88.1042 27.1387C88.2229 26.8933 88.211 26.6557 88.0685 26.4221C87.9418 26.1806 87.7439 26.046 87.4707 26.0143C87.3044 25.9787 87.1421 26.0064 86.9916 26.0856C86.8412 26.1687 86.7343 26.2915 86.6709 26.4498C86.6076 26.6003 86.5799 26.7507 86.5799 26.9131C86.5799 27.2021 86.6591 27.7841 86.6907 28.0454C86.7818 28.7897 86.9045 29.534 86.9916 30.2823C87.2371 32.3806 87.0906 34.4632 86.8887 36.5655C86.2354 43.1931 85.598 50.1612 82.3951 56.1079C82.2961 56.29 82.2802 56.484 82.3396 56.6819C82.399 56.8799 82.5178 57.0264 82.6999 57.1254C82.882 57.2243 83.0721 57.2441 83.274 57.1847C83.4719 57.1254 83.6184 57.0026 83.7174 56.8205C87.0154 50.6997 87.7122 43.5336 88.3813 36.7159C88.599 34.5028 88.7416 32.3252 88.4803 30.1121C88.3932 29.3598 88.2704 28.6155 88.1794 27.8672C88.1635 27.7207 88.1279 27.3723 88.1042 27.1387Z" fill="#6F963E"/>
<path fill-rule="evenodd" clip-rule="evenodd" d="M97.6182 44.7569C97.7489 44.6302 97.8241 44.4797 97.8439 44.2976C97.8637 44.1194 97.8241 43.9532 97.7251 43.8027C97.6261 43.6523 97.4915 43.5493 97.3213 43.4979C97.1471 43.4424 96.9768 43.4504 96.8106 43.5216C96.5255 43.6523 96.3315 43.8661 96.2286 44.163C96.0266 44.6698 96.0148 45.7387 95.9752 45.9961C95.6505 48.0667 95.3378 50.1215 94.8191 52.1605C93.5324 57.2163 92.507 62.676 90.464 67.4864C89.5178 69.7154 87.9104 71.4653 86.8375 73.6033C86.7464 73.7893 86.7345 73.9794 86.8018 74.1773C86.8652 74.3713 86.9919 74.5178 87.1779 74.6089C87.3601 74.7 87.5501 74.7158 87.7481 74.6485C87.946 74.5851 88.0885 74.4584 88.1796 74.2763C89.2644 72.1067 90.8877 70.3251 91.8537 68.0644C93.9243 63.1867 94.9775 57.6518 96.28 52.5247C96.8026 50.4422 97.1313 48.3439 97.4638 46.2218C97.4915 46.0357 97.6024 44.9667 97.6261 44.749L97.6182 44.7569Z" fill="#6F963E"/>
<path fill-rule="evenodd" clip-rule="evenodd" d="M34.6684 109.085C34.6367 108.994 34.5931 108.911 34.5338 108.836C34.3714 108.634 34.1616 108.539 33.9042 108.555C33.7102 108.563 33.544 108.638 33.4054 108.772C33.2906 108.883 32.7046 109.647 33.8053 110.32C34.221 110.574 34.6644 110.784 35.0999 110.993C36.3233 111.587 37.5467 112.165 38.7542 112.771C42.357 114.557 46.0628 115.725 49.8992 116.889C61.2501 120.325 73.0761 123.679 80.5708 133.672C80.6935 133.838 80.8598 133.937 81.0657 133.964C81.2676 133.992 81.4537 133.945 81.62 133.822C81.7863 133.699 81.8852 133.533 81.913 133.327C81.9446 133.121 81.8971 132.935 81.7704 132.773C74.0778 122.511 61.9865 118.979 50.3347 115.451C46.5775 114.315 42.947 113.179 39.4233 111.429C38.1999 110.823 36.9726 110.241 35.7492 109.647C35.385 109.473 35.0128 109.299 34.6644 109.089L34.6684 109.085ZM33.3935 109.814C33.4885 109.921 33.5994 109.992 33.73 110.027C33.5994 109.988 33.4885 109.917 33.3935 109.814Z" fill="#6F963E"/>
<path fill-rule="evenodd" clip-rule="evenodd" d="M43.4462 108.559C43.7985 108.658 44.1271 108.784 44.4597 108.911C45.6395 109.366 46.7877 109.881 47.9121 110.459C51.2694 112.165 54.029 114.561 56.1946 117.637C56.3174 117.807 56.4797 117.91 56.6856 117.942C56.8914 117.978 57.0775 117.934 57.2478 117.815C57.4141 117.692 57.517 117.53 57.5526 117.324C57.5843 117.118 57.5407 116.932 57.422 116.762C55.1138 113.488 52.1761 110.938 48.6049 109.121C47.433 108.519 46.2294 107.981 45.0021 107.506C44.6062 107.347 44.2063 107.213 43.7985 107.094C43.6045 107.066 43.4066 107.058 43.2126 107.074C43.0304 107.023 42.8562 107.038 42.69 107.122C42.5395 107.189 42.4247 107.292 42.3416 107.43C42.2584 107.569 42.2267 107.719 42.2386 107.882C42.2545 108.044 42.3138 108.187 42.4168 108.309C42.5237 108.432 42.6543 108.515 42.8087 108.555C42.8958 108.575 42.9829 108.582 43.074 108.578L43.4422 108.555L43.4462 108.559ZM43.5926 108.286C43.5372 108.357 43.4699 108.416 43.3947 108.464C43.4699 108.416 43.5372 108.361 43.5926 108.286Z" fill="#6F963E"/>
<path fill-rule="evenodd" clip-rule="evenodd" d="M59.92 110.495C60.1417 110.689 60.7118 111.191 60.9295 111.409C61.5986 112.043 62.2004 112.735 62.7389 113.484C64.4888 115.93 66.2071 118.377 67.0029 121.335C67.0583 121.537 67.1731 121.687 67.3513 121.79C67.5334 121.893 67.7234 121.917 67.9214 121.865C68.1233 121.81 68.2738 121.695 68.3767 121.513C68.4796 121.335 68.5074 121.145 68.4519 120.947C67.6126 117.819 65.8191 115.202 63.9583 112.609C63.3644 111.785 62.7032 111.025 61.9668 110.324C61.6857 110.051 60.9177 109.374 60.8187 109.275C60.3317 108.852 58.5461 109.255 59.8843 110.455L59.92 110.487V110.495Z" fill="#6F963E"/>
<path fill-rule="evenodd" clip-rule="evenodd" d="M74.1848 116.346C74.165 116.164 74.0898 116.006 73.9552 115.879C73.8205 115.752 73.6582 115.681 73.4761 115.673C73.29 115.665 73.1237 115.717 72.9772 115.832C72.8308 115.946 72.7397 116.097 72.7041 116.279C72.6803 116.572 72.7397 116.849 72.8822 117.106C73.2029 117.791 74.0937 119.165 74.2085 119.478C74.9925 121.588 75.5349 123.916 75.5349 126.185C75.5388 126.391 75.6101 126.569 75.7566 126.715C75.9031 126.862 76.0812 126.933 76.2871 126.933C76.493 126.933 76.6711 126.862 76.8176 126.715C76.9641 126.569 77.0354 126.391 77.0354 126.185C77.0354 123.738 76.4613 121.232 75.618 118.955C75.4913 118.619 74.3115 116.564 74.1887 116.346H74.1848Z" fill="#6F963E"/>
<path fill-rule="evenodd" clip-rule="evenodd" d="M60.8672 131.783C60.986 131.799 62.2687 132.017 62.5498 132.052C64.0702 132.25 65.6063 132.345 67.1345 132.421C71.0462 132.607 74.3046 132.017 78.0143 131.051C78.2202 131.003 78.3785 130.888 78.4894 130.71C78.5963 130.528 78.628 130.334 78.5725 130.132C78.5211 129.926 78.4023 129.772 78.2162 129.669C78.0341 129.562 77.8401 129.542 77.6382 129.602C74.0749 130.524 70.9591 131.102 67.2098 130.92C65.7172 130.849 64.2246 130.758 62.7438 130.572C62.4429 130.532 61.2948 130.33 61.0414 130.298C60.9187 130.279 60.792 130.287 60.6732 130.322C60.499 130.378 60.3644 130.481 60.2654 130.635C60.1664 130.789 60.1308 130.96 60.1546 131.138C60.1783 131.32 60.2575 131.47 60.3921 131.593C60.5267 131.716 60.6851 131.783 60.8672 131.787V131.783Z" fill="#6F963E"/>
<path fill-rule="evenodd" clip-rule="evenodd" d="M50.1659 123.924C50.0154 123.809 49.8452 123.762 49.6591 123.774C49.4493 123.79 49.279 123.873 49.1404 124.031C49.0058 124.189 48.9425 124.372 48.9583 124.577C48.9702 124.803 49.0533 124.997 49.2038 125.159C49.4017 125.381 49.6512 125.484 49.9481 125.48C50.1857 125.468 50.4192 125.425 50.6449 125.349C50.835 125.274 51.029 125.219 51.2309 125.187C52.2088 125.155 53.1907 125.152 54.1686 125.144C58.7018 125.12 64.0031 125.635 68.2275 123.524C68.4136 123.433 68.5403 123.287 68.6076 123.089C68.6709 122.895 68.6591 122.701 68.564 122.519C68.473 122.333 68.3265 122.206 68.1325 122.143C67.9345 122.075 67.7445 122.087 67.5584 122.182C63.5359 124.193 58.4761 123.619 54.1606 123.643C53.1669 123.643 52.1731 123.643 51.1794 123.687C50.9419 123.702 50.7083 123.75 50.4826 123.829L50.1461 123.924H50.1659ZM50.4588 124.451V124.474C50.4588 124.474 50.4588 124.459 50.4588 124.451Z" fill="#6F963E"/>
<path fill-rule="evenodd" clip-rule="evenodd" d="M39.5432 118.852C39.7609 118.852 40.1648 118.868 40.2875 118.864C41.0991 118.844 41.9068 118.84 42.7184 118.832C45.2879 118.84 47.7822 118.401 50.1933 117.518C50.3675 117.431 50.4942 117.3 50.5655 117.118C50.6367 116.94 50.6367 116.758 50.5694 116.58C50.5021 116.398 50.3834 116.263 50.2092 116.172C50.0389 116.085 49.8568 116.065 49.6707 116.117C47.4219 116.94 45.1018 117.348 42.7066 117.34C41.891 117.34 41.0754 117.352 40.2598 117.372C40.1133 117.372 39.7491 117.352 39.4878 117.356C39.3215 117.356 39.1592 117.376 38.9968 117.423C38.7989 117.486 38.6484 117.609 38.5494 117.791C38.4544 117.942 38.4188 118.104 38.4426 118.278C38.4663 118.452 38.5455 118.599 38.6801 118.718C38.791 118.832 38.9295 118.904 39.0919 118.931C39.2542 118.959 39.4046 118.935 39.5511 118.864L39.5432 118.852ZM39.951 118.088C39.9352 117.918 39.8678 117.779 39.7451 117.665C39.8599 117.783 39.9272 117.922 39.951 118.088Z" fill="#6F963E"/>
<path fill-rule="evenodd" clip-rule="evenodd" d="M91.0691 96.4436C91.564 96.2021 89.1925 96.6376 88.6461 96.6297C87.4465 96.6099 86.2508 96.6456 85.0551 96.7327C81.6978 96.9821 78.3523 97.3582 74.991 97.6076C64.6457 98.3519 53.4017 99.0804 43.8087 94.6779C19.2936 83.4101 14.5703 56.0761 7.96646 32.7844C6.41843 27.3445 4.52596 22.0511 2.09504 16.9557C1.85749 16.4529 -0.379434 12.9926 0.0560721 12.4344C0.677659 11.6425 7.66557 13.7409 8.50491 13.9032C17.6387 15.669 26.7447 17.5931 35.7122 20.0399C48.0014 23.3893 61.0785 27.3683 71.3406 35.0609C90.3208 49.2941 93.1833 74.3991 91.0691 96.4436Z" fill="#A5C67C"/>
<path fill-rule="evenodd" clip-rule="evenodd" d="M89.8511 94.381C90.243 94.1751 88.3387 94.5789 87.8992 94.5829C86.9332 94.5868 85.9671 94.6423 85.0051 94.7373C82.301 95.0065 79.6087 95.3826 76.9046 95.6479C68.5706 96.4635 59.516 97.283 51.6136 93.8346C31.4219 85.0176 26.6511 62.5731 20.5065 43.5058C19.097 39.0478 17.3352 34.7363 15.2171 30.5673C15.0072 30.1595 13.0831 27.3485 13.4117 26.8813C13.8868 26.2162 19.6078 27.8078 20.2887 27.9305C27.728 29.2054 35.1514 30.6188 42.4798 32.4598C52.5242 34.9818 63.2258 38.0105 71.7815 44.1591C87.6102 55.5219 90.7894 76.1688 89.8511 94.3849V94.381Z" fill="#98BE6A"/>
<path fill-rule="evenodd" clip-rule="evenodd" d="M84.5603 116.457L84.5445 116.473C84.4138 116.631 84.3584 116.813 84.3742 117.019C84.394 117.221 84.4811 117.391 84.6355 117.522C84.7978 117.669 84.9879 117.736 85.2017 117.728C85.4828 117.724 85.6966 117.601 85.8431 117.364C85.9262 117.237 85.9777 117.099 86.0054 116.948C86.041 116.548 86.1242 116.164 86.2548 115.788C86.3934 115.428 86.5003 115.064 86.5795 114.687C86.627 114.422 86.7141 114.169 86.8329 113.927C87.8345 112.161 88.9708 110.415 90.4357 108.994C94.6205 104.936 100.729 102.394 106.296 100.91C112.647 99.215 119.448 99.6149 125.957 99.2427C137.688 98.5776 149.787 97.085 159.947 90.7978C160.125 90.687 160.236 90.5326 160.283 90.3307C160.331 90.1288 160.303 89.9387 160.192 89.7606C160.081 89.5863 159.927 89.4755 159.725 89.428C159.523 89.3805 159.333 89.4121 159.159 89.519C149.209 95.6795 137.356 97.0929 125.87 97.7382C119.266 98.1144 112.358 97.7382 105.912 99.4526C100.108 101.001 93.7535 103.677 89.3905 107.909C87.8266 109.426 86.6032 111.29 85.5303 113.175C85.1977 113.757 85.1423 114.573 84.877 115.186C84.7226 115.594 84.6157 116.01 84.5603 116.441V116.457ZM85.5461 116.338L85.5659 116.354L85.554 116.346L85.5461 116.338ZM85.4749 116.295H85.459C85.4867 116.307 85.5105 116.323 85.5303 116.338L85.5065 116.323L85.4749 116.303V116.295Z" fill="#6F963E"/>
<path fill-rule="evenodd" clip-rule="evenodd" d="M93.47 106.492C93.8936 106.346 94.4004 105.862 94.8715 105.158C95.6752 103.934 96.4789 102.002 96.8907 101.408C99.3256 97.9086 102.22 94.8481 105.573 92.2232C105.735 92.0926 105.83 91.9263 105.854 91.7204C105.878 91.5145 105.826 91.3284 105.696 91.1661C105.569 91.0038 105.399 90.9088 105.193 90.885C104.987 90.8613 104.805 90.9167 104.643 91.0434C101.171 93.7633 98.1735 96.9346 95.6554 100.553C95.2951 101.08 94.634 102.596 93.9372 103.808C93.755 104.14 93.5452 104.453 93.3156 104.754C93.1928 104.9 93.0978 105.035 92.9909 105.071C92.793 105.138 92.6504 105.265 92.5594 105.451C92.4683 105.637 92.4564 105.827 92.5237 106.025C92.591 106.219 92.7177 106.365 92.9038 106.456C93.0899 106.547 93.2799 106.559 93.4779 106.492H93.47Z" fill="#6F963E"/>
<path fill-rule="evenodd" clip-rule="evenodd" d="M109.468 98.4155C109.357 98.4828 109.274 98.5739 109.207 98.6887C109.143 98.7996 109.108 98.9183 109.104 99.049C109.1 99.1796 109.124 99.3024 109.179 99.4172C109.234 99.536 109.314 99.631 109.421 99.7102C109.662 99.9081 109.923 99.9358 110.201 99.7933C110.343 99.726 110.458 99.631 110.553 99.5043C110.652 99.3736 110.81 99.0767 110.901 98.954C111.206 98.5541 111.499 98.1423 111.796 97.7306C112.722 96.4637 113.716 95.2522 114.765 94.0882C117.739 90.81 121.116 88.0267 124.909 85.7462C125.083 85.6393 125.198 85.481 125.245 85.283C125.293 85.0811 125.265 84.891 125.154 84.7129C125.047 84.5387 124.893 84.4239 124.691 84.3764C124.489 84.3288 124.299 84.3566 124.125 84.4674C120.209 86.8627 116.717 89.6658 113.645 93.0865C112.556 94.2861 111.531 95.5412 110.573 96.8477C110.28 97.2436 109.991 97.6435 109.698 98.0394C109.646 98.1067 109.539 98.2769 109.46 98.4036L109.468 98.4155Z" fill="#6F963E"/>
<path fill-rule="evenodd" clip-rule="evenodd" d="M126.035 98.5103C129.531 93.8741 135.335 89.7922 140.217 86.8149C140.403 86.712 140.525 86.5576 140.581 86.3478C140.632 86.1419 140.605 85.9479 140.494 85.7658C140.383 85.5836 140.224 85.4688 140.015 85.4253C139.805 85.3778 139.615 85.4134 139.437 85.5322C134.401 88.6005 128.442 92.8289 124.835 97.5957C124.713 97.762 124.661 97.9481 124.693 98.1539C124.72 98.3598 124.815 98.5222 124.982 98.6488C125.148 98.7716 125.334 98.823 125.54 98.7914C125.742 98.7637 125.908 98.6686 126.035 98.5024V98.5103Z" fill="#6F963E"/>
<path fill-rule="evenodd" clip-rule="evenodd" d="M140.683 97.1958C142.005 96.2575 143.371 94.5075 144.868 92.7457C146.249 91.1185 147.746 89.4794 149.476 88.6124C149.67 88.5253 149.805 88.3827 149.876 88.1808C149.947 87.9789 149.935 87.7849 149.84 87.5949C149.745 87.4048 149.595 87.2742 149.393 87.2108C149.187 87.1475 148.993 87.1673 148.807 87.2702C146.907 88.2244 145.244 89.9901 143.723 91.7757C142.322 93.4267 141.055 95.0975 139.812 95.9724C139.642 96.0912 139.543 96.2535 139.507 96.4594C139.471 96.6653 139.515 96.8514 139.638 97.0216C139.756 97.1879 139.919 97.2908 140.125 97.3265C140.33 97.3581 140.516 97.3146 140.687 97.1958H140.683Z" fill="#6F963E"/>
<path fill-rule="evenodd" clip-rule="evenodd" d="M99.6779 103.166C100.078 103.273 100.474 103.404 100.858 103.558C102.311 104.168 104.168 105.185 104.457 105.328C107.082 106.587 109.548 108.448 112.058 110.186C114.671 112.003 117.332 113.67 120.242 114.474C120.444 114.541 120.638 114.521 120.828 114.422C121.014 114.319 121.137 114.165 121.196 113.959C121.251 113.753 121.228 113.559 121.117 113.377C121.006 113.191 120.847 113.076 120.642 113.028C117.894 112.264 115.384 110.665 112.913 108.954C110.336 107.173 107.802 105.269 105.11 103.974C104.726 103.792 101.725 102.153 100.296 101.761C100.007 101.67 99.7096 101.638 99.4047 101.67C99.1909 101.701 99.0088 101.796 98.8623 101.951C98.7396 102.081 98.6723 102.232 98.6604 102.406C98.6446 102.58 98.6881 102.743 98.7871 102.885C98.8821 103.032 99.0167 103.131 99.183 103.182C99.3493 103.237 99.5156 103.23 99.6779 103.166Z" fill="#6F963E"/>
<path fill-rule="evenodd" clip-rule="evenodd" d="M118.544 98.2648C118.496 98.2212 118.449 98.1856 118.389 98.1539C118.215 98.0629 118.037 98.0431 117.847 98.0945C117.657 98.146 117.51 98.2569 117.403 98.4231C117.3 98.5855 117.265 98.7676 117.3 98.9616C117.336 99.1516 117.431 99.31 117.589 99.4248C117.748 99.5555 118.623 100.078 118.698 100.126C119.858 100.874 121.018 101.638 122.166 102.398C126.727 105.439 132.112 108.974 137.524 110.21C137.73 110.261 137.92 110.233 138.102 110.126C138.284 110.016 138.399 109.857 138.446 109.651C138.494 109.445 138.458 109.251 138.343 109.073C138.229 108.895 138.066 108.788 137.856 108.749C132.61 107.549 127.416 104.093 122.998 101.151C121.838 100.379 120.678 99.6148 119.51 98.8586C119.45 98.8191 118.678 98.344 118.54 98.2569L118.544 98.2648Z" fill="#6F963E"/>
<path fill-rule="evenodd" clip-rule="evenodd" d="M135.468 98.6014L136.332 98.9182C137.203 99.2745 138.097 99.6071 138.992 99.9238C141.764 100.91 144.681 101.5 147.591 101.88C147.801 101.915 147.995 101.868 148.165 101.741C148.336 101.614 148.435 101.448 148.462 101.238C148.49 101.024 148.439 100.838 148.308 100.672C148.173 100.506 147.999 100.411 147.789 100.391C144.982 100.019 142.163 99.4606 139.495 98.5104C138.62 98.2016 137.745 97.8769 136.894 97.5285C136.854 97.5127 136.328 97.287 135.924 97.1524C135.726 97.0811 135.516 97.0376 135.302 97.0257C135.12 97.0138 134.95 97.0653 134.803 97.1761C134.657 97.291 134.566 97.4414 134.53 97.6235C134.455 97.9086 134.522 98.158 134.732 98.3678C134.934 98.5896 135.179 98.6687 135.468 98.5975V98.6014Z" fill="#6F963E"/>
<path fill-rule="evenodd" clip-rule="evenodd" d="M5.23719 20.3565C6.22697 20.9543 9.14487 24.2008 9.60809 24.5769C14.2918 28.3579 20.0127 31.45 25.4526 34.0037C47.1923 44.2222 65.6103 55.6721 79.4278 75.9113C83.8937 82.4558 89.2782 88.7865 89.7889 96.9661C89.8047 97.1759 89.8879 97.3462 90.0423 97.4847C90.1967 97.6193 90.3788 97.6827 90.5847 97.6708C90.7906 97.6589 90.9648 97.5718 91.1033 97.4174C91.2379 97.263 91.3013 97.0809 91.2894 96.875C90.7628 88.4183 85.2834 81.8382 80.663 75.068C66.6872 54.5913 48.0792 42.987 26.0861 32.6457C20.7571 30.1395 15.143 27.1187 10.5464 23.409C10.1267 23.0685 7.67207 20.3723 6.44473 19.3865C6.22697 19.2004 5.98547 19.046 5.72416 18.9272C5.5262 18.848 5.32429 18.8361 5.11841 18.8916C4.95213 18.943 4.81751 19.042 4.71854 19.1885C4.6156 19.331 4.57205 19.4934 4.58788 19.6676C4.59976 19.8457 4.66707 19.9962 4.7898 20.1268C4.90858 20.2535 5.05902 20.3287 5.23323 20.3565H5.23719Z" fill="#6F963E"/>
<path fill-rule="evenodd" clip-rule="evenodd" d="M85.5167 84.9661C85.2078 85.0215 82.7175 85.4729 82.0762 85.651C79.7165 86.3082 77.4954 87.3416 75.207 88.1849C68.3617 90.7069 59.2714 92.5201 52.1885 90.0219C51.9906 89.9546 51.8005 89.9625 51.6144 90.0536C51.4284 90.1407 51.3017 90.2832 51.2304 90.4812C51.1631 90.6752 51.171 90.8652 51.2621 91.0513C51.3492 91.2374 51.4917 91.368 51.6897 91.4353C59.0814 94.0444 68.5754 92.2232 75.7257 89.5943C77.9784 88.7669 80.156 87.7414 82.476 87.0961C83.153 86.91 85.5127 86.5181 85.9245 86.4112C86.1264 86.3676 86.2887 86.2607 86.4114 86.0984C86.554 85.9044 86.5896 85.6946 86.5223 85.461C86.4708 85.267 86.36 85.1165 86.1858 85.0175C85.968 84.8869 85.7463 84.8711 85.5167 84.9661ZM85.097 85.9321C85.1524 86.0826 85.2474 86.1974 85.3781 86.2805C85.2514 86.1934 85.1564 86.0786 85.097 85.9321ZM85.097 85.3818C85.0455 85.5045 85.0297 85.6312 85.0534 85.7619C85.0336 85.6312 85.0495 85.5045 85.097 85.3818Z" fill="#6F963E"/>
<path fill-rule="evenodd" clip-rule="evenodd" d="M82.4836 78.8691C82.4598 78.9087 82.44 78.9523 82.4242 78.9958C82.3529 79.1898 82.3609 79.3838 82.448 79.5699C82.5311 79.7599 82.6736 79.8906 82.8676 79.9618C83.0814 80.0291 83.2873 80.0133 83.4853 79.9104C83.6832 79.8074 83.8178 79.6491 83.8812 79.4353C84.0831 78.8968 84.6097 76.0106 84.6453 75.7968C85.3065 71.5882 85.1441 67.6726 84.281 63.5036C84.2454 63.2978 84.1385 63.1354 83.9643 63.0167C83.7901 62.9018 83.6001 62.8623 83.3942 62.9058C83.1883 62.9494 83.026 63.0602 82.9151 63.2344C82.8003 63.4126 82.7686 63.6026 82.8122 63.8085C83.6357 67.7954 83.7941 71.5368 83.1646 75.5632C83.1329 75.7453 82.5667 78.489 82.4875 78.8691H82.4836ZM82.8835 78.5484C83.0497 78.489 83.216 78.489 83.3863 78.5484C83.216 78.4811 83.0497 78.4811 82.8835 78.5484Z" fill="#6F963E"/>
<path fill-rule="evenodd" clip-rule="evenodd" d="M70.6523 46.6611C70.6325 46.5423 70.585 46.4315 70.5137 46.3325C70.387 46.1662 70.2247 46.0672 70.0188 46.0395C69.8169 46.0079 69.6308 46.0554 69.4645 46.1781C69.2547 46.3206 69.1557 46.5186 69.1597 46.772C69.1676 46.8828 69.1874 46.9937 69.2151 47.1045C69.413 47.837 70.5018 51.4319 70.5691 51.713C71.7094 56.3175 72.8338 61.4367 72.4339 66.2233C72.418 66.4331 72.4735 66.6153 72.6081 66.7736C72.7427 66.932 72.9129 67.0191 73.1188 67.0349C73.3247 67.0508 73.5068 66.9953 73.6652 66.8607C73.8235 66.7261 73.9106 66.5559 73.9304 66.35C74.3422 61.3971 73.202 56.1077 72.0261 51.3488C71.9548 51.0677 70.8621 47.449 70.6681 46.7126L70.6523 46.6572V46.6611Z" fill="#6F963E"/>
<path fill-rule="evenodd" clip-rule="evenodd" d="M36.4493 74.7552C36.5404 74.7948 36.6394 74.8423 36.7186 74.8819C37.0076 75.0403 37.3085 75.171 37.6213 75.2739C38.7852 75.5787 39.9611 75.8519 41.137 76.0855C44.6646 76.8021 48.2793 77.1624 51.8663 77.396C57.0013 77.7325 62.1641 77.6533 67.2278 76.6398C69.0332 76.2756 71.0524 75.6421 73.0913 75.2422C75.0115 74.8582 76.9357 74.6642 78.7014 75.171C78.9034 75.2383 79.1013 75.2224 79.2914 75.1234C79.4814 75.0245 79.6041 74.8701 79.6635 74.6642C79.7229 74.4583 79.6991 74.2603 79.5883 74.0782C79.4814 73.8921 79.323 73.7734 79.1132 73.7259C77.1257 73.1597 74.9521 73.3379 72.7944 73.7694C70.7554 74.1772 68.7362 74.8186 66.9309 75.167C61.9978 76.1528 56.9657 76.2241 51.9653 75.9034C48.4416 75.6698 44.8942 75.3174 41.4339 74.6206C40.2818 74.387 39.1376 74.1178 38.0013 73.8209C37.7163 73.7457 37.2293 73.4448 36.8809 73.2983C36.6196 73.1716 36.3425 73.1241 36.0534 73.1557C35.8278 73.1953 35.6496 73.3141 35.5189 73.5041C35.3685 73.7338 35.3329 73.9832 35.4121 74.2485C35.4635 74.4504 35.5783 74.6008 35.7565 74.7077C35.9347 74.8146 36.1207 74.8423 36.3227 74.7909C36.3662 74.779 36.4058 74.7671 36.4493 74.7473V74.7552Z" fill="#6F963E"/>
<path fill-rule="evenodd" clip-rule="evenodd" d="M54.5935 34.9899C54.6806 34.7167 54.6331 34.4712 54.4431 34.2574C54.2689 34.0238 54.0353 33.909 53.7423 33.909C53.5404 33.909 53.3622 33.9843 53.2197 34.1307C53.0891 34.2535 53.0099 34.4079 52.9861 34.59C52.9743 34.7761 52.9901 34.9582 53.0455 35.1364C53.2435 35.7817 53.485 36.4152 53.7661 37.0288C54.3995 38.3591 55.1241 39.6379 55.7971 40.9524C57.5352 44.3295 59.0911 48.9934 59.0911 52.8932C59.0793 53.107 59.1466 53.293 59.297 53.4475C59.4435 53.6019 59.6256 53.681 59.8394 53.681C60.0532 53.681 60.2353 53.6019 60.3818 53.4475C60.5283 53.293 60.5996 53.107 60.5877 52.8932C60.5877 48.7677 58.9684 43.8346 57.1314 40.2635C56.4623 38.9649 55.7457 37.7019 55.1241 36.3835C54.9934 36.1103 54.7321 35.3898 54.5856 34.9859L54.5935 34.9899Z" fill="#6F963E"/>
<path fill-rule="evenodd" clip-rule="evenodd" d="M34.1389 29.4388C36.8351 32.8595 40.4062 36.9098 41.883 41.7003C41.9384 41.9022 42.0611 42.0527 42.2433 42.1517C42.4294 42.2546 42.6233 42.2744 42.8213 42.2111C43.0232 42.1477 43.1737 42.025 43.2687 41.8389C43.3637 41.6528 43.3795 41.4588 43.3162 41.2609C41.784 36.2842 38.1139 32.0637 35.3148 28.5124C35.1841 28.358 35.0178 28.2709 34.8199 28.255C34.6179 28.2352 34.4398 28.2867 34.2814 28.4094C34.123 28.5361 34.032 28.6985 34.0043 28.8964C33.9766 29.0944 34.0201 29.2765 34.1389 29.4388Z" fill="#6F963E"/>
<path fill-rule="evenodd" clip-rule="evenodd" d="M21.3195 26.5568C21.8421 28.4414 24.0196 31.1217 25.1203 32.8123C25.2311 32.9865 25.3895 33.0934 25.5914 33.1369C25.7933 33.1805 25.9834 33.1448 26.1576 33.034C26.3318 32.9192 26.4387 32.7608 26.4822 32.5589C26.5258 32.357 26.4902 32.1669 26.3753 31.9927C25.346 30.4051 23.2516 27.9267 22.7686 26.1569C22.7131 25.959 22.5944 25.8085 22.4122 25.7056C22.2341 25.6027 22.044 25.5789 21.8421 25.6343C21.6442 25.6898 21.4937 25.8085 21.3908 25.9867C21.2878 26.1688 21.2641 26.3549 21.3195 26.5568Z" fill="#6F963E"/>
<path fill-rule="evenodd" clip-rule="evenodd" d="M23.0338 56.0763L23.0971 56.108C23.9008 56.492 27.4918 58.3924 28.2638 58.6735C32.8129 60.3086 37.5322 61.6864 42.3069 62.4862C50.6687 63.8877 57.902 61.0134 66.0143 61.0134C66.2202 61.0134 66.3944 60.9421 66.5409 60.7956C66.6874 60.6491 66.7626 60.471 66.7626 60.2651C66.7626 60.0592 66.6874 59.8811 66.5409 59.7346C66.3944 59.5881 66.2202 59.5168 66.0143 59.5168C57.9812 59.5168 50.831 62.3991 42.5563 61.0094C37.8687 60.2215 33.2405 58.8675 28.7706 57.2601C28.0183 56.9909 24.5224 55.1301 23.7464 54.754C23.6039 54.6827 23.4534 54.6352 23.2951 54.6154C23.109 54.6114 22.9427 54.6629 22.7962 54.7817C22.6537 54.9004 22.5626 55.0509 22.5309 55.233C22.4953 55.4151 22.527 55.5893 22.622 55.7477C22.721 55.91 22.8556 56.0209 23.0338 56.0763Z" fill="#6F963E"/>
<path fill-rule="evenodd" clip-rule="evenodd" d="M13.241 43.8583C13.3677 43.8702 13.4904 43.89 13.6131 43.9177C14.2031 44.0721 14.8801 44.3809 15.2008 44.472C17.6673 45.1728 20.1497 45.8419 22.6598 46.3764C31.8292 48.3322 40.092 47.6433 49.2139 47.6433C49.4197 47.6433 49.5979 47.572 49.7444 47.4255C49.8909 47.2791 49.9661 47.1009 49.9661 46.895C49.9661 46.6852 49.8909 46.511 49.7444 46.3645C49.5979 46.218 49.4197 46.1428 49.2139 46.1428C40.2028 46.1428 32.0351 46.8435 22.9765 44.9075C20.4981 44.3849 18.0474 43.7277 15.6125 43.0309C15.2206 42.9161 14.31 42.5083 13.6409 42.3895C13.1064 42.2984 12.6669 42.4053 12.4016 42.6191C12.2512 42.7419 12.1601 42.9002 12.1324 43.0903C12.1047 43.2843 12.1443 43.4624 12.2552 43.6208C12.3621 43.7831 12.5125 43.8861 12.7025 43.9296C12.8886 43.9771 13.0707 43.9534 13.241 43.8583Z" fill="#6F963E"/>
<path fill-rule="evenodd" clip-rule="evenodd" d="M12.4919 33.6081C12.5869 33.5289 12.7215 33.5606 12.8719 33.5844C13.1174 33.6239 13.3549 33.6873 13.5885 33.7704C14.3725 34.0238 15.2712 34.4118 16.162 34.5781C20.1449 35.3264 25.0661 34.8394 28.8352 36.2053C29.0292 36.2726 29.2232 36.2647 29.4093 36.1776C29.5954 36.0905 29.7261 35.948 29.7934 35.754C29.8646 35.56 29.8567 35.3699 29.7696 35.1799C29.6825 34.9938 29.54 34.8671 29.346 34.7959C25.4977 33.3943 20.4933 33.8694 16.4391 33.1053C15.4295 32.9153 14.4041 32.4164 13.5727 32.1987C12.7413 31.9809 12.0247 32.0442 11.5258 32.4639C11.3675 32.5946 11.2804 32.7648 11.2606 32.9746C11.2408 33.1805 11.3001 33.3626 11.4348 33.521C11.5694 33.6794 11.7396 33.7704 11.9455 33.7863C12.1514 33.8021 12.3374 33.7427 12.4958 33.6081H12.4919Z" fill="#6F963E"/>
</svg>
