<svg width="140" height="73" viewBox="0 0 140 73" fill="none" xmlns="http://www.w3.org/2000/svg">
<g clip-path="url(#clip0_0_369)">
<g opacity="0.75">
<path d="M55.8086 8.58496C55.8086 8.58496 77.9842 10.8042 78.6236 33.5802C78.6236 33.5802 78.3039 34.4562 76.3857 34.0474C75.5138 33.8722 74.0897 34.3686 73.1887 34.427C71.3286 34.5146 69.4395 34.3686 67.6666 33.7554C62.9292 32.091 61.7667 27.4482 61.0691 22.9514C60.6332 20.2942 60.575 17.5202 59.6741 14.9506C59.2962 13.841 58.7731 12.7898 58.1918 11.797C57.8721 11.213 56.5352 8.64336 55.8086 8.58496Z" fill="#376A34"/>
</g>
<g opacity="0.82">
<path d="M53.7734 42.7197C53.7734 42.7197 60.3128 28.0029 78.5648 32.5873C78.5648 32.5873 79.9308 33.4633 78.8845 35.6533C77.8382 37.8141 75.92 48.4429 63.0157 42.3401C63.0157 42.3109 59.3246 41.0261 53.7734 42.7197Z" fill="#F39121"/>
</g>
<g opacity="0.76">
<path d="M65.7434 6.10352e-05C65.7434 6.10352e-05 88.0062 12.7897 77.9211 34.0473C77.9211 34.0473 59.175 32.3537 65.4237 14.6293C65.4237 14.6001 69.0566 8.43886 65.7434 6.10352e-05Z" fill="#A9C552"/>
</g>
<g opacity="0.71">
<path d="M83.1523 22.1045C82.9488 21.9877 82.7163 21.9293 82.4548 21.9293C81.67 21.9293 81.0306 22.5717 81.0306 23.3601C81.0306 24.1485 81.67 24.7909 82.4548 24.7909C83.2395 24.7909 83.8789 24.1485 83.8789 23.3601C83.8789 23.2725 83.8789 23.1849 83.8498 23.0973C85.4193 24.4405 87.6572 27.8277 79.1124 33.0837C79.1124 33.0837 75.6829 35.3321 69.812 36.6753C63.9702 37.9893 59.3491 39.0697 53.6235 45.8149C53.6235 45.8149 53.1295 46.3405 53.7689 46.5741C54.4083 46.8369 54.5245 45.7565 54.5245 45.7565C54.5245 45.7565 58.6225 38.6025 69.4923 37.3177C68.3879 37.4345 67.051 38.3981 66.15 38.9529C64.2318 40.0917 61.7323 41.7561 60.9476 43.9461C60.5698 44.9973 60.7441 46.4281 61.3836 47.3333C61.7033 47.7713 62.1101 48.0049 62.6042 48.1217C62.8367 48.1801 64.4934 48.4429 64.5806 48.2677C64.5806 48.2677 64.8131 47.8881 64.3481 47.8297C64.3481 47.8297 62.2555 48.3845 61.3254 46.3989C60.3954 44.4425 63.3308 40.9969 65.8012 39.9749C65.8012 39.9749 69.5214 37.6681 72.3115 36.9673C75.1016 36.2373 82.3094 32.7917 84.402 29.7257C86.3784 26.8057 86.7562 22.8637 83.1523 22.1045Z" fill="black"/>
</g>
<path d="M19.6471 70.4013L0 69.6713V69.642L19.6471 68.912V70.4013Z" fill="#376A34"/>
<path d="M120.383 70.4013L140.001 69.6713V69.642L120.383 68.912V70.4013Z" fill="#376A34"/>
<path d="M0.203446 63.2765C0.0290637 63.2181 0 63.1597 0 62.9261C0 62.3713 0.0290637 61.7289 0.0581275 61.5829C0.0581275 61.4369 0.0871912 61.3201 0.174382 61.3201C0.261574 61.3201 0.290637 61.4077 0.290637 61.4953C0.290637 61.6413 0.319701 61.8457 0.377828 62.0209C0.610338 62.7801 1.22068 63.0721 1.86008 63.0721C2.79012 63.0721 3.22607 62.4297 3.22607 61.9041C3.22607 61.4077 3.08076 60.9113 2.20884 60.2397L1.74382 59.8309C0.610338 58.9549 0.23251 58.2249 0.23251 57.3781C0.23251 56.2393 1.19161 55.4217 2.61574 55.4217C3.2842 55.4217 3.72016 55.5385 3.98173 55.5969C4.06892 55.6261 4.12705 55.6553 4.12705 55.7137C4.12705 55.8597 4.09799 56.1517 4.09799 56.9401C4.09799 57.1737 4.06892 57.2613 3.98173 57.2613C3.9236 57.2613 3.86548 57.2029 3.86548 57.0861C3.86548 56.9985 3.80735 56.6773 3.6039 56.4145C3.45858 56.2101 3.13888 55.9181 2.47042 55.9181C1.71476 55.9181 1.24974 56.3561 1.24974 56.9693C1.24974 57.4365 1.48225 57.8161 2.35416 58.4585L2.6448 58.6629C3.89454 59.5973 4.3305 60.3273 4.3305 61.2909C4.3305 61.9041 4.09799 62.6049 3.37139 63.1013C2.84825 63.4225 2.26697 63.5393 1.74382 63.5393C1.10442 63.5393 0.639402 63.4517 0.203446 63.2765Z" fill="#E43C25"/>
<path d="M7.14949 60.6776C7.09137 60.6776 7.09137 60.7068 7.0623 60.7652L6.51009 62.2544C6.39384 62.5172 6.36477 62.7508 6.36477 62.8968C6.36477 63.072 6.45196 63.218 6.77166 63.218H6.91698C7.03324 63.218 7.0623 63.2472 7.0623 63.3056C7.0623 63.3932 7.00418 63.4224 6.88792 63.4224C6.56822 63.4224 6.1032 63.3932 5.7835 63.3932C5.66724 63.3932 5.11503 63.4224 4.56282 63.4224C4.4175 63.4224 4.35938 63.3932 4.35938 63.3056C4.35938 63.2472 4.38844 63.218 4.47563 63.218C4.56282 63.218 4.70814 63.218 4.79533 63.1888C5.26035 63.1304 5.4638 62.78 5.66724 62.2544L8.25392 55.772C8.37017 55.48 8.4283 55.3632 8.54455 55.3632C8.63174 55.3632 8.68987 55.4508 8.80613 55.6844C9.03864 56.2392 10.6953 60.4732 11.3637 62.05C11.7416 62.9844 12.0613 63.1304 12.2647 63.1888C12.41 63.218 12.5844 63.218 12.7007 63.218C12.7879 63.218 12.846 63.218 12.846 63.3056C12.846 63.3932 12.7588 63.4224 12.381 63.4224C12.0031 63.4224 11.2475 63.4224 10.4337 63.3932C10.2593 63.3932 10.114 63.3932 10.114 63.3056C10.114 63.2472 10.1431 63.218 10.2593 63.218C10.3174 63.1888 10.4046 63.1012 10.3465 62.9844L9.53272 60.7944C9.50366 60.736 9.47459 60.736 9.41647 60.736H7.14949V60.6776ZM9.27115 60.1812C9.32927 60.1812 9.32927 60.152 9.32927 60.1228L8.39923 57.5824C8.39923 57.5532 8.37017 57.4948 8.34111 57.4948C8.31204 57.4948 8.28298 57.5532 8.28298 57.5824L7.32388 60.1228C7.32388 60.152 7.32388 60.1812 7.35294 60.1812H9.27115Z" fill="#E43C25"/>
<path d="M14.5324 61.9916C14.5615 62.8092 14.6777 63.072 14.8812 63.1304C15.0556 63.1888 15.259 63.1888 15.4043 63.1888C15.5206 63.1888 15.5787 63.218 15.5787 63.2764C15.5787 63.364 15.4915 63.3932 15.3462 63.3932C14.6777 63.3932 14.2708 63.364 14.0674 63.364C13.9802 63.364 13.4861 63.3932 12.963 63.3932C12.8177 63.3932 12.7305 63.3932 12.7305 63.2764C12.7305 63.218 12.7886 63.1888 12.9049 63.1888C13.0502 63.1888 13.2246 63.1888 13.3699 63.1304C13.6314 63.0428 13.6896 62.7508 13.6896 61.8456L13.7768 55.7136C13.7768 55.5092 13.8058 55.3632 13.9221 55.3632C14.0383 55.3632 14.1255 55.5092 14.2999 55.6844C14.4162 55.8304 15.9856 57.4948 17.4969 59.0132C18.1945 59.714 19.5895 61.2032 19.7639 61.3784H19.822L19.7058 56.7356C19.7058 56.0932 19.5895 55.918 19.357 55.8012C19.2117 55.7428 18.9501 55.7428 18.8048 55.7428C18.6885 55.7428 18.6304 55.7136 18.6304 55.6552C18.6304 55.5676 18.7467 55.5676 18.892 55.5676C19.4151 55.5676 19.9092 55.5968 20.1417 55.5968C20.258 55.5968 20.6358 55.5676 21.159 55.5676C21.3043 55.5676 21.3915 55.5676 21.3915 55.6552C21.3915 55.7136 21.3333 55.7428 21.2171 55.7428C21.1008 55.7428 21.0427 55.7428 20.8974 55.772C20.6067 55.8596 20.5195 56.064 20.5195 56.648L20.4033 63.1596C20.4033 63.3932 20.3742 63.4808 20.258 63.4808C20.1417 63.4808 20.0255 63.364 19.9092 63.2472C19.2698 62.634 17.9329 61.2616 16.8866 60.2104C15.7531 59.1008 14.6196 57.816 14.4452 57.6116H14.4162L14.5324 61.9916Z" fill="#E43C25"/>
<path d="M25.0509 56.1516L23.5105 56.1808C22.9002 56.21 22.6677 56.2392 22.5224 56.4728C22.4061 56.6188 22.377 56.7648 22.348 56.8232C22.3189 56.8816 22.2899 56.94 22.2317 56.94C22.1736 56.94 22.1445 56.8816 22.1445 56.7648C22.1445 56.5896 22.348 55.6552 22.348 55.5676C22.377 55.4216 22.4061 55.3632 22.4642 55.3632C22.5514 55.3632 22.6386 55.48 22.9002 55.48C23.1908 55.5092 23.5977 55.5384 23.9174 55.5384H27.9863C28.306 55.5384 28.5386 55.5092 28.6839 55.48C28.8292 55.4508 28.9164 55.4216 28.9745 55.4216C29.0326 55.4216 29.0617 55.48 29.0617 55.626C29.0617 55.8304 29.0326 56.5604 29.0326 56.8232C29.0326 56.94 29.0036 56.9984 28.9454 56.9984C28.8583 56.9984 28.8292 56.94 28.8292 56.794V56.6772C28.8001 56.4144 28.5386 56.1224 27.6085 56.0932L26.3006 56.064V60.298C26.3006 61.2616 26.3006 62.0792 26.3588 62.5172C26.3878 62.8092 26.446 63.0428 26.7657 63.072C26.911 63.1012 27.1435 63.1012 27.2888 63.1012C27.4051 63.1012 27.4632 63.1304 27.4632 63.1888C27.4632 63.2472 27.376 63.3056 27.2597 63.3056C26.5913 63.3056 25.9228 63.2764 25.6322 63.2764C25.3997 63.2764 24.7603 63.3056 24.3243 63.3056C24.179 63.3056 24.1209 63.2764 24.1209 63.1888C24.1209 63.1304 24.1499 63.1012 24.2952 63.1012C24.4406 63.1012 24.5859 63.072 24.6731 63.072C24.8765 63.0428 24.9347 62.8092 24.9637 62.5172C25.0218 62.0792 25.0218 61.2616 25.0218 60.3272V56.1516H25.0509Z" fill="#E43C25"/>
<path d="M36.2704 58.8672C36.2995 58.8672 36.3285 58.838 36.3285 58.8088V58.6044C36.3285 57.0276 36.3285 56.7356 36.2995 56.4144C36.2704 56.064 36.1832 55.8888 35.8635 55.8304C35.7763 55.8012 35.602 55.8012 35.4566 55.8012C35.3404 55.8012 35.2823 55.772 35.2823 55.7136C35.2823 55.6552 35.3404 55.626 35.4857 55.626C36.0379 55.626 36.6773 55.6552 36.9679 55.6552C37.2005 55.6552 37.8689 55.626 38.2758 55.626C38.4211 55.626 38.4793 55.6552 38.4793 55.7136C38.4793 55.772 38.4211 55.8012 38.3049 55.8012C38.2177 55.8012 38.1305 55.8012 38.0142 55.8304C37.7236 55.8888 37.6655 56.064 37.6364 56.4144C37.6074 56.7356 37.6073 57.0276 37.6073 58.6044V60.4148C37.6073 61.3784 37.6074 62.196 37.6655 62.634C37.6945 62.926 37.7527 63.1596 38.0724 63.1888C38.2177 63.218 38.4502 63.218 38.5955 63.218C38.7118 63.218 38.7699 63.2472 38.7699 63.3056C38.7699 63.364 38.6827 63.4224 38.5665 63.4224C37.898 63.4224 37.2586 63.3932 36.9679 63.3932C36.7354 63.3932 36.096 63.4224 35.6891 63.4224C35.5438 63.4224 35.4857 63.3932 35.4857 63.3056C35.4857 63.2472 35.5148 63.218 35.6601 63.218C35.8054 63.218 35.9507 63.1888 36.0379 63.1888C36.2414 63.1596 36.2995 62.926 36.3285 62.634C36.3867 62.196 36.3867 61.3784 36.3867 60.444V59.5388C36.3867 59.5096 36.3576 59.4804 36.3285 59.4804H32.4049C32.3759 59.4804 32.3468 59.4804 32.3468 59.5388V60.444C32.3468 61.4076 32.3468 62.2252 32.4049 62.6632C32.434 62.9552 32.4921 63.1888 32.8118 63.218C32.9572 63.2472 33.1897 63.2472 33.335 63.2472C33.4512 63.2472 33.5094 63.2764 33.5094 63.3348C33.5094 63.3932 33.4222 63.4516 33.3059 63.4516C32.6375 63.4516 31.9981 63.4224 31.7074 63.4224C31.4749 63.4224 30.8355 63.4516 30.3995 63.4516C30.2542 63.4516 30.1961 63.4224 30.1961 63.3348C30.1961 63.2764 30.2252 63.2472 30.3705 63.2472C30.5158 63.2472 30.6611 63.218 30.7483 63.218C30.9518 63.1888 31.0099 62.9552 31.0389 62.6632C31.0971 62.2252 31.0971 61.4076 31.0971 60.4732V58.6628C31.0971 57.086 31.0971 56.794 31.068 56.4728C31.0389 56.1224 30.9518 55.9472 30.6321 55.8888C30.5449 55.8596 30.3705 55.8596 30.2252 55.8596C30.1089 55.8596 30.0508 55.8304 30.0508 55.772C30.0508 55.7136 30.1089 55.6844 30.2542 55.6844C30.8064 55.6844 31.4458 55.7136 31.7365 55.7136C31.969 55.7136 32.6375 55.6844 33.0443 55.6844C33.1897 55.6844 33.2478 55.7136 33.2478 55.772C33.2478 55.8304 33.1897 55.8596 33.0734 55.8596C32.9862 55.8596 32.899 55.8596 32.7828 55.8888C32.4921 55.9472 32.434 56.1224 32.4049 56.4728C32.3759 56.794 32.3759 57.086 32.3759 58.6628V58.8672C32.3759 58.9256 32.4049 58.9256 32.434 58.9256H36.2704V58.8672Z" fill="#E43C25"/>
<path d="M40.9802 58.5753C40.9802 56.9985 40.9802 56.7065 40.9512 56.3853C40.9221 56.0349 40.8349 55.8597 40.6024 55.8013C40.4861 55.7721 40.3699 55.7721 40.2246 55.7721C40.1083 55.7721 40.0502 55.7429 40.0502 55.6553C40.0502 55.5969 40.1374 55.5677 40.2827 55.5677C40.6605 55.5677 41.329 55.5969 41.6196 55.5969C41.8812 55.5969 42.4915 55.5677 42.8694 55.5677C43.0147 55.5677 43.0728 55.5969 43.0728 55.6553C43.0728 55.7429 43.0147 55.7721 42.8984 55.7721C42.7822 55.7721 42.7241 55.7721 42.5787 55.8013C42.2881 55.8597 42.23 56.0349 42.2009 56.3853C42.1718 56.7065 42.1718 56.9985 42.1718 58.5753V60.3857C42.1718 61.3785 42.1718 62.1961 42.2009 62.6633C42.23 62.9553 42.3172 63.1305 42.6078 63.1597C42.7531 63.1889 42.9856 63.1889 43.1309 63.1889C43.2472 63.1889 43.3053 63.2181 43.3053 63.2765C43.3053 63.3349 43.2181 63.3933 43.1019 63.3933C42.4334 63.3933 41.765 63.3641 41.5034 63.3641C41.2709 63.3641 40.6315 63.3933 40.1955 63.3933C40.0502 63.3933 39.9921 63.3641 39.9921 63.2765C39.9921 63.2181 40.0211 63.1889 40.1664 63.1889C40.3118 63.1889 40.4571 63.1597 40.5443 63.1597C40.7477 63.1305 40.8058 62.9553 40.8349 62.6341C40.893 62.1961 40.893 61.3785 40.893 60.3857V58.5753H40.9802Z" fill="#E43C25"/>
<path d="M51.7923 62.6925C51.7923 62.9845 51.7923 62.9845 51.647 63.0721C50.9786 63.4225 49.9613 63.5393 49.1766 63.5393C46.6481 63.5393 44.4102 62.3421 44.4102 59.4805C44.4102 57.8161 45.253 56.6773 46.2121 56.0933C47.2003 55.4801 48.1012 55.4217 48.9732 55.4217C49.6707 55.4217 50.6007 55.5385 50.8042 55.5969C51.0076 55.6261 51.3855 55.7137 51.618 55.7137C51.7342 55.7137 51.7633 55.7721 51.7633 55.8305C51.7633 55.9473 51.7052 56.2393 51.7052 57.5241C51.7052 57.6993 51.6761 57.7285 51.5889 57.7285C51.5308 57.7285 51.5017 57.6701 51.4726 57.5825C51.4436 57.3489 51.3854 57.0277 51.1239 56.7357C50.8042 56.4145 49.9904 55.9181 48.8278 55.9181C48.2756 55.9181 47.52 55.9473 46.7934 56.5605C46.2121 57.0569 45.8343 57.8161 45.8343 59.1009C45.8343 61.3201 47.2584 62.9845 49.4091 62.9845C49.6707 62.9845 50.0485 62.9845 50.281 62.8677C50.4263 62.8093 50.4845 62.6633 50.4845 62.4881V61.5245C50.4845 60.9989 50.4845 60.6193 50.4845 60.2981C50.4845 59.9477 50.3682 59.7725 50.0485 59.7141C49.9613 59.6849 49.7869 59.6849 49.6416 59.6849C49.5544 59.6849 49.4963 59.6557 49.4963 59.5973C49.4963 59.5097 49.5544 59.4805 49.6998 59.4805C50.2229 59.4805 50.8914 59.5097 51.182 59.5097C51.5017 59.5097 52.0539 59.4805 52.3736 59.4805C52.5189 59.4805 52.5771 59.5097 52.5771 59.5973C52.5771 59.6557 52.5189 59.6849 52.4317 59.6849C52.3446 59.6849 52.2864 59.6849 52.1411 59.7141C51.8505 59.7725 51.7633 59.9477 51.7633 60.2981C51.7633 60.6193 51.7633 61.0281 51.7633 61.5245V62.6925H51.7923Z" fill="#E43C25"/>
<path d="M54.6674 58.575C54.6674 56.9982 54.6674 56.7062 54.6383 56.385C54.6093 56.0346 54.5221 55.8594 54.2024 55.801C54.1152 55.7718 53.9408 55.7718 53.7955 55.7718C53.6792 55.7718 53.6211 55.7426 53.6211 55.6842C53.6211 55.6258 53.6792 55.5966 53.8536 55.5966C54.4058 55.5966 55.0452 55.6258 55.2487 55.6258C55.5974 55.6258 56.3822 55.5966 56.7019 55.5966C57.3413 55.5966 58.0388 55.655 58.591 56.0346C58.8816 56.239 59.2885 56.7646 59.2885 57.4654C59.2885 58.2246 58.9688 58.9254 57.9225 59.7722C58.8526 60.9402 59.5501 61.8454 60.1604 62.4878C60.7417 63.101 61.1486 63.1594 61.323 63.1886C61.4392 63.2178 61.5264 63.2178 61.6136 63.2178C61.7008 63.2178 61.7299 63.247 61.7299 63.3054C61.7299 63.393 61.6717 63.4222 61.5264 63.4222H60.5383C59.957 63.4222 59.6954 63.3638 59.4338 63.2178C58.9979 62.9842 58.591 62.4878 58.0388 61.6994C57.6319 61.1446 57.1669 60.4146 57.0215 60.2686C56.9634 60.2102 56.9053 60.2102 56.8472 60.2102L55.9462 60.181C55.8881 60.181 55.859 60.2102 55.859 60.2686V60.4146C55.859 61.3782 55.859 62.1958 55.9171 62.6338C55.9462 62.9258 56.0043 63.1594 56.324 63.1886C56.4693 63.2178 56.7018 63.2178 56.8181 63.2178C56.9053 63.2178 56.9344 63.247 56.9344 63.3054C56.9344 63.3638 56.8762 63.4222 56.7309 63.4222C56.1206 63.4222 55.3649 63.393 55.2196 63.393C55.0162 63.393 54.3767 63.4222 53.9699 63.4222C53.8245 63.4222 53.7664 63.393 53.7664 63.3054C53.7664 63.247 53.7955 63.2178 53.9408 63.2178C54.0861 63.2178 54.2314 63.1886 54.3186 63.1886C54.5221 63.1594 54.5802 62.9258 54.6093 62.6338C54.6674 62.1958 54.6674 61.3782 54.6674 60.4438V58.575V58.575ZM55.8881 59.3926C55.8881 59.5094 55.9171 59.5386 55.9753 59.5678C56.1787 59.6262 56.4984 59.6846 56.76 59.6846C57.1669 59.6846 57.3122 59.6554 57.4866 59.5094C57.8063 59.2758 58.0969 58.8086 58.0969 57.9618C58.0969 56.5018 57.1378 56.0638 56.5275 56.0638C56.2659 56.0638 56.0915 56.0638 55.9753 56.093C55.9171 56.1222 55.8881 56.1514 55.8881 56.239V59.3926V59.3926Z" fill="#E43C25"/>
<path d="M62.837 60.6776C62.7789 60.6776 62.7789 60.7068 62.7498 60.7652L62.1976 62.2544C62.0813 62.5172 62.0523 62.7508 62.0523 62.8968C62.0523 63.072 62.1395 63.218 62.4592 63.218H62.6045C62.7207 63.218 62.7498 63.2472 62.7498 63.3056C62.7498 63.3932 62.6917 63.4224 62.5754 63.4224C62.2557 63.4224 61.7907 63.3932 61.471 63.3932C61.3547 63.3932 60.8025 63.4224 60.2503 63.4224C60.105 63.4224 60.0469 63.3932 60.0469 63.3056C60.0469 63.2472 60.0759 63.218 60.1631 63.218C60.2503 63.218 60.3956 63.218 60.4828 63.1888C60.9479 63.1304 61.1513 62.78 61.3547 62.2544L63.9414 55.772C64.0577 55.48 64.1158 55.3632 64.2321 55.3632C64.3192 55.3632 64.3774 55.4508 64.4936 55.6844C64.7261 56.2392 66.3828 60.4732 67.0512 62.05C67.4291 62.9844 67.7488 63.1304 67.9522 63.1888C68.0975 63.218 68.2719 63.218 68.3882 63.218C68.4754 63.218 68.5335 63.218 68.5335 63.3056C68.5335 63.3932 68.4463 63.4224 68.0685 63.4224C67.6906 63.4224 66.935 63.4224 66.1212 63.3932C65.9468 63.3932 65.8015 63.3932 65.8015 63.3056C65.8015 63.2472 65.8306 63.218 65.9468 63.218C66.0049 63.1888 66.0921 63.1012 66.034 62.9844L65.2202 60.7944C65.1912 60.736 65.1621 60.736 65.104 60.736H62.837V60.6776ZM64.9296 60.1812C64.9877 60.1812 64.9877 60.152 64.9877 60.1228L64.0577 57.5824C64.0577 57.5532 64.0286 57.4948 63.9995 57.4948C63.9705 57.4948 63.9414 57.5532 63.9414 57.5824L62.9823 60.1228C62.9823 60.152 62.9823 60.1812 63.0114 60.1812H64.9296Z" fill="#E43C25"/>
<path d="M70.2199 55.626C70.249 55.4508 70.3071 55.3632 70.3943 55.3632C70.4815 55.3632 70.5396 55.4216 70.6849 55.6844L73.5041 61.5244L76.2942 55.626C76.3814 55.4508 76.4396 55.3924 76.5267 55.3924C76.6139 55.3924 76.6721 55.5092 76.7011 55.7136L77.6312 62.1084C77.7184 62.7508 77.8346 63.072 78.1253 63.1596C78.4159 63.2472 78.6193 63.2764 78.7647 63.2764C78.8519 63.2764 78.939 63.2764 78.939 63.3348C78.939 63.4224 78.8228 63.4516 78.6775 63.4516C78.4159 63.4516 76.9918 63.4224 76.5849 63.3932C76.3524 63.364 76.2942 63.3348 76.2942 63.2764C76.2942 63.218 76.3233 63.1888 76.4105 63.1596C76.4686 63.1304 76.4977 63.0136 76.4686 62.7216L75.8583 58.1664H75.8292L73.5913 62.8676C73.3588 63.364 73.3007 63.4516 73.2135 63.4516C73.1263 63.4516 73.01 63.2472 72.8647 62.926C72.6322 62.4588 71.8184 60.882 71.6731 60.59C71.5859 60.3856 70.9756 59.0716 70.5977 58.2832H70.5687L70.0455 62.4004C70.0165 62.5756 70.0165 62.7216 70.0165 62.8968C70.0165 63.1012 70.1618 63.1888 70.3362 63.218C70.5106 63.2472 70.6559 63.2764 70.7721 63.2764C70.8593 63.2764 70.9175 63.3056 70.9175 63.3348C70.9175 63.4224 70.8303 63.4516 70.6849 63.4516C70.249 63.4516 69.784 63.4224 69.6096 63.4224C69.4061 63.4224 68.9121 63.4516 68.5924 63.4516C68.4761 63.4516 68.418 63.4224 68.418 63.3348C68.418 63.2764 68.4761 63.2764 68.5924 63.2764C68.6795 63.2764 68.7377 63.2764 68.9121 63.2472C69.2027 63.1888 69.2899 62.78 69.348 62.4296L70.2199 55.626Z" fill="#E43C25"/>
<path d="M82.7169 56.5897C82.6007 56.2101 82.4844 55.9473 82.3391 55.8597C82.2228 55.8013 82.0194 55.7721 81.9322 55.7721C81.8159 55.7721 81.7578 55.7721 81.7578 55.6845C81.7578 55.6261 81.845 55.5969 81.9903 55.5969C82.5135 55.5969 83.0948 55.6261 83.1819 55.6261C83.2691 55.6261 83.7342 55.5969 84.3154 55.5969C84.4607 55.5969 84.5189 55.6261 84.5189 55.6845C84.5189 55.7721 84.4317 55.7721 84.3445 55.7721C84.2573 55.7721 84.1701 55.7721 84.0829 55.8013C83.9957 55.8305 83.9667 55.9181 83.9667 56.0349C83.9667 56.1809 84.0829 56.5313 84.1992 56.9985C84.3736 57.6701 85.3327 60.8237 85.507 61.3785H85.5361L87.5415 56.0057C87.6578 55.7137 87.7159 55.6261 87.8031 55.6261C87.9193 55.6261 87.9775 55.7721 88.0937 56.1225L90.2444 61.3201H90.2735C90.4479 60.6193 91.2907 57.9037 91.6395 56.6773C91.6976 56.4437 91.7557 56.2101 91.7557 56.0641C91.7557 55.8889 91.6685 55.7429 91.2617 55.7429C91.1454 55.7429 91.0873 55.7137 91.0873 55.6553C91.0873 55.5969 91.1745 55.5677 91.3198 55.5677C91.872 55.5677 92.3079 55.5969 92.3951 55.5969C92.4533 55.5969 92.9183 55.5677 93.238 55.5677C93.3542 55.5677 93.4124 55.5969 93.4124 55.6553C93.4124 55.7137 93.3542 55.7721 93.2671 55.7721C93.1508 55.7721 93.0345 55.7721 92.9183 55.8305C92.6858 55.9181 92.5695 56.3269 92.337 56.9401C91.872 58.2541 90.7966 61.5245 90.2735 63.0721C90.1572 63.4225 90.0991 63.5685 89.9829 63.5685C89.8666 63.5685 89.8085 63.4517 89.6632 63.0721L87.5124 57.9037H87.4834C87.2799 58.4293 85.9139 62.0793 85.478 63.0429C85.2745 63.4809 85.2455 63.5977 85.1001 63.5977C84.9839 63.5977 84.9548 63.4809 84.8676 63.2181L82.7169 56.5897Z" fill="#E43C25"/>
<path d="M94.8041 58.5753C94.8041 56.9985 94.8041 56.7065 94.775 56.3853C94.746 56.0349 94.6588 55.8597 94.3391 55.8013C94.2519 55.7721 94.0775 55.7721 93.9322 55.7721C93.8159 55.7721 93.7578 55.7429 93.7578 55.6845C93.7578 55.6261 93.8159 55.5969 93.9903 55.5969C94.281 55.5969 94.5716 55.5969 94.8332 55.5969C95.0947 55.5969 95.3273 55.6261 95.4726 55.6261C95.7923 55.6261 97.8558 55.6261 98.0592 55.6261C98.2627 55.5969 98.408 55.5969 98.4952 55.5677C98.5533 55.5677 98.6115 55.5385 98.6696 55.5385C98.7277 55.5385 98.7277 55.5677 98.7277 55.6261C98.7277 55.6845 98.6696 55.8305 98.6405 56.2977C98.6405 56.4145 98.6115 56.8525 98.5824 56.9693C98.5824 57.0277 98.5533 57.0861 98.4661 57.0861C98.3789 57.0861 98.3789 57.0277 98.3789 56.9401C98.3789 56.8817 98.3789 56.7065 98.3208 56.5605C98.2627 56.3853 98.1464 56.2393 97.6233 56.1809C97.4489 56.1517 96.3735 56.1517 96.1701 56.1517C96.112 56.1517 96.112 56.1809 96.112 56.2685V58.8965C96.112 58.9549 96.112 59.0133 96.1701 59.0133C96.4026 59.0133 97.5652 59.0133 97.8267 58.9841C98.0592 58.9549 98.2336 58.9257 98.3208 58.8381C98.3789 58.7505 98.4371 58.6921 98.4952 58.6921C98.5243 58.6921 98.5533 58.7213 98.5533 58.7797C98.5533 58.8381 98.5243 59.0133 98.4661 59.5389C98.4661 59.7433 98.4371 60.1521 98.4371 60.2397C98.4371 60.3273 98.4371 60.4441 98.3499 60.4441C98.2918 60.4441 98.2627 60.4149 98.2627 60.3565C98.2627 60.2397 98.2627 60.1229 98.2336 59.9769C98.1755 59.7725 98.0302 59.6265 97.6524 59.5681C97.4489 59.5389 96.4317 59.5389 96.1992 59.5389C96.141 59.5389 96.141 59.5681 96.141 59.6557V60.4733C96.141 60.8237 96.141 61.7873 96.141 62.0793C96.1701 62.7801 96.3154 62.9553 97.3617 62.9553C97.6233 62.9553 98.0592 62.9553 98.3208 62.8385C98.5824 62.7217 98.6986 62.4881 98.7858 62.0793C98.8149 61.9625 98.8149 61.9333 98.9021 61.9333C98.9893 61.9333 98.9893 62.0209 98.9893 62.1085C98.9893 62.3421 98.9021 63.0429 98.844 63.2473C98.7858 63.5101 98.6696 63.5101 98.2918 63.5101C97.507 63.5101 96.9548 63.4809 96.5189 63.4809C96.0829 63.4517 95.7632 63.4517 95.4435 63.4517C95.3273 63.4517 95.0947 63.4517 94.8622 63.4517C94.6297 63.4517 94.3681 63.4809 94.1647 63.4809C94.0194 63.4809 93.9613 63.4517 93.9613 63.3641C93.9613 63.3057 93.9903 63.2765 94.1356 63.2765C94.281 63.2765 94.4263 63.2473 94.5135 63.2473C94.7169 63.2181 94.775 62.9845 94.8041 62.6925C94.8622 62.2545 94.8622 61.4369 94.8622 60.5025V58.5753H94.8041Z" fill="#E43C25"/>
<path d="M102.597 60.3857C102.597 61.6997 102.597 62.4297 102.801 62.6049C102.975 62.7509 103.237 62.8385 104.05 62.8385C104.603 62.8385 105.01 62.8385 105.242 62.5465C105.358 62.4005 105.475 62.1085 105.504 61.9333C105.504 61.8457 105.533 61.7873 105.62 61.7873C105.678 61.7873 105.707 61.8457 105.707 61.9625C105.707 62.0793 105.649 62.8385 105.562 63.1597C105.504 63.3933 105.446 63.4517 104.922 63.4517C104.196 63.4517 103.644 63.4225 103.179 63.4225C102.714 63.3933 102.336 63.3933 101.929 63.3933C101.813 63.3933 101.58 63.3933 101.348 63.3933C101.115 63.3933 100.853 63.4225 100.65 63.4225C100.505 63.4225 100.447 63.3933 100.447 63.3057C100.447 63.2473 100.476 63.2181 100.621 63.2181C100.766 63.2181 100.912 63.1889 100.999 63.1889C101.202 63.1597 101.26 62.9261 101.289 62.6341C101.348 62.1961 101.348 61.3785 101.348 60.4441V58.6337C101.348 57.0569 101.348 56.7649 101.318 56.4437C101.289 56.0933 101.202 55.9181 100.883 55.8597C100.795 55.8305 100.679 55.8305 100.534 55.8305C100.418 55.8305 100.359 55.8013 100.359 55.7429C100.359 55.6845 100.418 55.6553 100.592 55.6553C101.086 55.6553 101.725 55.6845 101.987 55.6845C102.219 55.6845 102.975 55.6553 103.382 55.6553C103.527 55.6553 103.585 55.6845 103.585 55.7429C103.585 55.8013 103.527 55.8305 103.411 55.8305C103.295 55.8305 103.12 55.8305 103.004 55.8597C102.714 55.9181 102.655 56.0933 102.626 56.4437C102.597 56.7649 102.597 57.0569 102.597 58.6337V60.3857Z" fill="#E43C25"/>
<path d="M108.816 60.3857C108.816 61.6997 108.816 62.4297 109.019 62.6049C109.194 62.7509 109.455 62.8385 110.269 62.8385C110.821 62.8385 111.228 62.8385 111.461 62.5465C111.577 62.4005 111.693 62.1085 111.722 61.9333C111.722 61.8457 111.751 61.7873 111.839 61.7873C111.897 61.7873 111.926 61.8457 111.926 61.9625C111.926 62.0793 111.868 62.8385 111.781 63.1597C111.722 63.3933 111.664 63.4517 111.141 63.4517C110.415 63.4517 109.862 63.4225 109.397 63.4225C108.932 63.3933 108.554 63.3933 108.148 63.3933C108.031 63.3933 107.799 63.3933 107.566 63.3933C107.334 63.3933 107.072 63.4225 106.869 63.4225C106.723 63.4225 106.665 63.3933 106.665 63.3057C106.665 63.2473 106.694 63.2181 106.84 63.2181C106.985 63.2181 107.13 63.1889 107.218 63.1889C107.421 63.1597 107.479 62.9261 107.508 62.6341C107.566 62.1961 107.566 61.3785 107.566 60.4441V58.6337C107.566 57.0569 107.566 56.7649 107.537 56.4437C107.508 56.0933 107.421 55.9181 107.101 55.8597C107.014 55.8305 106.898 55.8305 106.753 55.8305C106.636 55.8305 106.578 55.8013 106.578 55.7429C106.578 55.6845 106.636 55.6553 106.811 55.6553C107.305 55.6553 107.944 55.6845 108.206 55.6845C108.438 55.6845 109.194 55.6553 109.601 55.6553C109.746 55.6553 109.804 55.6845 109.804 55.7429C109.804 55.8013 109.746 55.8305 109.63 55.8305C109.514 55.8305 109.339 55.8305 109.223 55.8597C108.932 55.9181 108.874 56.0933 108.845 56.4437C108.816 56.7649 108.816 57.0569 108.816 58.6337V60.3857Z" fill="#E43C25"/>
<path d="M114.337 61.9916C114.366 62.8092 114.482 63.072 114.686 63.1304C114.86 63.1888 115.064 63.1888 115.209 63.1888C115.325 63.1888 115.383 63.218 115.383 63.2764C115.383 63.364 115.296 63.3932 115.151 63.3932C114.482 63.3932 114.076 63.364 113.872 63.364C113.785 63.364 113.291 63.3932 112.768 63.3932C112.622 63.3932 112.535 63.3932 112.535 63.2764C112.535 63.218 112.593 63.1888 112.71 63.1888C112.855 63.1888 113.029 63.1888 113.175 63.1304C113.436 63.0428 113.494 62.7508 113.494 61.8456L113.581 55.7136C113.581 55.5092 113.611 55.3632 113.727 55.3632C113.843 55.3632 113.93 55.5092 114.105 55.6844C114.221 55.8304 115.79 57.4948 117.302 59.0132C117.999 59.714 119.394 61.2032 119.569 61.3784H119.627L119.51 56.7356C119.51 56.0932 119.394 55.918 119.162 55.8012C119.016 55.7428 118.755 55.7428 118.609 55.7428C118.493 55.7428 118.435 55.7136 118.435 55.6552C118.435 55.5676 118.551 55.5676 118.697 55.5676C119.22 55.5676 119.714 55.5968 119.946 55.5968C120.063 55.5968 120.44 55.5676 120.964 55.5676C121.109 55.5676 121.196 55.5676 121.196 55.6552C121.196 55.7136 121.138 55.7428 121.022 55.7428C120.906 55.7428 120.847 55.7428 120.702 55.772C120.411 55.8596 120.324 56.064 120.324 56.648L120.208 63.1596C120.208 63.3932 120.179 63.4808 120.063 63.4808C119.946 63.4808 119.83 63.364 119.714 63.2472C119.074 62.634 117.738 61.2616 116.691 60.2104C115.558 59.1008 114.424 57.816 114.25 57.6116H114.221L114.337 61.9916Z" fill="#E43C25"/>
<path d="M123.492 58.5753C123.492 56.9985 123.492 56.7065 123.463 56.3853C123.433 56.0349 123.346 55.8597 123.027 55.8013C122.939 55.7721 122.765 55.7721 122.62 55.7721C122.503 55.7721 122.445 55.7429 122.445 55.6845C122.445 55.6261 122.503 55.5969 122.678 55.5969C122.968 55.5969 123.259 55.5969 123.521 55.5969C123.782 55.5969 124.015 55.6261 124.16 55.6261C124.48 55.6261 126.543 55.6261 126.747 55.6261C126.95 55.5969 127.096 55.5969 127.183 55.5677C127.241 55.5677 127.299 55.5385 127.357 55.5385C127.415 55.5385 127.415 55.5677 127.415 55.6261C127.415 55.6845 127.357 55.8305 127.328 56.2977C127.328 56.4145 127.299 56.8525 127.27 56.9693C127.27 57.0277 127.241 57.0861 127.154 57.0861C127.066 57.0861 127.066 57.0277 127.066 56.9401C127.066 56.8817 127.066 56.7065 127.008 56.5605C126.95 56.3853 126.834 56.2393 126.311 56.1809C126.136 56.1517 125.061 56.1517 124.858 56.1517C124.799 56.1517 124.799 56.1809 124.799 56.2685V58.8965C124.799 58.9549 124.799 59.0133 124.858 59.0133C125.09 59.0133 126.253 59.0133 126.514 58.9841C126.747 58.9549 126.921 58.9257 127.008 58.8381C127.066 58.7505 127.125 58.6921 127.183 58.6921C127.212 58.6921 127.241 58.7213 127.241 58.7797C127.241 58.8381 127.212 59.0133 127.154 59.5389C127.154 59.7433 127.125 60.1521 127.125 60.2397C127.125 60.3273 127.125 60.4441 127.037 60.4441C126.979 60.4441 126.95 60.4149 126.95 60.3565C126.95 60.2397 126.95 60.1229 126.921 59.9769C126.863 59.7725 126.718 59.6265 126.34 59.5681C126.136 59.5389 125.119 59.5389 124.887 59.5389C124.829 59.5389 124.829 59.5681 124.829 59.6557V60.4733C124.829 60.8237 124.829 61.7873 124.829 62.0793C124.858 62.7801 125.003 62.9553 126.049 62.9553C126.311 62.9553 126.747 62.9553 127.008 62.8385C127.27 62.7217 127.386 62.4881 127.473 62.0793C127.502 61.9625 127.502 61.9333 127.59 61.9333C127.677 61.9333 127.677 62.0209 127.677 62.1085C127.677 62.3421 127.59 63.0429 127.531 63.2473C127.473 63.5101 127.357 63.5101 126.979 63.5101C126.195 63.5101 125.642 63.4809 125.206 63.4809C124.77 63.4517 124.451 63.4517 124.131 63.4517C124.015 63.4517 123.782 63.4517 123.55 63.4517C123.317 63.4517 123.056 63.4809 122.852 63.4809C122.707 63.4809 122.649 63.4517 122.649 63.3641C122.649 63.3057 122.678 63.2765 122.823 63.2765C122.968 63.2765 123.114 63.2473 123.201 63.2473C123.404 63.2181 123.463 62.9845 123.492 62.6925C123.55 62.2545 123.55 61.4369 123.55 60.5025V58.5753H123.492Z" fill="#E43C25"/>
<path d="M129.422 63.2767C129.248 63.2183 129.219 63.1599 129.219 62.9263C129.219 62.3715 129.248 61.7291 129.277 61.5831C129.277 61.4371 129.306 61.3203 129.393 61.3203C129.48 61.3203 129.509 61.4079 129.509 61.4955C129.509 61.6415 129.538 61.8459 129.597 62.0211C129.829 62.7803 130.439 63.0723 131.079 63.0723C132.009 63.0723 132.445 62.4299 132.445 61.9043C132.445 61.4079 132.3 60.9115 131.428 60.2399L130.963 59.8603C129.829 58.9843 129.451 58.2543 129.451 57.4075C129.451 56.2687 130.41 55.4511 131.834 55.4511C132.503 55.4511 132.939 55.5679 133.2 55.6263C133.288 55.6555 133.346 55.6847 133.346 55.7431C133.346 55.8891 133.317 56.1811 133.317 56.9695C133.317 57.2031 133.288 57.2907 133.2 57.2907C133.142 57.2907 133.084 57.2323 133.084 57.1155C133.084 57.0279 133.026 56.7067 132.823 56.4439C132.677 56.2395 132.358 55.9475 131.689 55.9475C130.934 55.9475 130.468 56.3855 130.468 56.9987C130.468 57.4659 130.701 57.8455 131.573 58.4879L131.864 58.6923C133.113 59.6267 133.549 60.3567 133.549 61.3203C133.549 61.9335 133.317 62.6343 132.59 63.1307C132.067 63.4519 131.486 63.5687 130.963 63.5687C130.323 63.5395 129.858 63.4519 129.422 63.2767Z" fill="#E43C25"/>
<path d="M135.407 63.2767C135.232 63.2183 135.203 63.1599 135.203 62.9263C135.203 62.3715 135.232 61.7291 135.261 61.5831C135.261 61.4371 135.29 61.3203 135.378 61.3203C135.465 61.3203 135.494 61.4079 135.494 61.4955C135.494 61.6415 135.523 61.8459 135.581 62.0211C135.813 62.7803 136.424 63.0723 137.063 63.0723C137.993 63.0723 138.429 62.4299 138.429 61.9043C138.429 61.4079 138.284 60.9115 137.412 60.2399L136.947 59.8603C135.813 58.9843 135.436 58.2543 135.436 57.4075C135.436 56.2687 136.395 55.4511 137.819 55.4511C138.487 55.4511 138.923 55.5679 139.185 55.6263C139.272 55.6555 139.33 55.6847 139.33 55.7431C139.33 55.8891 139.301 56.1811 139.301 56.9695C139.301 57.2031 139.272 57.2907 139.185 57.2907C139.127 57.2907 139.069 57.2323 139.069 57.1155C139.069 57.0279 139.01 56.7067 138.807 56.4439C138.662 56.2395 138.342 55.9475 137.674 55.9475C136.918 55.9475 136.453 56.3855 136.453 56.9987C136.453 57.4659 136.685 57.8455 137.557 58.4879L137.848 58.6923C139.098 59.6267 139.534 60.3567 139.534 61.3203C139.534 61.9335 139.301 62.6343 138.575 63.1307C138.051 63.4519 137.47 63.5687 136.947 63.5687C136.308 63.5395 135.843 63.4519 135.407 63.2767Z" fill="#E43C25"/>
<path d="M21.9404 69.4961H21.9695C22.231 69.2041 23.3936 68.0069 23.6261 67.7441C23.8586 67.4813 24.033 67.2769 24.033 67.1309C24.033 67.0433 24.0039 66.9849 23.9167 66.9849C23.8586 66.9557 23.8005 66.9557 23.8005 66.8973C23.8005 66.8389 23.8295 66.8389 23.9167 66.8389C24.0911 66.8389 24.5271 66.8681 24.7305 66.8681C24.963 66.8681 25.428 66.8389 25.6606 66.8389C25.7477 66.8389 25.8059 66.8681 25.8059 66.8973C25.8059 66.9265 25.7768 66.9557 25.6896 66.9557C25.5734 66.9557 25.3699 66.9849 25.2246 67.0433C24.9921 67.1309 24.7014 67.3061 24.3527 67.6565C24.1202 67.8901 22.8995 69.0873 22.6379 69.3793C22.9286 69.7589 24.498 71.4525 24.7886 71.7445C25.1374 72.0657 25.4862 72.4453 25.9221 72.6205C26.1546 72.7081 26.329 72.7373 26.4162 72.7373C26.4743 72.7373 26.5325 72.7665 26.5325 72.7957C26.5325 72.8541 26.5034 72.8833 26.329 72.8833H25.6315C25.399 72.8833 25.2537 72.8833 25.0793 72.8541C24.6433 72.8249 24.4399 72.6497 24.0911 72.3285C23.7423 72.0073 22.1729 70.1677 21.9985 69.9341L21.9113 69.8173H21.8823V70.5473C21.8823 71.2773 21.8823 71.9197 21.9113 72.2701C21.9404 72.5037 21.9985 72.6789 22.202 72.7081C22.3182 72.7373 22.4926 72.7373 22.5798 72.7373C22.6379 72.7373 22.696 72.7665 22.696 72.7957C22.696 72.8541 22.6379 72.8833 22.5507 72.8833C22.1148 72.8833 21.5916 72.8541 21.4172 72.8541C21.2429 72.8541 20.7197 72.8833 20.4291 72.8833C20.3128 72.8833 20.2838 72.8541 20.2838 72.7957C20.2838 72.7665 20.3128 72.7373 20.4 72.7373C20.5163 72.7373 20.6035 72.7081 20.6906 72.7081C20.836 72.6789 20.8941 72.5037 20.9232 72.2701C20.9522 71.9197 20.9522 71.3065 20.9522 70.5765V69.1749C20.9522 67.9485 20.9522 67.7441 20.9232 67.4813C20.8941 67.2185 20.836 67.0725 20.5744 67.0141C20.5163 66.9849 20.3709 66.9849 20.2547 66.9849C20.1675 66.9849 20.1094 66.9557 20.1094 66.9265C20.1094 66.8973 20.1675 66.8681 20.2838 66.8681C20.7197 66.8681 21.2138 66.8973 21.3882 66.8973C21.5916 66.8973 22.0857 66.8681 22.3473 66.8681C22.4635 66.8681 22.5217 66.8973 22.5217 66.9265C22.5217 66.9557 22.4635 66.9849 22.4054 66.9849C22.3182 66.9849 22.2892 66.9849 22.1729 67.0141C21.9695 67.0433 21.8823 67.1893 21.8823 67.4813C21.8532 67.7441 21.8532 67.9485 21.8532 69.1749V69.4961H21.9404Z" fill="#376A34"/>
<path d="M28.3624 69.1457C28.3624 67.9193 28.3624 67.7149 28.3333 67.4521C28.3043 67.1893 28.2461 67.0433 27.9846 66.9849C27.9264 66.9557 27.7811 66.9557 27.6648 66.9557C27.5777 66.9557 27.5195 66.9265 27.5195 66.8973C27.5195 66.8681 27.5777 66.8389 27.6939 66.8389C27.8974 66.8389 28.1299 66.8389 28.3333 66.8389C28.5368 66.8389 28.7111 66.8681 28.8274 66.8681C29.089 66.8681 30.6584 66.8681 30.8037 66.8681C30.9491 66.8389 31.0944 66.8389 31.1525 66.8097C31.1816 66.8097 31.2397 66.7805 31.2688 66.7805C31.2978 66.7805 31.3269 66.8097 31.3269 66.8389C31.3269 66.8973 31.2978 66.9849 31.2688 67.3645C31.2688 67.4521 31.2397 67.8025 31.2397 67.8901C31.2397 67.9193 31.2106 67.9777 31.1525 67.9777C31.0944 67.9777 31.0944 67.9485 31.0944 67.8609C31.0944 67.8025 31.0944 67.6565 31.0362 67.5689C30.9781 67.4229 30.8909 67.3353 30.5131 67.2769C30.3678 67.2477 29.554 67.2477 29.3796 67.2477C29.3505 67.2477 29.3215 67.2769 29.3215 67.3353V69.3501C29.3215 69.4085 29.3215 69.4377 29.3796 69.4377C29.554 69.4377 30.484 69.4377 30.6584 69.4085C30.8619 69.3793 30.9781 69.3793 31.0362 69.2917C31.0944 69.2333 31.1234 69.1749 31.1525 69.1749C31.1816 69.1749 31.2106 69.2041 31.2106 69.2333C31.2106 69.2625 31.1816 69.4085 31.1525 69.8173C31.1525 69.9633 31.1234 70.2845 31.1234 70.3429C31.1234 70.4013 31.1234 70.4889 31.0653 70.4889C31.0072 70.4889 31.0072 70.4597 31.0072 70.4305C31.0072 70.3429 31.0072 70.2553 30.9781 70.1385C30.9491 69.9925 30.8328 69.8465 30.5422 69.8173C30.3968 69.7881 29.6121 69.7881 29.4087 69.7881C29.3796 69.7881 29.3505 69.8173 29.3505 69.8757V70.5181C29.3505 70.7809 29.3505 71.5109 29.3505 71.7445C29.3796 72.2993 29.4959 72.4161 30.3097 72.4161C30.5131 72.4161 30.8619 72.4161 31.0653 72.3285C31.2688 72.2409 31.3559 72.0657 31.4141 71.7445C31.4431 71.6569 31.4431 71.6277 31.5013 71.6277C31.5594 71.6277 31.5594 71.6861 31.5594 71.7737C31.5594 71.9489 31.5013 72.5037 31.4431 72.6497C31.385 72.8541 31.3269 72.8541 31.0072 72.8541C30.3968 72.8541 29.9609 72.8249 29.6412 72.8249C29.2924 72.7957 29.0599 72.7957 28.8274 72.7957C28.7402 72.7957 28.5658 72.7957 28.3624 72.7957C28.188 72.7957 27.9846 72.8249 27.8102 72.8249C27.6939 72.8249 27.6648 72.7957 27.6648 72.7373C27.6648 72.7081 27.6939 72.6789 27.7811 72.6789C27.8974 72.6789 27.9846 72.6497 28.0717 72.6497C28.2171 72.6205 28.2752 72.4453 28.3043 72.2117C28.3333 71.8613 28.3333 71.2481 28.3333 70.5181V69.1457H28.3624Z" fill="#376A34"/>
<path d="M34.671 69.1457C34.671 67.9193 34.671 67.7149 34.6419 67.4521C34.6128 67.1893 34.5547 67.0433 34.2931 66.9849C34.235 66.9557 34.0897 66.9557 33.9734 66.9557C33.8863 66.9557 33.8281 66.9265 33.8281 66.8973C33.8281 66.8681 33.8863 66.8389 34.0025 66.8389C34.4385 66.8389 34.9325 66.8681 35.1069 66.8681C35.3685 66.8681 35.9788 66.8389 36.2404 66.8389C36.7345 66.8389 37.2867 66.8973 37.6936 67.1893C37.9261 67.3353 38.2458 67.7441 38.2458 68.2989C38.2458 68.8829 38.0133 69.4377 37.1995 70.0801C37.897 70.9853 38.4493 71.6861 38.9143 72.1825C39.3502 72.6497 39.699 72.7081 39.8153 72.7373C39.9024 72.7665 39.9606 72.7665 40.0478 72.7665C40.1059 72.7665 40.135 72.7957 40.135 72.8249C40.135 72.8833 40.0768 72.9125 39.9896 72.9125H39.234C38.798 72.9125 38.5946 72.8833 38.3911 72.7665C38.0424 72.5913 37.7517 72.2117 37.2867 71.5985C36.967 71.1605 36.5892 70.6057 36.502 70.4889C36.4729 70.4305 36.4148 70.4305 36.3567 70.4305L35.6591 70.4013C35.6301 70.4013 35.601 70.4305 35.601 70.4597V70.5765C35.601 71.3065 35.601 71.9489 35.6301 72.2993C35.6591 72.5329 35.6882 72.7081 35.9498 72.7373C36.066 72.7665 36.2404 72.7665 36.3276 72.7665C36.3857 72.7665 36.4148 72.7957 36.4148 72.8249C36.4148 72.8833 36.3567 72.9125 36.2695 72.9125C35.8045 72.9125 35.2232 72.8833 35.1069 72.8833C34.9616 72.8833 34.4675 72.9125 34.1478 72.9125C34.0316 72.9125 34.0025 72.8833 34.0025 72.8249C34.0025 72.7957 34.0316 72.7665 34.1188 72.7665C34.235 72.7665 34.3222 72.7373 34.4094 72.7373C34.5547 72.7081 34.6128 72.5329 34.6419 72.2993C34.671 71.9489 34.671 71.3357 34.671 70.6057V69.1457V69.1457ZM35.601 69.7881C35.601 69.8757 35.6301 69.9049 35.6591 69.9341C35.8335 69.9925 36.066 70.0217 36.2695 70.0217C36.5892 70.0217 36.7054 69.9925 36.8217 69.8757C37.0542 69.7005 37.2867 69.3209 37.2867 68.6785C37.2867 67.5397 36.5311 67.2185 36.066 67.2185C35.8626 67.2185 35.7173 67.2185 35.6301 67.2477C35.5719 67.2769 35.5719 67.3061 35.5719 67.3645V69.7881H35.601Z" fill="#376A34"/>
<path d="M42.2545 70.8101C42.2254 70.8101 42.1963 70.8393 42.1963 70.8685L41.7604 72.0073C41.6732 72.2117 41.6441 72.3869 41.6441 72.5037C41.6441 72.6497 41.7023 72.7373 41.9638 72.7373H42.0801C42.1673 72.7373 42.1963 72.7665 42.1963 72.7957C42.1963 72.8541 42.1382 72.8833 42.051 72.8833C41.7894 72.8833 41.4407 72.8541 41.2082 72.8541C41.121 72.8541 40.685 72.8833 40.2781 72.8833C40.1619 72.8833 40.1328 72.8541 40.1328 72.7957C40.1328 72.7373 40.1619 72.7373 40.22 72.7373C40.2781 72.7373 40.3944 72.7373 40.4525 72.7081C40.8303 72.6497 40.9757 72.3869 41.121 71.9781L43.1264 66.9557C43.2136 66.7221 43.2717 66.6345 43.3589 66.6345C43.417 66.6345 43.4751 66.6929 43.5623 66.8973C43.7658 67.3353 45.0155 70.6057 45.5387 71.8029C45.8293 72.5329 46.0618 72.6205 46.2362 72.6789C46.3525 72.7081 46.4687 72.7081 46.5559 72.7081C46.614 72.7081 46.6722 72.7081 46.6722 72.7665C46.6722 72.8249 46.614 72.8541 46.2943 72.8541C46.0037 72.8541 45.4224 72.8541 44.783 72.8249C44.6377 72.8249 44.5505 72.8249 44.5505 72.7665C44.5505 72.7081 44.5796 72.7081 44.6668 72.7081C44.7249 72.6789 44.783 72.6205 44.7249 72.5329L44.0855 70.8393C44.0564 70.8101 44.0564 70.7809 43.9983 70.7809H42.2545V70.8101ZM43.882 70.4013C43.9111 70.4013 43.9402 70.3721 43.9111 70.3429L43.1845 68.3573C43.1845 68.3281 43.1554 68.2989 43.1554 68.2989C43.1554 68.2989 43.1264 68.3281 43.0973 68.3573L42.3707 70.3137C42.3707 70.3429 42.3707 70.3721 42.3998 70.3721H43.882V70.4013Z" fill="#376A34"/>
<path d="M49.7534 70.5763C49.7534 71.5983 49.7534 72.1531 49.9277 72.2991C50.0731 72.4159 50.2765 72.4743 50.8868 72.4743C51.3228 72.4743 51.6134 72.4743 51.8169 72.2407C51.9041 72.1239 52.0203 71.9195 52.0203 71.7735C52.0203 71.7151 52.0494 71.6567 52.1075 71.6567C52.1656 71.6567 52.1656 71.6859 52.1656 71.8027C52.1656 71.8903 52.1075 72.5035 52.0494 72.7079C51.9913 72.8831 51.9622 72.9123 51.5553 72.9123C50.974 72.9123 50.5671 72.8831 50.2184 72.8831C49.8696 72.8539 49.579 72.8539 49.2593 72.8539C49.1721 72.8539 48.9977 72.8539 48.7942 72.8539C48.6199 72.8539 48.4164 72.8831 48.242 72.8831C48.1258 72.8831 48.0967 72.8539 48.0967 72.7955C48.0967 72.7663 48.1258 72.7371 48.213 72.7371C48.3292 72.7371 48.4164 72.7079 48.5036 72.7079C48.6489 72.6787 48.7071 72.5035 48.7361 72.2699C48.7652 71.9195 48.7652 71.3063 48.7652 70.5763V69.1747C48.7652 67.9483 48.7652 67.7439 48.7361 67.4811C48.7071 67.2183 48.6489 67.0723 48.3874 67.0139C48.3292 66.9847 48.242 66.9847 48.1258 66.9847C48.0386 66.9847 47.9805 66.9555 47.9805 66.9263C47.9805 66.8971 48.0386 66.8679 48.1548 66.8679C48.5327 66.8679 49.0268 66.8971 49.2593 66.8971C49.4627 66.8971 50.044 66.8679 50.3346 66.8679C50.4509 66.8679 50.509 66.8971 50.509 66.9263C50.509 66.9555 50.4509 66.9847 50.3637 66.9847C50.2765 66.9847 50.1602 66.9847 50.044 67.0139C49.8405 67.0431 49.7534 67.1891 49.7534 67.4811C49.7243 67.7439 49.7243 67.9483 49.7243 69.1747V70.5763H49.7534Z" fill="#376A34"/>
<path d="M55.3326 70.8101C55.3035 70.8101 55.2745 70.8393 55.2745 70.8685L54.8385 72.0073C54.7513 72.2117 54.7223 72.3869 54.7223 72.5037C54.7223 72.6497 54.7804 72.7373 55.0419 72.7373H55.1582C55.2454 72.7373 55.2745 72.7665 55.2745 72.7957C55.2745 72.8541 55.2163 72.8833 55.1291 72.8833C54.8676 72.8833 54.5188 72.8541 54.2863 72.8541C54.1991 72.8541 53.7631 72.8833 53.3563 72.8833C53.24 72.8833 53.2109 72.8541 53.2109 72.7957C53.2109 72.7373 53.24 72.7373 53.2981 72.7373C53.3563 72.7373 53.4725 72.7373 53.5306 72.7081C53.9085 72.6497 54.0538 72.3869 54.1991 71.9781L56.2045 66.9557C56.2917 66.7221 56.3498 66.6345 56.437 66.6345C56.4951 66.6345 56.5533 66.6929 56.6405 66.8973C56.8439 67.3353 58.0936 70.6057 58.6168 71.8029C58.9074 72.5329 59.1399 72.6205 59.3143 72.6789C59.4306 72.7081 59.5468 72.7081 59.634 72.7081C59.6921 72.7081 59.7503 72.7081 59.7503 72.7665C59.7503 72.8249 59.6921 72.8541 59.3724 72.8541C59.0818 72.8541 58.5005 72.8541 57.8611 72.8249C57.7158 72.8249 57.6286 72.8249 57.6286 72.7665C57.6286 72.7081 57.6577 72.7081 57.7449 72.7081C57.803 72.6789 57.8611 72.6205 57.803 72.5329L57.1636 70.8393C57.1345 70.8101 57.1345 70.7809 57.0764 70.7809H55.3326V70.8101ZM56.9602 70.4013C56.9892 70.4013 57.0183 70.3721 56.9892 70.3429L56.2626 68.3573C56.2626 68.3281 56.2336 68.2989 56.2336 68.2989C56.2336 68.2989 56.2045 68.3281 56.1754 68.3573L55.4488 70.3137C55.4488 70.3429 55.4488 70.3721 55.4779 70.3721H56.9602V70.4013Z" fill="#376A34"/>
<path d="M65.8287 70.8101C65.7996 70.8101 65.7706 70.8393 65.7706 70.8685L65.3346 72.0073C65.2474 72.2117 65.2183 72.3869 65.2183 72.5037C65.2183 72.6497 65.2765 72.7373 65.538 72.7373H65.6543C65.7415 72.7373 65.7706 72.7665 65.7706 72.7957C65.7706 72.8541 65.7124 72.8833 65.6252 72.8833C65.3637 72.8833 65.0149 72.8541 64.7824 72.8541C64.6952 72.8541 64.2592 72.8833 63.8523 72.8833C63.7361 72.8833 63.707 72.8541 63.707 72.7957C63.707 72.7373 63.7361 72.7373 63.7942 72.7373C63.8524 72.7373 63.9686 72.7373 64.0267 72.7081C64.4046 72.6497 64.5499 72.3869 64.6952 71.9781L66.7006 66.9557C66.7878 66.7221 66.8459 66.6345 66.9331 66.6345C66.9912 66.6345 67.0494 66.6929 67.1366 66.8973C67.34 67.3353 68.5897 70.6057 69.1129 71.8029C69.4035 72.5329 69.636 72.6205 69.8104 72.6789C69.9267 72.7081 70.0429 72.7081 70.1301 72.7081C70.1882 72.7081 70.2464 72.7081 70.2464 72.7665C70.2464 72.8249 70.1882 72.8541 69.8685 72.8541C69.5779 72.8541 68.9966 72.8541 68.3572 72.8249C68.2119 72.8249 68.1247 72.8249 68.1247 72.7665C68.1247 72.7081 68.1538 72.7081 68.241 72.7081C68.2991 72.6789 68.3572 72.6205 68.2991 72.5329L67.6597 70.8393C67.6306 70.8101 67.6306 70.7809 67.5725 70.7809H65.8287V70.8101ZM67.4563 70.4013C67.4853 70.4013 67.5144 70.3721 67.4853 70.3429L66.7587 68.3573C66.7587 68.3281 66.7297 68.2989 66.7297 68.2989C66.7297 68.2989 66.7006 68.3281 66.6715 68.3573L65.9449 70.3137C65.9449 70.3429 65.9449 70.3721 65.974 70.3721H67.4563V70.4013Z" fill="#376A34"/>
<path d="M72.9482 70.8101C72.9482 70.3721 72.861 70.1969 72.7739 69.9633C72.7157 69.8465 71.6404 68.0653 71.3788 67.6565C71.1753 67.3645 70.9719 67.1601 70.8266 67.0725C70.7103 67.0141 70.5941 66.9557 70.5069 66.9557C70.4488 66.9557 70.3906 66.9265 70.3906 66.8973C70.3906 66.8389 70.4488 66.8389 70.5359 66.8389C70.6813 66.8389 71.2625 66.8681 71.5241 66.8681C71.6985 66.8681 72.0182 66.8389 72.367 66.8389C72.4542 66.8389 72.4832 66.8681 72.4832 66.8973C72.4832 66.9265 72.4251 66.9557 72.3088 66.9849C72.2507 67.0141 72.1926 67.0725 72.1926 67.1309C72.1926 67.1893 72.2216 67.2769 72.2798 67.3937C72.396 67.6273 73.5004 69.5545 73.6458 69.7881C73.733 69.5837 74.7211 67.8317 74.8374 67.5981C74.9246 67.4229 74.9536 67.2769 74.9536 67.1893C74.9536 67.1017 74.9246 67.0141 74.7792 66.9849C74.7211 66.9557 74.6339 66.9557 74.6339 66.8973C74.6339 66.8389 74.663 66.8389 74.7792 66.8389C75.0408 66.8389 75.3024 66.8681 75.5349 66.8681C75.7093 66.8681 76.2324 66.8389 76.3778 66.8389C76.4649 66.8389 76.5231 66.8681 76.5231 66.8973C76.5231 66.9557 76.4649 66.9849 76.3778 66.9849C76.2906 66.9849 76.1452 67.0141 76.029 67.0725C75.8546 67.1601 75.7674 67.2477 75.593 67.4521C75.3315 67.7733 74.227 69.6421 74.0817 69.9925C73.9655 70.2845 73.9655 70.5181 73.9655 70.7809V71.4233C73.9655 71.5401 73.9655 71.8905 73.9945 72.2117C74.0236 72.4453 74.0817 72.6205 74.3142 72.6497C74.4305 72.6789 74.6049 72.6789 74.7211 72.6789C74.8083 72.6789 74.8374 72.7081 74.8374 72.7373C74.8374 72.7957 74.7792 72.8249 74.663 72.8249C74.1689 72.8249 73.6748 72.7957 73.4423 72.7957C73.2389 72.7957 72.7448 72.8249 72.4542 72.8249C72.3379 72.8249 72.2798 72.7957 72.2798 72.7373C72.2798 72.7081 72.3088 72.6789 72.396 72.6789C72.5123 72.6789 72.5995 72.6497 72.6867 72.6497C72.832 72.6205 72.9192 72.4453 72.9192 72.2117C72.9482 71.8613 72.9482 71.5401 72.9482 71.4233V70.8101V70.8101Z" fill="#376A34"/>
<path d="M78.3233 69.1457C78.3233 67.9193 78.3233 67.7149 78.2942 67.4521C78.2652 67.1893 78.2071 67.0433 77.9455 66.9849C77.8874 66.9557 77.742 66.9557 77.6258 66.9557C77.5386 66.9557 77.4805 66.9265 77.4805 66.8973C77.4805 66.8681 77.5386 66.8389 77.6549 66.8389C78.0908 66.8389 78.5849 66.8681 78.8174 66.8681C79.0208 66.8681 79.5149 66.8389 79.8056 66.8389C79.9218 66.8389 79.98 66.8681 79.98 66.8973C79.98 66.9265 79.9218 66.9557 79.8637 66.9557C79.7765 66.9557 79.7184 66.9557 79.6312 66.9849C79.4277 67.0141 79.3405 67.1601 79.3405 67.4521C79.3115 67.7149 79.3115 67.9193 79.3115 69.1457V70.2553C79.3115 71.4233 79.544 71.8905 79.9218 72.2117C80.2706 72.5037 80.6484 72.5329 80.91 72.5329C81.2588 72.5329 81.6947 72.4161 82.0144 72.0949C82.4504 71.6569 82.4794 70.9269 82.4794 70.1093V69.1165C82.4794 67.8901 82.4794 67.6857 82.4504 67.4229C82.4213 67.1601 82.3632 67.0141 82.1016 66.9557C82.0435 66.9265 81.8982 66.9265 81.811 66.9265C81.7238 66.9265 81.6656 66.8973 81.6656 66.8681C81.6656 66.8389 81.7238 66.8097 81.84 66.8097C82.2469 66.8097 82.741 66.8389 82.741 66.8389C82.8282 66.8389 83.3513 66.8097 83.642 66.8097C83.7582 66.8097 83.8164 66.8389 83.8164 66.8681C83.8164 66.8973 83.7582 66.9265 83.671 66.9265C83.5838 66.9265 83.5257 66.9265 83.4385 66.9557C83.2351 66.9849 83.1479 67.1309 83.1479 67.4229C83.1188 67.6857 83.1188 67.8901 83.1188 69.1165V69.9633C83.1188 70.8393 83.0316 71.8029 82.3632 72.3577C81.811 72.8541 81.2297 72.9417 80.7065 72.9417C80.2706 72.9417 79.5149 72.9125 78.9337 72.3869C78.5268 72.0073 78.2361 71.4233 78.2361 70.2553V69.1457H78.3233Z" fill="#376A34"/>
<path d="M86.7257 69.1457C86.7257 67.9193 86.7257 67.7149 86.6966 67.4521C86.6675 67.1893 86.6094 67.0433 86.3478 66.9849C86.2897 66.9557 86.1444 66.9557 86.0281 66.9557C85.9409 66.9557 85.8828 66.9265 85.8828 66.8973C85.8828 66.8681 85.9409 66.8389 86.0572 66.8389C86.4932 66.8389 86.9872 66.8681 87.1616 66.8681C87.4232 66.8681 88.0335 66.8389 88.2951 66.8389C88.7892 66.8389 89.3414 66.8973 89.7483 67.1893C89.9808 67.3353 90.3005 67.7441 90.3005 68.2989C90.3005 68.8829 90.068 69.4377 89.2542 70.0801C89.9517 70.9853 90.5039 71.6861 90.969 72.1825C91.4049 72.6497 91.7537 72.7081 91.8699 72.7373C91.9571 72.7665 92.0153 72.7665 92.1024 72.7665C92.1896 72.7665 92.1896 72.7957 92.1896 72.8249C92.1896 72.8833 92.1315 72.9125 92.0443 72.9125H91.2887C90.8527 72.9125 90.6493 72.8833 90.4458 72.7665C90.0971 72.5913 89.8064 72.2117 89.3414 71.5985C89.0217 71.1605 88.6439 70.6057 88.5567 70.4889C88.5276 70.4305 88.4695 70.4305 88.4114 70.4305L87.7138 70.4013C87.6848 70.4013 87.6557 70.4305 87.6557 70.4597V70.5765C87.6557 71.3065 87.6557 71.9489 87.6848 72.2993C87.7138 72.5329 87.7429 72.7081 88.0045 72.7373C88.1207 72.7665 88.2951 72.7665 88.3823 72.7665C88.4404 72.7665 88.4695 72.7957 88.4695 72.8249C88.4695 72.8833 88.4114 72.9125 88.3242 72.9125C87.8591 72.9125 87.2779 72.8833 87.1616 72.8833C87.0163 72.8833 86.5222 72.9125 86.2025 72.9125C86.0863 72.9125 86.0572 72.8833 86.0572 72.8249C86.0572 72.7957 86.0863 72.7665 86.1734 72.7665C86.2897 72.7665 86.3769 72.7373 86.4641 72.7373C86.6094 72.7081 86.6675 72.5329 86.6966 72.2993C86.7257 71.9489 86.7257 71.3357 86.7257 70.6057V69.1457V69.1457ZM87.6557 69.7881C87.6557 69.8757 87.6848 69.9049 87.7138 69.9341C87.8882 69.9925 88.1207 70.0217 88.3242 70.0217C88.6439 70.0217 88.7601 69.9925 88.8764 69.8757C89.1089 69.7005 89.3414 69.3209 89.3414 68.6785C89.3414 67.5397 88.5857 67.2185 88.1207 67.2185C87.9173 67.2185 87.772 67.2185 87.6848 67.2477C87.6266 67.2769 87.6266 67.3061 87.6266 67.3645V69.7881H87.6557Z" fill="#376A34"/>
<path d="M93.0602 67.6271C92.8858 67.1891 92.7405 67.1015 92.4499 67.0139C92.3336 66.9847 92.2173 66.9847 92.1302 66.9847C92.072 66.9847 92.043 66.9555 92.043 66.9263C92.043 66.8679 92.1302 66.8679 92.2464 66.8679C92.6824 66.8679 93.1183 66.8971 93.409 66.8971C93.6124 66.8971 93.9902 66.8679 94.3971 66.8679C94.4843 66.8679 94.5715 66.8971 94.5715 66.9263C94.5715 66.9555 94.5134 66.9847 94.4553 66.9847C94.339 66.9847 94.2227 66.9847 94.1356 67.0431C94.0774 67.0723 94.0484 67.1307 94.0484 67.2183C94.0484 67.3351 94.1065 67.5395 94.2227 67.8315L95.5887 71.4523H95.6178C95.9666 70.5763 96.9838 68.0067 97.1872 67.4811C97.2163 67.3643 97.2454 67.2475 97.2454 67.1891C97.2454 67.1307 97.2163 67.0723 97.1291 67.0431C97.0419 67.0139 96.9257 67.0139 96.8094 67.0139C96.7513 67.0139 96.6641 67.0139 96.6641 66.9555C96.6641 66.8971 96.7222 66.8679 96.8966 66.8679C97.3035 66.8679 97.6232 66.8971 97.7395 66.8971C97.8848 66.8971 98.2626 66.8679 98.4951 66.8679C98.6114 66.8679 98.6695 66.8971 98.6695 66.9263C98.6695 66.9555 98.6114 66.9847 98.5532 66.9847C98.4951 66.9847 98.3207 66.9847 98.1754 67.0723C98.0592 67.1307 97.9429 67.2767 97.7395 67.8023C97.4198 68.5615 97.2163 68.9995 96.7804 69.9631C96.2572 71.1311 95.9084 72.0071 95.7341 72.3867C95.5306 72.8539 95.4725 72.9707 95.3562 72.9707C95.24 72.9707 95.2109 72.8539 95.0656 72.4743L93.0602 67.6271Z" fill="#376A34"/>
<path d="M100.819 69.1457C100.819 67.9193 100.819 67.7149 100.79 67.4521C100.761 67.1893 100.703 67.0433 100.442 66.9849C100.383 66.9557 100.238 66.9557 100.122 66.9557C100.035 66.9557 99.9766 66.9265 99.9766 66.8973C99.9766 66.8681 100.035 66.8389 100.151 66.8389C100.354 66.8389 100.587 66.8389 100.79 66.8389C100.994 66.8389 101.168 66.8681 101.284 66.8681C101.546 66.8681 103.115 66.8681 103.261 66.8681C103.406 66.8389 103.551 66.8389 103.61 66.8097C103.639 66.8097 103.697 66.7805 103.726 66.7805C103.755 66.7805 103.784 66.8097 103.784 66.8389C103.784 66.8973 103.755 66.9849 103.726 67.3645C103.726 67.4521 103.697 67.8025 103.697 67.8901C103.697 67.9193 103.668 67.9777 103.61 67.9777C103.551 67.9777 103.551 67.9485 103.551 67.8609C103.551 67.8025 103.551 67.6565 103.493 67.5689C103.435 67.4229 103.348 67.3353 102.97 67.2769C102.825 67.2477 102.011 67.2477 101.837 67.2477C101.808 67.2477 101.779 67.2769 101.779 67.3353V69.3501C101.779 69.4085 101.779 69.4377 101.837 69.4377C102.011 69.4377 102.941 69.4377 103.115 69.4085C103.319 69.3793 103.435 69.3793 103.493 69.2917C103.551 69.2333 103.58 69.1749 103.61 69.1749C103.639 69.1749 103.668 69.2041 103.668 69.2333C103.668 69.2625 103.639 69.4085 103.61 69.8173C103.61 69.9633 103.58 70.2845 103.58 70.3429C103.58 70.4013 103.58 70.4889 103.522 70.4889C103.464 70.4889 103.464 70.4597 103.464 70.4305C103.464 70.3429 103.464 70.2553 103.435 70.1385C103.406 69.9925 103.29 69.8465 102.999 69.8173C102.854 69.7881 102.069 69.7881 101.866 69.7881C101.837 69.7881 101.808 69.8173 101.808 69.8757V70.5181C101.808 70.7809 101.808 71.5109 101.808 71.7445C101.837 72.2993 101.953 72.4161 102.767 72.4161C102.97 72.4161 103.319 72.4161 103.522 72.3285C103.726 72.2409 103.813 72.0657 103.871 71.7445C103.9 71.6569 103.9 71.6277 103.958 71.6277C104.016 71.6277 104.016 71.6861 104.016 71.7737C104.016 71.9489 103.958 72.5037 103.9 72.6497C103.842 72.8541 103.784 72.8541 103.464 72.8541C102.854 72.8541 102.418 72.8249 102.098 72.8249C101.749 72.7957 101.517 72.7957 101.284 72.7957C101.197 72.7957 101.023 72.7957 100.819 72.7957C100.645 72.7957 100.442 72.8249 100.267 72.8249C100.151 72.8249 100.122 72.7957 100.122 72.7373C100.122 72.7081 100.151 72.6789 100.238 72.6789C100.354 72.6789 100.442 72.6497 100.529 72.6497C100.674 72.6205 100.732 72.4453 100.761 72.2117C100.79 71.8613 100.79 71.2481 100.79 70.5181V69.1457H100.819Z" fill="#376A34"/>
<path d="M107.124 69.1457C107.124 67.9193 107.124 67.7149 107.095 67.4521C107.066 67.1893 107.008 67.0433 106.746 66.9849C106.688 66.9557 106.543 66.9557 106.427 66.9557C106.339 66.9557 106.281 66.9265 106.281 66.8973C106.281 66.8681 106.339 66.8389 106.456 66.8389C106.892 66.8389 107.386 66.8681 107.589 66.8681C107.822 66.8681 108.345 66.8389 108.81 66.8389C109.798 66.8389 111.135 66.8389 112.007 67.7441C112.414 68.1529 112.792 68.8245 112.792 69.7881C112.792 70.7809 112.356 71.5693 111.92 72.0073C111.542 72.3869 110.728 72.9417 109.246 72.9417C108.955 72.9417 108.635 72.9125 108.345 72.8833C108.054 72.8541 107.763 72.8249 107.56 72.8249C107.473 72.8249 107.298 72.8249 107.095 72.8249C106.921 72.8249 106.717 72.8541 106.543 72.8541C106.427 72.8541 106.398 72.8249 106.398 72.7665C106.398 72.7373 106.427 72.7081 106.514 72.7081C106.63 72.7081 106.717 72.6789 106.804 72.6789C106.95 72.6497 107.008 72.4745 107.037 72.2409C107.066 71.8905 107.066 71.2773 107.066 70.5473V69.1457H107.124ZM108.112 70.0509C108.112 70.8977 108.112 71.5109 108.141 71.6569C108.141 71.8613 108.17 72.1825 108.229 72.2701C108.345 72.4161 108.635 72.5913 109.275 72.5913C110.089 72.5913 110.641 72.4453 111.106 72.0073C111.629 71.5693 111.774 70.8393 111.774 70.0217C111.774 68.9997 111.338 68.3573 111.019 68.0361C110.292 67.3353 109.391 67.2477 108.752 67.2477C108.606 67.2477 108.287 67.2769 108.229 67.3061C108.17 67.3353 108.141 67.3645 108.141 67.4521C108.141 67.7149 108.141 68.4157 108.141 69.0581V70.0509H108.112Z" fill="#376A34"/>
<path d="M116.165 70.8101C116.136 70.8101 116.106 70.8393 116.106 70.8685L115.671 72.0073C115.583 72.2117 115.554 72.3869 115.554 72.5037C115.554 72.6497 115.612 72.7373 115.874 72.7373H115.99C116.077 72.7373 116.106 72.7665 116.106 72.7957C116.106 72.8541 116.048 72.8833 115.961 72.8833C115.7 72.8833 115.351 72.8541 115.118 72.8541C115.031 72.8541 114.595 72.8833 114.188 72.8833C114.072 72.8833 114.043 72.8541 114.043 72.7957C114.043 72.7373 114.072 72.7373 114.13 72.7373C114.188 72.7373 114.305 72.7373 114.363 72.7081C114.741 72.6497 114.886 72.3869 115.031 71.9781L117.037 66.9557C117.124 66.7221 117.182 66.6345 117.269 66.6345C117.327 66.6345 117.385 66.6929 117.472 66.8973C117.676 67.3353 118.926 70.6057 119.449 71.8029C119.739 72.5329 119.972 72.6205 120.146 72.6789C120.263 72.7081 120.379 72.7081 120.466 72.7081C120.524 72.7081 120.582 72.7081 120.582 72.7665C120.582 72.8249 120.524 72.8541 120.204 72.8541C119.914 72.8541 119.333 72.8541 118.693 72.8249C118.548 72.8249 118.461 72.8249 118.461 72.7665C118.461 72.7081 118.49 72.7081 118.577 72.7081C118.635 72.6789 118.693 72.6205 118.635 72.5329L117.996 70.8393C117.967 70.8101 117.967 70.7809 117.908 70.7809H116.165V70.8101ZM117.763 70.4013C117.792 70.4013 117.821 70.3721 117.792 70.3429L117.066 68.3573C117.066 68.3281 117.037 68.2989 117.037 68.2989C117.037 68.2989 117.007 68.3281 116.978 68.3573L116.252 70.3137C116.252 70.3429 116.252 70.3721 116.281 70.3721H117.763V70.4013Z" fill="#376A34"/>
</g>
<defs>
<clipPath id="clip0_0_369">
<rect width="140" height="73" fill="white"/>
</clipPath>
</defs>
</svg>
