<svg width="141" height="73" viewBox="0 0 141 73" fill="none" xmlns="http://www.w3.org/2000/svg">
<g clip-path="url(#clip0_132_56)">
<g opacity="0.75">
<path d="M56.3086 8.58496C56.3086 8.58496 78.4842 10.8042 79.1236 33.5802C79.1236 33.5802 78.8039 34.4562 76.8857 34.0474C76.0138 33.8722 74.5897 34.3686 73.6887 34.427C71.8286 34.5146 69.9395 34.3686 68.1666 33.7554C63.4292 32.091 62.2667 27.4482 61.5691 22.9514C61.1332 20.2942 61.075 17.5202 60.1741 14.9506C59.7962 13.841 59.2731 12.7898 58.6918 11.797C58.3721 11.213 57.0352 8.64336 56.3086 8.58496Z" fill="#376A34"/>
</g>
<g opacity="0.82">
<path d="M54.2734 42.7197C54.2734 42.7197 60.8128 28.0029 79.0648 32.5873C79.0648 32.5873 80.4308 33.4633 79.3845 35.6533C78.3382 37.8141 76.42 48.4429 63.5157 42.3401C63.5157 42.3109 59.8246 41.0261 54.2734 42.7197Z" fill="#F39121"/>
</g>
<g opacity="0.76">
<path d="M66.2434 6.10352e-05C66.2434 6.10352e-05 88.5062 12.7897 78.4211 34.0473C78.4211 34.0473 59.675 32.3537 65.9237 14.6293C65.9237 14.6001 69.5566 8.43886 66.2434 6.10352e-05Z" fill="#A9C552"/>
</g>
<g opacity="0.71">
<path d="M83.6523 22.1045C83.4488 21.9877 83.2163 21.9293 82.9548 21.9293C82.17 21.9293 81.5306 22.5717 81.5306 23.3601C81.5306 24.1485 82.17 24.7909 82.9548 24.7909C83.7395 24.7909 84.3789 24.1485 84.3789 23.3601C84.3789 23.2725 84.3789 23.1849 84.3498 23.0973C85.9193 24.4405 88.1572 27.8277 79.6124 33.0837C79.6124 33.0837 76.1829 35.3321 70.312 36.6753C64.4702 37.9893 59.8491 39.0697 54.1235 45.8149C54.1235 45.8149 53.6295 46.3405 54.2689 46.5741C54.9083 46.8369 55.0245 45.7565 55.0245 45.7565C55.0245 45.7565 59.1225 38.6025 69.9923 37.3177C68.8879 37.4345 67.551 38.3981 66.65 38.9529C64.7318 40.0917 62.2323 41.7561 61.4476 43.9461C61.0698 44.9973 61.2441 46.4281 61.8836 47.3333C62.2033 47.7713 62.6101 48.0049 63.1042 48.1217C63.3367 48.1801 64.9934 48.4429 65.0806 48.2677C65.0806 48.2677 65.3131 47.8881 64.8481 47.8297C64.8481 47.8297 62.7555 48.3845 61.8254 46.3989C60.8954 44.4425 63.8308 40.9969 66.3012 39.9749C66.3012 39.9749 70.0214 37.6681 72.8115 36.9673C75.6016 36.2373 82.8094 32.7917 84.902 29.7257C86.8784 26.8057 87.2562 22.8637 83.6523 22.1045Z" fill="black"/>
</g>
<path d="M20.1471 70.4013L0.5 69.6713V69.642L20.1471 68.912V70.4013Z" fill="#376A34"/>
<path d="M120.883 70.4013L140.501 69.6713V69.642L120.883 68.912V70.4013Z" fill="#376A34"/>
<path d="M0.703446 63.2765C0.529064 63.2181 0.5 63.1597 0.5 62.9261C0.5 62.3713 0.529064 61.7289 0.558127 61.5829C0.558127 61.4369 0.587191 61.3201 0.674382 61.3201C0.761574 61.3201 0.790637 61.4077 0.790637 61.4953C0.790637 61.6413 0.819701 61.8457 0.877829 62.0209C1.11034 62.7801 1.72068 63.0721 2.36008 63.0721C3.29012 63.0721 3.72607 62.4297 3.72607 61.9041C3.72607 61.4077 3.58076 60.9113 2.70884 60.2397L2.24382 59.8309C1.11034 58.9549 0.73251 58.2249 0.73251 57.3781C0.73251 56.2393 1.69161 55.4217 3.11574 55.4217C3.7842 55.4217 4.22016 55.5385 4.48173 55.5969C4.56892 55.6261 4.62705 55.6553 4.62705 55.7137C4.62705 55.8597 4.59799 56.1517 4.59799 56.9401C4.59799 57.1737 4.56892 57.2613 4.48173 57.2613C4.4236 57.2613 4.36548 57.2029 4.36548 57.0861C4.36548 56.9985 4.30735 56.6773 4.1039 56.4145C3.95858 56.2101 3.63888 55.9181 2.97042 55.9181C2.21476 55.9181 1.74974 56.3561 1.74974 56.9693C1.74974 57.4365 1.98225 57.8161 2.85416 58.4585L3.1448 58.6629C4.39454 59.5973 4.8305 60.3273 4.8305 61.2909C4.8305 61.9041 4.59799 62.6049 3.87139 63.1013C3.34825 63.4225 2.76697 63.5393 2.24382 63.5393C1.60442 63.5393 1.1394 63.4517 0.703446 63.2765Z" fill="#E43C25"/>
<path d="M7.64949 60.6776C7.59137 60.6776 7.59137 60.7068 7.5623 60.7652L7.01009 62.2544C6.89384 62.5172 6.86477 62.7508 6.86477 62.8968C6.86477 63.072 6.95196 63.218 7.27166 63.218H7.41698C7.53324 63.218 7.5623 63.2472 7.5623 63.3056C7.5623 63.3932 7.50417 63.4224 7.38792 63.4224C7.06822 63.4224 6.6032 63.3932 6.2835 63.3932C6.16724 63.3932 5.61503 63.4224 5.06282 63.4224C4.9175 63.4224 4.85938 63.3932 4.85938 63.3056C4.85938 63.2472 4.88844 63.218 4.97563 63.218C5.06282 63.218 5.20814 63.218 5.29533 63.1888C5.76035 63.1304 5.9638 62.78 6.16724 62.2544L8.75392 55.772C8.87017 55.48 8.9283 55.3632 9.04455 55.3632C9.13174 55.3632 9.18987 55.4508 9.30613 55.6844C9.53864 56.2392 11.1953 60.4732 11.8637 62.05C12.2416 62.9844 12.5613 63.1304 12.7647 63.1888C12.91 63.218 13.0844 63.218 13.2007 63.218C13.2879 63.218 13.346 63.218 13.346 63.3056C13.346 63.3932 13.2588 63.4224 12.881 63.4224C12.5031 63.4224 11.7475 63.4224 10.9337 63.3932C10.7593 63.3932 10.614 63.3932 10.614 63.3056C10.614 63.2472 10.6431 63.218 10.7593 63.218C10.8174 63.1888 10.9046 63.1012 10.8465 62.9844L10.0327 60.7944C10.0037 60.736 9.97459 60.736 9.91647 60.736H7.64949V60.6776ZM9.77115 60.1812C9.82927 60.1812 9.82927 60.152 9.82927 60.1228L8.89923 57.5824C8.89923 57.5532 8.87017 57.4948 8.84111 57.4948C8.81204 57.4948 8.78298 57.5532 8.78298 57.5824L7.82388 60.1228C7.82388 60.152 7.82388 60.1812 7.85294 60.1812H9.77115Z" fill="#E43C25"/>
<path d="M15.0324 61.9916C15.0615 62.8092 15.1777 63.072 15.3812 63.1304C15.5556 63.1888 15.759 63.1888 15.9043 63.1888C16.0206 63.1888 16.0787 63.218 16.0787 63.2764C16.0787 63.364 15.9915 63.3932 15.8462 63.3932C15.1777 63.3932 14.7708 63.364 14.5674 63.364C14.4802 63.364 13.9861 63.3932 13.463 63.3932C13.3177 63.3932 13.2305 63.3932 13.2305 63.2764C13.2305 63.218 13.2886 63.1888 13.4049 63.1888C13.5502 63.1888 13.7246 63.1888 13.8699 63.1304C14.1314 63.0428 14.1896 62.7508 14.1896 61.8456L14.2768 55.7136C14.2768 55.5092 14.3058 55.3632 14.4221 55.3632C14.5383 55.3632 14.6255 55.5092 14.7999 55.6844C14.9162 55.8304 16.4856 57.4948 17.9969 59.0132C18.6945 59.714 20.0895 61.2032 20.2639 61.3784H20.322L20.2058 56.7356C20.2058 56.0932 20.0895 55.918 19.857 55.8012C19.7117 55.7428 19.4501 55.7428 19.3048 55.7428C19.1885 55.7428 19.1304 55.7136 19.1304 55.6552C19.1304 55.5676 19.2467 55.5676 19.392 55.5676C19.9151 55.5676 20.4092 55.5968 20.6417 55.5968C20.758 55.5968 21.1358 55.5676 21.659 55.5676C21.8043 55.5676 21.8915 55.5676 21.8915 55.6552C21.8915 55.7136 21.8333 55.7428 21.7171 55.7428C21.6008 55.7428 21.5427 55.7428 21.3974 55.772C21.1067 55.8596 21.0195 56.064 21.0195 56.648L20.9033 63.1596C20.9033 63.3932 20.8742 63.4808 20.758 63.4808C20.6417 63.4808 20.5255 63.364 20.4092 63.2472C19.7698 62.634 18.4329 61.2616 17.3866 60.2104C16.2531 59.1008 15.1196 57.816 14.9452 57.6116H14.9162L15.0324 61.9916Z" fill="#E43C25"/>
<path d="M25.5509 56.1516L24.0105 56.1808C23.4002 56.21 23.1677 56.2392 23.0224 56.4728C22.9061 56.6188 22.877 56.7648 22.848 56.8232C22.8189 56.8816 22.7899 56.94 22.7317 56.94C22.6736 56.94 22.6445 56.8816 22.6445 56.7648C22.6445 56.5896 22.848 55.6552 22.848 55.5676C22.877 55.4216 22.9061 55.3632 22.9642 55.3632C23.0514 55.3632 23.1386 55.48 23.4002 55.48C23.6908 55.5092 24.0977 55.5384 24.4174 55.5384H28.4863C28.806 55.5384 29.0386 55.5092 29.1839 55.48C29.3292 55.4508 29.4164 55.4216 29.4745 55.4216C29.5326 55.4216 29.5617 55.48 29.5617 55.626C29.5617 55.8304 29.5326 56.5604 29.5326 56.8232C29.5326 56.94 29.5036 56.9984 29.4454 56.9984C29.3583 56.9984 29.3292 56.94 29.3292 56.794V56.6772C29.3001 56.4144 29.0386 56.1224 28.1085 56.0932L26.8006 56.064V60.298C26.8006 61.2616 26.8006 62.0792 26.8588 62.5172C26.8878 62.8092 26.946 63.0428 27.2657 63.072C27.411 63.1012 27.6435 63.1012 27.7888 63.1012C27.9051 63.1012 27.9632 63.1304 27.9632 63.1888C27.9632 63.2472 27.876 63.3056 27.7597 63.3056C27.0913 63.3056 26.4228 63.2764 26.1322 63.2764C25.8997 63.2764 25.2603 63.3056 24.8243 63.3056C24.679 63.3056 24.6209 63.2764 24.6209 63.1888C24.6209 63.1304 24.6499 63.1012 24.7952 63.1012C24.9406 63.1012 25.0859 63.072 25.1731 63.072C25.3765 63.0428 25.4347 62.8092 25.4637 62.5172C25.5218 62.0792 25.5218 61.2616 25.5218 60.3272V56.1516H25.5509Z" fill="#E43C25"/>
<path d="M36.7704 58.8672C36.7995 58.8672 36.8285 58.838 36.8285 58.8088V58.6044C36.8285 57.0276 36.8285 56.7356 36.7995 56.4144C36.7704 56.064 36.6832 55.8888 36.3635 55.8304C36.2763 55.8012 36.102 55.8012 35.9566 55.8012C35.8404 55.8012 35.7823 55.772 35.7823 55.7136C35.7823 55.6552 35.8404 55.626 35.9857 55.626C36.5379 55.626 37.1773 55.6552 37.4679 55.6552C37.7005 55.6552 38.3689 55.626 38.7758 55.626C38.9211 55.626 38.9793 55.6552 38.9793 55.7136C38.9793 55.772 38.9211 55.8012 38.8049 55.8012C38.7177 55.8012 38.6305 55.8012 38.5142 55.8304C38.2236 55.8888 38.1655 56.064 38.1364 56.4144C38.1074 56.7356 38.1073 57.0276 38.1073 58.6044V60.4148C38.1073 61.3784 38.1074 62.196 38.1655 62.634C38.1945 62.926 38.2527 63.1596 38.5724 63.1888C38.7177 63.218 38.9502 63.218 39.0955 63.218C39.2118 63.218 39.2699 63.2472 39.2699 63.3056C39.2699 63.364 39.1827 63.4224 39.0665 63.4224C38.398 63.4224 37.7586 63.3932 37.4679 63.3932C37.2354 63.3932 36.596 63.4224 36.1891 63.4224C36.0438 63.4224 35.9857 63.3932 35.9857 63.3056C35.9857 63.2472 36.0148 63.218 36.1601 63.218C36.3054 63.218 36.4507 63.1888 36.5379 63.1888C36.7414 63.1596 36.7995 62.926 36.8285 62.634C36.8867 62.196 36.8867 61.3784 36.8867 60.444V59.5388C36.8867 59.5096 36.8576 59.4804 36.8285 59.4804H32.9049C32.8759 59.4804 32.8468 59.4804 32.8468 59.5388V60.444C32.8468 61.4076 32.8468 62.2252 32.9049 62.6632C32.934 62.9552 32.9921 63.1888 33.3118 63.218C33.4572 63.2472 33.6897 63.2472 33.835 63.2472C33.9512 63.2472 34.0094 63.2764 34.0094 63.3348C34.0094 63.3932 33.9222 63.4516 33.8059 63.4516C33.1375 63.4516 32.4981 63.4224 32.2074 63.4224C31.9749 63.4224 31.3355 63.4516 30.8995 63.4516C30.7542 63.4516 30.6961 63.4224 30.6961 63.3348C30.6961 63.2764 30.7252 63.2472 30.8705 63.2472C31.0158 63.2472 31.1611 63.218 31.2483 63.218C31.4518 63.1888 31.5099 62.9552 31.5389 62.6632C31.5971 62.2252 31.5971 61.4076 31.5971 60.4732V58.6628C31.5971 57.086 31.5971 56.794 31.568 56.4728C31.5389 56.1224 31.4518 55.9472 31.1321 55.8888C31.0449 55.8596 30.8705 55.8596 30.7252 55.8596C30.6089 55.8596 30.5508 55.8304 30.5508 55.772C30.5508 55.7136 30.6089 55.6844 30.7542 55.6844C31.3064 55.6844 31.9458 55.7136 32.2365 55.7136C32.469 55.7136 33.1375 55.6844 33.5443 55.6844C33.6897 55.6844 33.7478 55.7136 33.7478 55.772C33.7478 55.8304 33.6897 55.8596 33.5734 55.8596C33.4862 55.8596 33.399 55.8596 33.2828 55.8888C32.9921 55.9472 32.934 56.1224 32.9049 56.4728C32.8759 56.794 32.8759 57.086 32.8759 58.6628V58.8672C32.8759 58.9256 32.9049 58.9256 32.934 58.9256H36.7704V58.8672Z" fill="#E43C25"/>
<path d="M41.4803 58.5753C41.4803 56.9985 41.4803 56.7065 41.4512 56.3853C41.4221 56.0349 41.3349 55.8597 41.1024 55.8013C40.9862 55.7721 40.8699 55.7721 40.7246 55.7721C40.6083 55.7721 40.5502 55.7429 40.5502 55.6553C40.5502 55.5969 40.6374 55.5677 40.7827 55.5677C41.1606 55.5677 41.829 55.5969 42.1197 55.5969C42.3812 55.5969 42.9916 55.5677 43.3694 55.5677C43.5147 55.5677 43.5728 55.5969 43.5728 55.6553C43.5728 55.7429 43.5147 55.7721 43.3985 55.7721C43.2822 55.7721 43.2241 55.7721 43.0788 55.8013C42.7881 55.8597 42.73 56.0349 42.7009 56.3853C42.6719 56.7065 42.6719 56.9985 42.6719 58.5753V60.3857C42.6719 61.3785 42.6719 62.1961 42.7009 62.6633C42.73 62.9553 42.8172 63.1305 43.1078 63.1597C43.2532 63.1889 43.4857 63.1889 43.631 63.1889C43.7472 63.1889 43.8054 63.2181 43.8054 63.2765C43.8054 63.3349 43.7182 63.3933 43.6019 63.3933C42.9334 63.3933 42.265 63.3641 42.0034 63.3641C41.7709 63.3641 41.1315 63.3933 40.6955 63.3933C40.5502 63.3933 40.4921 63.3641 40.4921 63.2765C40.4921 63.2181 40.5212 63.1889 40.6665 63.1889C40.8118 63.1889 40.9571 63.1597 41.0443 63.1597C41.2478 63.1305 41.3059 62.9553 41.3349 62.6341C41.3931 62.1961 41.3931 61.3785 41.3931 60.3857V58.5753H41.4803Z" fill="#E43C25"/>
<path d="M52.2924 62.6925C52.2924 62.9845 52.2924 62.9845 52.1471 63.0721C51.4786 63.4225 50.4614 63.5393 49.6766 63.5393C47.1481 63.5393 44.9102 62.3421 44.9102 59.4805C44.9102 57.8161 45.753 56.6773 46.7121 56.0933C47.7003 55.4801 48.6013 55.4217 49.4732 55.4217C50.1707 55.4217 51.1008 55.5385 51.3042 55.5969C51.5077 55.6261 51.8855 55.7137 52.118 55.7137C52.2342 55.7137 52.2633 55.7721 52.2633 55.8305C52.2633 55.9473 52.2052 56.2393 52.2052 57.5241C52.2052 57.6993 52.1761 57.7285 52.0889 57.7285C52.0308 57.7285 52.0017 57.6701 51.9727 57.5825C51.9436 57.3489 51.8855 57.0277 51.6239 56.7357C51.3042 56.4145 50.4904 55.9181 49.3279 55.9181C48.7757 55.9181 48.02 55.9473 47.2934 56.5605C46.7121 57.0569 46.3343 57.8161 46.3343 59.1009C46.3343 61.3201 47.7584 62.9845 49.9091 62.9845C50.1707 62.9845 50.5486 62.9845 50.7811 62.8677C50.9264 62.8093 50.9845 62.6633 50.9845 62.4881V61.5245C50.9845 60.9989 50.9845 60.6193 50.9845 60.2981C50.9845 59.9477 50.8683 59.7725 50.5485 59.7141C50.4614 59.6849 50.287 59.6849 50.1417 59.6849C50.0545 59.6849 49.9963 59.6557 49.9963 59.5973C49.9963 59.5097 50.0545 59.4805 50.1998 59.4805C50.7229 59.4805 51.3914 59.5097 51.682 59.5097C52.0017 59.5097 52.5539 59.4805 52.8736 59.4805C53.019 59.4805 53.0771 59.5097 53.0771 59.5973C53.0771 59.6557 53.019 59.6849 52.9318 59.6849C52.8446 59.6849 52.7865 59.6849 52.6411 59.7141C52.3505 59.7725 52.2633 59.9477 52.2633 60.2981C52.2633 60.6193 52.2633 61.0281 52.2633 61.5245V62.6925H52.2924Z" fill="#E43C25"/>
<path d="M55.1674 58.5753C55.1674 56.9985 55.1674 56.7065 55.1383 56.3853C55.1093 56.0349 55.0221 55.8597 54.7024 55.8013C54.6152 55.7721 54.4408 55.7721 54.2955 55.7721C54.1792 55.7721 54.1211 55.7429 54.1211 55.6845C54.1211 55.6261 54.1792 55.5969 54.3536 55.5969C54.9058 55.5969 55.5452 55.6261 55.7487 55.6261C56.0974 55.6261 56.8822 55.5969 57.2019 55.5969C57.8413 55.5969 58.5388 55.6553 59.091 56.0349C59.3816 56.2393 59.7885 56.7649 59.7885 57.4657C59.7885 58.2249 59.4688 58.9257 58.4225 59.7725C59.3526 60.9405 60.0501 61.8457 60.6604 62.4881C61.2417 63.1013 61.6486 63.1597 61.823 63.1889C61.9392 63.2181 62.0264 63.2181 62.1136 63.2181C62.2008 63.2181 62.2299 63.2473 62.2299 63.3057C62.2299 63.3933 62.1717 63.4225 62.0264 63.4225H61.0383C60.457 63.4225 60.1954 63.3641 59.9338 63.2181C59.4979 62.9845 59.091 62.4881 58.5388 61.6997C58.1319 61.1449 57.6669 60.4149 57.5215 60.2689C57.4634 60.2105 57.4053 60.2105 57.3472 60.2105L56.4462 60.1813C56.3881 60.1813 56.359 60.2105 56.359 60.2689V60.4149C56.359 61.3785 56.359 62.1961 56.4171 62.6341C56.4462 62.9261 56.5043 63.1597 56.824 63.1889C56.9693 63.2181 57.2018 63.2181 57.3181 63.2181C57.4053 63.2181 57.4344 63.2473 57.4344 63.3057C57.4344 63.3641 57.3762 63.4225 57.2309 63.4225C56.6206 63.4225 55.8649 63.3933 55.7196 63.3933C55.5162 63.3933 54.8767 63.4225 54.4699 63.4225C54.3245 63.4225 54.2664 63.3933 54.2664 63.3057C54.2664 63.2473 54.2955 63.2181 54.4408 63.2181C54.5861 63.2181 54.7314 63.1889 54.8186 63.1889C55.0221 63.1597 55.0802 62.9261 55.1093 62.6341C55.1674 62.1961 55.1674 61.3785 55.1674 60.4441V58.5753ZM56.3881 59.3929C56.3881 59.5097 56.4171 59.5389 56.4753 59.5681C56.6787 59.6265 56.9984 59.6849 57.26 59.6849C57.6669 59.6849 57.8122 59.6557 57.9866 59.5097C58.3063 59.2761 58.5969 58.8089 58.5969 57.9621C58.5969 56.5021 57.6378 56.0641 57.0275 56.0641C56.7659 56.0641 56.5915 56.0641 56.4753 56.0933C56.4171 56.1225 56.3881 56.1517 56.3881 56.2393V59.3929Z" fill="#E43C25"/>
<path d="M63.337 60.6776C63.2789 60.6776 63.2789 60.7068 63.2498 60.7652L62.6976 62.2544C62.5813 62.5172 62.5523 62.7508 62.5523 62.8968C62.5523 63.072 62.6395 63.218 62.9592 63.218H63.1045C63.2207 63.218 63.2498 63.2472 63.2498 63.3056C63.2498 63.3932 63.1917 63.4224 63.0754 63.4224C62.7557 63.4224 62.2907 63.3932 61.971 63.3932C61.8547 63.3932 61.3025 63.4224 60.7503 63.4224C60.605 63.4224 60.5469 63.3932 60.5469 63.3056C60.5469 63.2472 60.5759 63.218 60.6631 63.218C60.7503 63.218 60.8956 63.218 60.9828 63.1888C61.4479 63.1304 61.6513 62.78 61.8547 62.2544L64.4414 55.772C64.5577 55.48 64.6158 55.3632 64.7321 55.3632C64.8192 55.3632 64.8774 55.4508 64.9936 55.6844C65.2261 56.2392 66.8828 60.4732 67.5512 62.05C67.9291 62.9844 68.2488 63.1304 68.4522 63.1888C68.5975 63.218 68.7719 63.218 68.8882 63.218C68.9754 63.218 69.0335 63.218 69.0335 63.3056C69.0335 63.3932 68.9463 63.4224 68.5685 63.4224C68.1906 63.4224 67.435 63.4224 66.6212 63.3932C66.4468 63.3932 66.3015 63.3932 66.3015 63.3056C66.3015 63.2472 66.3306 63.218 66.4468 63.218C66.5049 63.1888 66.5921 63.1012 66.534 62.9844L65.7202 60.7944C65.6912 60.736 65.6621 60.736 65.604 60.736H63.337V60.6776ZM65.4296 60.1812C65.4877 60.1812 65.4877 60.152 65.4877 60.1228L64.5577 57.5824C64.5577 57.5532 64.5286 57.4948 64.4995 57.4948C64.4705 57.4948 64.4414 57.5532 64.4414 57.5824L63.4823 60.1228C63.4823 60.152 63.4823 60.1812 63.5114 60.1812H65.4296Z" fill="#E43C25"/>
<path d="M70.7199 55.626C70.749 55.4508 70.8071 55.3632 70.8943 55.3632C70.9815 55.3632 71.0396 55.4216 71.1849 55.6844L74.0041 61.5244L76.7942 55.626C76.8814 55.4508 76.9396 55.3924 77.0267 55.3924C77.1139 55.3924 77.1721 55.5092 77.2011 55.7136L78.1312 62.1084C78.2184 62.7508 78.3346 63.072 78.6253 63.1596C78.9159 63.2472 79.1193 63.2764 79.2647 63.2764C79.3519 63.2764 79.439 63.2764 79.439 63.3348C79.439 63.4224 79.3228 63.4516 79.1775 63.4516C78.9159 63.4516 77.4918 63.4224 77.0849 63.3932C76.8524 63.364 76.7942 63.3348 76.7942 63.2764C76.7942 63.218 76.8233 63.1888 76.9105 63.1596C76.9686 63.1304 76.9977 63.0136 76.9686 62.7216L76.3583 58.1664H76.3292L74.0913 62.8676C73.8588 63.364 73.8007 63.4516 73.7135 63.4516C73.6263 63.4516 73.51 63.2472 73.3647 62.926C73.1322 62.4588 72.3184 60.882 72.1731 60.59C72.0859 60.3856 71.4756 59.0716 71.0977 58.2832H71.0687L70.5455 62.4004C70.5165 62.5756 70.5165 62.7216 70.5165 62.8968C70.5165 63.1012 70.6618 63.1888 70.8362 63.218C71.0106 63.2472 71.1559 63.2764 71.2721 63.2764C71.3593 63.2764 71.4175 63.3056 71.4175 63.3348C71.4175 63.4224 71.3303 63.4516 71.1849 63.4516C70.749 63.4516 70.284 63.4224 70.1096 63.4224C69.9061 63.4224 69.4121 63.4516 69.0924 63.4516C68.9761 63.4516 68.918 63.4224 68.918 63.3348C68.918 63.2764 68.9761 63.2764 69.0924 63.2764C69.1795 63.2764 69.2377 63.2764 69.4121 63.2472C69.7027 63.1888 69.7899 62.78 69.848 62.4296L70.7199 55.626Z" fill="#E43C25"/>
<path d="M83.2169 56.5897C83.1007 56.2101 82.9844 55.9473 82.8391 55.8597C82.7228 55.8013 82.5194 55.7721 82.4322 55.7721C82.3159 55.7721 82.2578 55.7721 82.2578 55.6845C82.2578 55.6261 82.345 55.5969 82.4903 55.5969C83.0135 55.5969 83.5948 55.6261 83.6819 55.6261C83.7691 55.6261 84.2342 55.5969 84.8154 55.5969C84.9607 55.5969 85.0189 55.6261 85.0189 55.6845C85.0189 55.7721 84.9317 55.7721 84.8445 55.7721C84.7573 55.7721 84.6701 55.7721 84.5829 55.8013C84.4957 55.8305 84.4667 55.9181 84.4667 56.0349C84.4667 56.1809 84.5829 56.5313 84.6992 56.9985C84.8736 57.6701 85.8327 60.8237 86.007 61.3785H86.0361L88.0415 56.0057C88.1578 55.7137 88.2159 55.6261 88.3031 55.6261C88.4193 55.6261 88.4775 55.7721 88.5937 56.1225L90.7444 61.3201H90.7735C90.9479 60.6193 91.7907 57.9037 92.1395 56.6773C92.1976 56.4437 92.2557 56.2101 92.2557 56.0641C92.2557 55.8889 92.1685 55.7429 91.7617 55.7429C91.6454 55.7429 91.5873 55.7137 91.5873 55.6553C91.5873 55.5969 91.6745 55.5677 91.8198 55.5677C92.372 55.5677 92.808 55.5969 92.8951 55.5969C92.9533 55.5969 93.4183 55.5677 93.738 55.5677C93.8542 55.5677 93.9124 55.5969 93.9124 55.6553C93.9124 55.7137 93.8542 55.7721 93.7671 55.7721C93.6508 55.7721 93.5345 55.7721 93.4183 55.8305C93.1858 55.9181 93.0695 56.3269 92.837 56.9401C92.372 58.2541 91.2966 61.5245 90.7735 63.0721C90.6572 63.4225 90.5991 63.5685 90.4829 63.5685C90.3666 63.5685 90.3085 63.4517 90.1632 63.0721L88.0124 57.9037H87.9834C87.7799 58.4293 86.4139 62.0793 85.978 63.0429C85.7745 63.4809 85.7455 63.5977 85.6001 63.5977C85.4839 63.5977 85.4548 63.4809 85.3676 63.2181L83.2169 56.5897Z" fill="#E43C25"/>
<path d="M95.3041 58.5753C95.3041 56.9985 95.3041 56.7065 95.275 56.3853C95.246 56.0349 95.1588 55.8597 94.8391 55.8013C94.7519 55.7721 94.5775 55.7721 94.4322 55.7721C94.3159 55.7721 94.2578 55.7429 94.2578 55.6845C94.2578 55.6261 94.3159 55.5969 94.4903 55.5969C94.781 55.5969 95.0716 55.5969 95.3332 55.5969C95.5947 55.5969 95.8273 55.6261 95.9726 55.6261C96.2923 55.6261 98.3558 55.6261 98.5592 55.6261C98.7627 55.5969 98.908 55.5969 98.9952 55.5677C99.0533 55.5677 99.1115 55.5385 99.1696 55.5385C99.2277 55.5385 99.2277 55.5677 99.2277 55.6261C99.2277 55.6845 99.1696 55.8305 99.1405 56.2977C99.1405 56.4145 99.1115 56.8525 99.0824 56.9693C99.0824 57.0277 99.0533 57.0861 98.9661 57.0861C98.8789 57.0861 98.8789 57.0277 98.8789 56.9401C98.8789 56.8817 98.8789 56.7065 98.8208 56.5605C98.7627 56.3853 98.6464 56.2393 98.1233 56.1809C97.9489 56.1517 96.8735 56.1517 96.6701 56.1517C96.612 56.1517 96.612 56.1809 96.612 56.2685V58.8965C96.612 58.9549 96.612 59.0133 96.6701 59.0133C96.9026 59.0133 98.0652 59.0133 98.3267 58.9841C98.5592 58.9549 98.7336 58.9257 98.8208 58.8381C98.8789 58.7505 98.9371 58.6921 98.9952 58.6921C99.0243 58.6921 99.0533 58.7213 99.0533 58.7797C99.0533 58.8381 99.0243 59.0133 98.9661 59.5389C98.9661 59.7433 98.9371 60.1521 98.9371 60.2397C98.9371 60.3273 98.9371 60.4441 98.8499 60.4441C98.7918 60.4441 98.7627 60.4149 98.7627 60.3565C98.7627 60.2397 98.7627 60.1229 98.7336 59.9769C98.6755 59.7725 98.5302 59.6265 98.1524 59.5681C97.9489 59.5389 96.9317 59.5389 96.6992 59.5389C96.641 59.5389 96.641 59.5681 96.641 59.6557V60.4733C96.641 60.8237 96.641 61.7873 96.641 62.0793C96.6701 62.7801 96.8154 62.9553 97.8617 62.9553C98.1233 62.9553 98.5592 62.9553 98.8208 62.8385C99.0824 62.7217 99.1986 62.4881 99.2858 62.0793C99.3149 61.9625 99.3149 61.9333 99.4021 61.9333C99.4893 61.9333 99.4893 62.0209 99.4893 62.1085C99.4893 62.3421 99.4021 63.0429 99.344 63.2473C99.2858 63.5101 99.1696 63.5101 98.7918 63.5101C98.007 63.5101 97.4548 63.4809 97.0189 63.4809C96.5829 63.4517 96.2632 63.4517 95.9435 63.4517C95.8273 63.4517 95.5947 63.4517 95.3622 63.4517C95.1297 63.4517 94.8681 63.4809 94.6647 63.4809C94.5194 63.4809 94.4613 63.4517 94.4613 63.3641C94.4613 63.3057 94.4903 63.2765 94.6356 63.2765C94.781 63.2765 94.9263 63.2473 95.0135 63.2473C95.2169 63.2181 95.275 62.9845 95.3041 62.6925C95.3622 62.2545 95.3622 61.4369 95.3622 60.5025V58.5753H95.3041Z" fill="#E43C25"/>
<path d="M103.097 60.3857C103.097 61.6997 103.097 62.4297 103.301 62.6049C103.475 62.7509 103.737 62.8385 104.55 62.8385C105.103 62.8385 105.51 62.8385 105.742 62.5465C105.858 62.4005 105.975 62.1085 106.004 61.9333C106.004 61.8457 106.033 61.7873 106.12 61.7873C106.178 61.7873 106.207 61.8457 106.207 61.9625C106.207 62.0793 106.149 62.8385 106.062 63.1597C106.004 63.3933 105.946 63.4517 105.422 63.4517C104.696 63.4517 104.144 63.4225 103.679 63.4225C103.214 63.3933 102.836 63.3933 102.429 63.3933C102.313 63.3933 102.08 63.3933 101.848 63.3933C101.615 63.3933 101.353 63.4225 101.15 63.4225C101.005 63.4225 100.947 63.3933 100.947 63.3057C100.947 63.2473 100.976 63.2181 101.121 63.2181C101.266 63.2181 101.412 63.1889 101.499 63.1889C101.702 63.1597 101.76 62.9261 101.789 62.6341C101.848 62.1961 101.848 61.3785 101.848 60.4441V58.6337C101.848 57.0569 101.848 56.7649 101.818 56.4437C101.789 56.0933 101.702 55.9181 101.383 55.8597C101.295 55.8305 101.179 55.8305 101.034 55.8305C100.918 55.8305 100.859 55.8013 100.859 55.7429C100.859 55.6845 100.918 55.6553 101.092 55.6553C101.586 55.6553 102.225 55.6845 102.487 55.6845C102.719 55.6845 103.475 55.6553 103.882 55.6553C104.027 55.6553 104.085 55.6845 104.085 55.7429C104.085 55.8013 104.027 55.8305 103.911 55.8305C103.795 55.8305 103.62 55.8305 103.504 55.8597C103.214 55.9181 103.155 56.0933 103.126 56.4437C103.097 56.7649 103.097 57.0569 103.097 58.6337V60.3857Z" fill="#E43C25"/>
<path d="M109.316 60.3857C109.316 61.6997 109.316 62.4297 109.519 62.6049C109.694 62.7509 109.955 62.8385 110.769 62.8385C111.321 62.8385 111.728 62.8385 111.961 62.5465C112.077 62.4005 112.193 62.1085 112.222 61.9333C112.222 61.8457 112.251 61.7873 112.339 61.7873C112.397 61.7873 112.426 61.8457 112.426 61.9625C112.426 62.0793 112.368 62.8385 112.281 63.1597C112.222 63.3933 112.164 63.4517 111.641 63.4517C110.915 63.4517 110.362 63.4225 109.897 63.4225C109.432 63.3933 109.054 63.3933 108.648 63.3933C108.531 63.3933 108.299 63.3933 108.066 63.3933C107.834 63.3933 107.572 63.4225 107.369 63.4225C107.223 63.4225 107.165 63.3933 107.165 63.3057C107.165 63.2473 107.194 63.2181 107.34 63.2181C107.485 63.2181 107.63 63.1889 107.718 63.1889C107.921 63.1597 107.979 62.9261 108.008 62.6341C108.066 62.1961 108.066 61.3785 108.066 60.4441V58.6337C108.066 57.0569 108.066 56.7649 108.037 56.4437C108.008 56.0933 107.921 55.9181 107.601 55.8597C107.514 55.8305 107.398 55.8305 107.253 55.8305C107.136 55.8305 107.078 55.8013 107.078 55.7429C107.078 55.6845 107.136 55.6553 107.311 55.6553C107.805 55.6553 108.444 55.6845 108.706 55.6845C108.938 55.6845 109.694 55.6553 110.101 55.6553C110.246 55.6553 110.304 55.6845 110.304 55.7429C110.304 55.8013 110.246 55.8305 110.13 55.8305C110.014 55.8305 109.839 55.8305 109.723 55.8597C109.432 55.9181 109.374 56.0933 109.345 56.4437C109.316 56.7649 109.316 57.0569 109.316 58.6337V60.3857Z" fill="#E43C25"/>
<path d="M114.837 61.9916C114.866 62.8092 114.982 63.072 115.186 63.1304C115.36 63.1888 115.564 63.1888 115.709 63.1888C115.825 63.1888 115.883 63.218 115.883 63.2764C115.883 63.364 115.796 63.3932 115.651 63.3932C114.982 63.3932 114.576 63.364 114.372 63.364C114.285 63.364 113.791 63.3932 113.268 63.3932C113.122 63.3932 113.035 63.3932 113.035 63.2764C113.035 63.218 113.093 63.1888 113.21 63.1888C113.355 63.1888 113.529 63.1888 113.675 63.1304C113.936 63.0428 113.994 62.7508 113.994 61.8456L114.081 55.7136C114.081 55.5092 114.111 55.3632 114.227 55.3632C114.343 55.3632 114.43 55.5092 114.605 55.6844C114.721 55.8304 116.29 57.4948 117.802 59.0132C118.499 59.714 119.894 61.2032 120.069 61.3784H120.127L120.01 56.7356C120.01 56.0932 119.894 55.918 119.662 55.8012C119.516 55.7428 119.255 55.7428 119.109 55.7428C118.993 55.7428 118.935 55.7136 118.935 55.6552C118.935 55.5676 119.051 55.5676 119.197 55.5676C119.72 55.5676 120.214 55.5968 120.446 55.5968C120.563 55.5968 120.94 55.5676 121.464 55.5676C121.609 55.5676 121.696 55.5676 121.696 55.6552C121.696 55.7136 121.638 55.7428 121.522 55.7428C121.406 55.7428 121.347 55.7428 121.202 55.772C120.911 55.8596 120.824 56.064 120.824 56.648L120.708 63.1596C120.708 63.3932 120.679 63.4808 120.563 63.4808C120.446 63.4808 120.33 63.364 120.214 63.2472C119.574 62.634 118.238 61.2616 117.191 60.2104C116.058 59.1008 114.924 57.816 114.75 57.6116H114.721L114.837 61.9916Z" fill="#E43C25"/>
<path d="M123.992 58.5753C123.992 56.9985 123.992 56.7065 123.963 56.3853C123.933 56.0349 123.846 55.8597 123.527 55.8013C123.439 55.7721 123.265 55.7721 123.12 55.7721C123.003 55.7721 122.945 55.7429 122.945 55.6845C122.945 55.6261 123.003 55.5969 123.178 55.5969C123.468 55.5969 123.759 55.5969 124.021 55.5969C124.282 55.5969 124.515 55.6261 124.66 55.6261C124.98 55.6261 127.043 55.6261 127.247 55.6261C127.45 55.5969 127.596 55.5969 127.683 55.5677C127.741 55.5677 127.799 55.5385 127.857 55.5385C127.915 55.5385 127.915 55.5677 127.915 55.6261C127.915 55.6845 127.857 55.8305 127.828 56.2977C127.828 56.4145 127.799 56.8525 127.77 56.9693C127.77 57.0277 127.741 57.0861 127.654 57.0861C127.566 57.0861 127.566 57.0277 127.566 56.9401C127.566 56.8817 127.566 56.7065 127.508 56.5605C127.45 56.3853 127.334 56.2393 126.811 56.1809C126.636 56.1517 125.561 56.1517 125.358 56.1517C125.299 56.1517 125.299 56.1809 125.299 56.2685V58.8965C125.299 58.9549 125.299 59.0133 125.358 59.0133C125.59 59.0133 126.753 59.0133 127.014 58.9841C127.247 58.9549 127.421 58.9257 127.508 58.8381C127.566 58.7505 127.625 58.6921 127.683 58.6921C127.712 58.6921 127.741 58.7213 127.741 58.7797C127.741 58.8381 127.712 59.0133 127.654 59.5389C127.654 59.7433 127.625 60.1521 127.625 60.2397C127.625 60.3273 127.625 60.4441 127.537 60.4441C127.479 60.4441 127.45 60.4149 127.45 60.3565C127.45 60.2397 127.45 60.1229 127.421 59.9769C127.363 59.7725 127.218 59.6265 126.84 59.5681C126.636 59.5389 125.619 59.5389 125.387 59.5389C125.329 59.5389 125.329 59.5681 125.329 59.6557V60.4733C125.329 60.8237 125.329 61.7873 125.329 62.0793C125.358 62.7801 125.503 62.9553 126.549 62.9553C126.811 62.9553 127.247 62.9553 127.508 62.8385C127.77 62.7217 127.886 62.4881 127.973 62.0793C128.002 61.9625 128.002 61.9333 128.09 61.9333C128.177 61.9333 128.177 62.0209 128.177 62.1085C128.177 62.3421 128.09 63.0429 128.031 63.2473C127.973 63.5101 127.857 63.5101 127.479 63.5101C126.695 63.5101 126.142 63.4809 125.706 63.4809C125.27 63.4517 124.951 63.4517 124.631 63.4517C124.515 63.4517 124.282 63.4517 124.05 63.4517C123.817 63.4517 123.556 63.4809 123.352 63.4809C123.207 63.4809 123.149 63.4517 123.149 63.3641C123.149 63.3057 123.178 63.2765 123.323 63.2765C123.468 63.2765 123.614 63.2473 123.701 63.2473C123.904 63.2181 123.963 62.9845 123.992 62.6925C124.05 62.2545 124.05 61.4369 124.05 60.5025V58.5753H123.992Z" fill="#E43C25"/>
<path d="M129.922 63.2765C129.748 63.2181 129.719 63.1597 129.719 62.9261C129.719 62.3713 129.748 61.7289 129.777 61.5829C129.777 61.4369 129.806 61.3201 129.893 61.3201C129.98 61.3201 130.009 61.4077 130.009 61.4953C130.009 61.6413 130.038 61.8457 130.097 62.0209C130.329 62.7801 130.939 63.0721 131.579 63.0721C132.509 63.0721 132.945 62.4297 132.945 61.9041C132.945 61.4077 132.8 60.9113 131.928 60.2397L131.463 59.8601C130.329 58.9841 129.951 58.2541 129.951 57.4073C129.951 56.2685 130.91 55.4509 132.334 55.4509C133.003 55.4509 133.439 55.5677 133.7 55.6261C133.788 55.6553 133.846 55.6845 133.846 55.7429C133.846 55.8889 133.817 56.1809 133.817 56.9693C133.817 57.2029 133.788 57.2905 133.7 57.2905C133.642 57.2905 133.584 57.2321 133.584 57.1153C133.584 57.0277 133.526 56.7065 133.323 56.4437C133.177 56.2393 132.858 55.9473 132.189 55.9473C131.434 55.9473 130.968 56.3853 130.968 56.9985C130.968 57.4657 131.201 57.8453 132.073 58.4877L132.364 58.6921C133.613 59.6265 134.049 60.3565 134.049 61.3201C134.049 61.9333 133.817 62.6341 133.09 63.1305C132.567 63.4517 131.986 63.5685 131.463 63.5685C130.823 63.5393 130.358 63.4517 129.922 63.2765Z" fill="#E43C25"/>
<path d="M135.907 63.2765C135.732 63.2181 135.703 63.1597 135.703 62.9261C135.703 62.3713 135.732 61.7289 135.761 61.5829C135.761 61.4369 135.79 61.3201 135.878 61.3201C135.965 61.3201 135.994 61.4077 135.994 61.4953C135.994 61.6413 136.023 61.8457 136.081 62.0209C136.313 62.7801 136.924 63.0721 137.563 63.0721C138.493 63.0721 138.929 62.4297 138.929 61.9041C138.929 61.4077 138.784 60.9113 137.912 60.2397L137.447 59.8601C136.313 58.9841 135.936 58.2541 135.936 57.4073C135.936 56.2685 136.895 55.4509 138.319 55.4509C138.987 55.4509 139.423 55.5677 139.685 55.6261C139.772 55.6553 139.83 55.6845 139.83 55.7429C139.83 55.8889 139.801 56.1809 139.801 56.9693C139.801 57.2029 139.772 57.2905 139.685 57.2905C139.627 57.2905 139.569 57.2321 139.569 57.1153C139.569 57.0277 139.51 56.7065 139.307 56.4437C139.162 56.2393 138.842 55.9473 138.174 55.9473C137.418 55.9473 136.953 56.3853 136.953 56.9985C136.953 57.4657 137.185 57.8453 138.057 58.4877L138.348 58.6921C139.598 59.6265 140.034 60.3565 140.034 61.3201C140.034 61.9333 139.801 62.6341 139.075 63.1305C138.551 63.4517 137.97 63.5685 137.447 63.5685C136.808 63.5393 136.343 63.4517 135.907 63.2765Z" fill="#E43C25"/>
<path d="M22.4404 69.4961H22.4695C22.731 69.2041 23.8936 68.0069 24.1261 67.7441C24.3586 67.4813 24.533 67.2769 24.533 67.1309C24.533 67.0433 24.5039 66.9849 24.4167 66.9849C24.3586 66.9557 24.3005 66.9557 24.3005 66.8973C24.3005 66.8389 24.3295 66.8389 24.4167 66.8389C24.5911 66.8389 25.0271 66.8681 25.2305 66.8681C25.463 66.8681 25.928 66.8389 26.1606 66.8389C26.2477 66.8389 26.3059 66.8681 26.3059 66.8973C26.3059 66.9265 26.2768 66.9557 26.1896 66.9557C26.0734 66.9557 25.8699 66.9849 25.7246 67.0433C25.4921 67.1309 25.2014 67.3061 24.8527 67.6565C24.6202 67.8901 23.3995 69.0873 23.1379 69.3793C23.4286 69.7589 24.998 71.4525 25.2886 71.7445C25.6374 72.0657 25.9862 72.4453 26.4221 72.6205C26.6546 72.7081 26.829 72.7373 26.9162 72.7373C26.9743 72.7373 27.0325 72.7665 27.0325 72.7957C27.0325 72.8541 27.0034 72.8833 26.829 72.8833H26.1315C25.899 72.8833 25.7537 72.8833 25.5793 72.8541C25.1433 72.8249 24.9399 72.6497 24.5911 72.3285C24.2423 72.0073 22.6729 70.1677 22.4985 69.9341L22.4113 69.8173H22.3823V70.5473C22.3823 71.2773 22.3823 71.9197 22.4113 72.2701C22.4404 72.5037 22.4985 72.6789 22.702 72.7081C22.8182 72.7373 22.9926 72.7373 23.0798 72.7373C23.1379 72.7373 23.196 72.7665 23.196 72.7957C23.196 72.8541 23.1379 72.8833 23.0507 72.8833C22.6148 72.8833 22.0916 72.8541 21.9172 72.8541C21.7429 72.8541 21.2197 72.8833 20.9291 72.8833C20.8128 72.8833 20.7838 72.8541 20.7838 72.7957C20.7838 72.7665 20.8128 72.7373 20.9 72.7373C21.0163 72.7373 21.1035 72.7081 21.1906 72.7081C21.336 72.6789 21.3941 72.5037 21.4232 72.2701C21.4522 71.9197 21.4522 71.3065 21.4522 70.5765V69.1749C21.4522 67.9485 21.4522 67.7441 21.4232 67.4813C21.3941 67.2185 21.336 67.0725 21.0744 67.0141C21.0163 66.9849 20.8709 66.9849 20.7547 66.9849C20.6675 66.9849 20.6094 66.9557 20.6094 66.9265C20.6094 66.8973 20.6675 66.8681 20.7838 66.8681C21.2197 66.8681 21.7138 66.8973 21.8882 66.8973C22.0916 66.8973 22.5857 66.8681 22.8473 66.8681C22.9635 66.8681 23.0217 66.8973 23.0217 66.9265C23.0217 66.9557 22.9635 66.9849 22.9054 66.9849C22.8182 66.9849 22.7892 66.9849 22.6729 67.0141C22.4695 67.0433 22.3823 67.1893 22.3823 67.4813C22.3532 67.7441 22.3532 67.9485 22.3532 69.1749V69.4961H22.4404Z" fill="#376A34"/>
<path d="M28.8624 69.1457C28.8624 67.9193 28.8624 67.7149 28.8333 67.4521C28.8043 67.1893 28.7461 67.0433 28.4846 66.9849C28.4264 66.9557 28.2811 66.9557 28.1648 66.9557C28.0777 66.9557 28.0195 66.9265 28.0195 66.8973C28.0195 66.8681 28.0777 66.8389 28.1939 66.8389C28.3974 66.8389 28.6299 66.8389 28.8333 66.8389C29.0368 66.8389 29.2111 66.8681 29.3274 66.8681C29.589 66.8681 31.1584 66.8681 31.3037 66.8681C31.4491 66.8389 31.5944 66.8389 31.6525 66.8097C31.6816 66.8097 31.7397 66.7805 31.7688 66.7805C31.7978 66.7805 31.8269 66.8097 31.8269 66.8389C31.8269 66.8973 31.7978 66.9849 31.7688 67.3645C31.7688 67.4521 31.7397 67.8025 31.7397 67.8901C31.7397 67.9193 31.7106 67.9777 31.6525 67.9777C31.5944 67.9777 31.5944 67.9485 31.5944 67.8609C31.5944 67.8025 31.5944 67.6565 31.5362 67.5689C31.4781 67.4229 31.3909 67.3353 31.0131 67.2769C30.8678 67.2477 30.054 67.2477 29.8796 67.2477C29.8505 67.2477 29.8215 67.2769 29.8215 67.3353V69.3501C29.8215 69.4085 29.8215 69.4377 29.8796 69.4377C30.054 69.4377 30.984 69.4377 31.1584 69.4085C31.3619 69.3793 31.4781 69.3793 31.5362 69.2917C31.5944 69.2333 31.6234 69.1749 31.6525 69.1749C31.6816 69.1749 31.7106 69.2041 31.7106 69.2333C31.7106 69.2625 31.6816 69.4085 31.6525 69.8173C31.6525 69.9633 31.6234 70.2845 31.6234 70.3429C31.6234 70.4013 31.6234 70.4889 31.5653 70.4889C31.5072 70.4889 31.5072 70.4597 31.5072 70.4305C31.5072 70.3429 31.5072 70.2553 31.4781 70.1385C31.4491 69.9925 31.3328 69.8465 31.0422 69.8173C30.8968 69.7881 30.1121 69.7881 29.9087 69.7881C29.8796 69.7881 29.8505 69.8173 29.8505 69.8757V70.5181C29.8505 70.7809 29.8505 71.5109 29.8505 71.7445C29.8796 72.2993 29.9959 72.4161 30.8097 72.4161C31.0131 72.4161 31.3619 72.4161 31.5653 72.3285C31.7688 72.2409 31.8559 72.0657 31.9141 71.7445C31.9431 71.6569 31.9431 71.6277 32.0013 71.6277C32.0594 71.6277 32.0594 71.6861 32.0594 71.7737C32.0594 71.9489 32.0013 72.5037 31.9431 72.6497C31.885 72.8541 31.8269 72.8541 31.5072 72.8541C30.8968 72.8541 30.4609 72.8249 30.1412 72.8249C29.7924 72.7957 29.5599 72.7957 29.3274 72.7957C29.2402 72.7957 29.0658 72.7957 28.8624 72.7957C28.688 72.7957 28.4846 72.8249 28.3102 72.8249C28.1939 72.8249 28.1648 72.7957 28.1648 72.7373C28.1648 72.7081 28.1939 72.6789 28.2811 72.6789C28.3974 72.6789 28.4846 72.6497 28.5717 72.6497C28.7171 72.6205 28.7752 72.4453 28.8043 72.2117C28.8333 71.8613 28.8333 71.2481 28.8333 70.5181V69.1457H28.8624Z" fill="#376A34"/>
<path d="M35.171 69.1457C35.171 67.9193 35.171 67.7149 35.1419 67.4521C35.1128 67.1893 35.0547 67.0433 34.7931 66.9849C34.735 66.9557 34.5897 66.9557 34.4734 66.9557C34.3863 66.9557 34.3281 66.9265 34.3281 66.8973C34.3281 66.8681 34.3863 66.8389 34.5025 66.8389C34.9385 66.8389 35.4325 66.8681 35.6069 66.8681C35.8685 66.8681 36.4788 66.8389 36.7404 66.8389C37.2345 66.8389 37.7867 66.8973 38.1936 67.1893C38.4261 67.3353 38.7458 67.7441 38.7458 68.2989C38.7458 68.8829 38.5133 69.4377 37.6995 70.0801C38.397 70.9853 38.9493 71.6861 39.4143 72.1825C39.8502 72.6497 40.199 72.7081 40.3153 72.7373C40.4024 72.7665 40.4606 72.7665 40.5478 72.7665C40.6059 72.7665 40.635 72.7957 40.635 72.8249C40.635 72.8833 40.5768 72.9125 40.4896 72.9125H39.734C39.298 72.9125 39.0946 72.8833 38.8911 72.7665C38.5424 72.5913 38.2517 72.2117 37.7867 71.5985C37.467 71.1605 37.0892 70.6057 37.002 70.4889C36.9729 70.4305 36.9148 70.4305 36.8567 70.4305L36.1591 70.4013C36.1301 70.4013 36.101 70.4305 36.101 70.4597V70.5765C36.101 71.3065 36.101 71.9489 36.1301 72.2993C36.1591 72.5329 36.1882 72.7081 36.4498 72.7373C36.566 72.7665 36.7404 72.7665 36.8276 72.7665C36.8857 72.7665 36.9148 72.7957 36.9148 72.8249C36.9148 72.8833 36.8567 72.9125 36.7695 72.9125C36.3045 72.9125 35.7232 72.8833 35.6069 72.8833C35.4616 72.8833 34.9675 72.9125 34.6478 72.9125C34.5316 72.9125 34.5025 72.8833 34.5025 72.8249C34.5025 72.7957 34.5316 72.7665 34.6188 72.7665C34.735 72.7665 34.8222 72.7373 34.9094 72.7373C35.0547 72.7081 35.1128 72.5329 35.1419 72.2993C35.171 71.9489 35.171 71.3357 35.171 70.6057V69.1457ZM36.101 69.7881C36.101 69.8757 36.1301 69.9049 36.1591 69.9341C36.3335 69.9925 36.566 70.0217 36.7695 70.0217C37.0892 70.0217 37.2054 69.9925 37.3217 69.8757C37.5542 69.7005 37.7867 69.3209 37.7867 68.6785C37.7867 67.5397 37.0311 67.2185 36.566 67.2185C36.3626 67.2185 36.2173 67.2185 36.1301 67.2477C36.0719 67.2769 36.0719 67.3061 36.0719 67.3645V69.7881H36.101Z" fill="#376A34"/>
<path d="M42.7545 70.8101C42.7254 70.8101 42.6963 70.8393 42.6963 70.8685L42.2604 72.0073C42.1732 72.2117 42.1441 72.3869 42.1441 72.5037C42.1441 72.6497 42.2023 72.7373 42.4638 72.7373H42.5801C42.6673 72.7373 42.6963 72.7665 42.6963 72.7957C42.6963 72.8541 42.6382 72.8833 42.551 72.8833C42.2894 72.8833 41.9407 72.8541 41.7082 72.8541C41.621 72.8541 41.185 72.8833 40.7781 72.8833C40.6619 72.8833 40.6328 72.8541 40.6328 72.7957C40.6328 72.7373 40.6619 72.7373 40.72 72.7373C40.7781 72.7373 40.8944 72.7373 40.9525 72.7081C41.3303 72.6497 41.4757 72.3869 41.621 71.9781L43.6264 66.9557C43.7136 66.7221 43.7717 66.6345 43.8589 66.6345C43.917 66.6345 43.9751 66.6929 44.0623 66.8973C44.2658 67.3353 45.5155 70.6057 46.0387 71.8029C46.3293 72.5329 46.5618 72.6205 46.7362 72.6789C46.8525 72.7081 46.9687 72.7081 47.0559 72.7081C47.114 72.7081 47.1722 72.7081 47.1722 72.7665C47.1722 72.8249 47.114 72.8541 46.7943 72.8541C46.5037 72.8541 45.9224 72.8541 45.283 72.8249C45.1377 72.8249 45.0505 72.8249 45.0505 72.7665C45.0505 72.7081 45.0796 72.7081 45.1668 72.7081C45.2249 72.6789 45.283 72.6205 45.2249 72.5329L44.5855 70.8393C44.5564 70.8101 44.5564 70.7809 44.4983 70.7809H42.7545V70.8101ZM44.382 70.4013C44.4111 70.4013 44.4402 70.3721 44.4111 70.3429L43.6845 68.3573C43.6845 68.3281 43.6554 68.2989 43.6554 68.2989C43.6554 68.2989 43.6264 68.3281 43.5973 68.3573L42.8707 70.3137C42.8707 70.3429 42.8707 70.3721 42.8998 70.3721H44.382V70.4013Z" fill="#376A34"/>
<path d="M50.2534 70.5766C50.2534 71.5986 50.2534 72.1534 50.4277 72.2994C50.5731 72.4162 50.7765 72.4746 51.3868 72.4746C51.8228 72.4746 52.1134 72.4746 52.3169 72.241C52.4041 72.1242 52.5203 71.9198 52.5203 71.7738C52.5203 71.7154 52.5494 71.657 52.6075 71.657C52.6656 71.657 52.6656 71.6862 52.6656 71.803C52.6656 71.8906 52.6075 72.5038 52.5494 72.7082C52.4913 72.8834 52.4622 72.9126 52.0553 72.9126C51.474 72.9126 51.0671 72.8834 50.7184 72.8834C50.3696 72.8542 50.079 72.8542 49.7593 72.8542C49.6721 72.8542 49.4977 72.8542 49.2942 72.8542C49.1199 72.8542 48.9164 72.8834 48.742 72.8834C48.6258 72.8834 48.5967 72.8542 48.5967 72.7958C48.5967 72.7666 48.6258 72.7374 48.713 72.7374C48.8292 72.7374 48.9164 72.7082 49.0036 72.7082C49.1489 72.679 49.2071 72.5038 49.2361 72.2702C49.2652 71.9198 49.2652 71.3066 49.2652 70.5766V69.175C49.2652 67.9486 49.2652 67.7442 49.2361 67.4814C49.2071 67.2186 49.1489 67.0726 48.8874 67.0142C48.8292 66.985 48.742 66.985 48.6258 66.985C48.5386 66.985 48.4805 66.9558 48.4805 66.9266C48.4805 66.8974 48.5386 66.8682 48.6548 66.8682C49.0327 66.8682 49.5268 66.8974 49.7593 66.8974C49.9627 66.8974 50.544 66.8682 50.8346 66.8682C50.9509 66.8682 51.009 66.8974 51.009 66.9266C51.009 66.9558 50.9509 66.985 50.8637 66.985C50.7765 66.985 50.6602 66.985 50.544 67.0142C50.3405 67.0434 50.2534 67.1894 50.2534 67.4814C50.2243 67.7442 50.2243 67.9486 50.2243 69.175V70.5766H50.2534Z" fill="#376A34"/>
<path d="M55.8326 70.8101C55.8035 70.8101 55.7745 70.8393 55.7745 70.8685L55.3385 72.0073C55.2513 72.2117 55.2223 72.3869 55.2223 72.5037C55.2223 72.6497 55.2804 72.7373 55.5419 72.7373H55.6582C55.7454 72.7373 55.7745 72.7665 55.7745 72.7957C55.7745 72.8541 55.7163 72.8833 55.6291 72.8833C55.3676 72.8833 55.0188 72.8541 54.7863 72.8541C54.6991 72.8541 54.2631 72.8833 53.8563 72.8833C53.74 72.8833 53.7109 72.8541 53.7109 72.7957C53.7109 72.7373 53.74 72.7373 53.7981 72.7373C53.8563 72.7373 53.9725 72.7373 54.0306 72.7081C54.4085 72.6497 54.5538 72.3869 54.6991 71.9781L56.7045 66.9557C56.7917 66.7221 56.8498 66.6345 56.937 66.6345C56.9951 66.6345 57.0533 66.6929 57.1405 66.8973C57.3439 67.3353 58.5936 70.6057 59.1168 71.8029C59.4074 72.5329 59.6399 72.6205 59.8143 72.6789C59.9306 72.7081 60.0468 72.7081 60.134 72.7081C60.1921 72.7081 60.2503 72.7081 60.2503 72.7665C60.2503 72.8249 60.1921 72.8541 59.8724 72.8541C59.5818 72.8541 59.0005 72.8541 58.3611 72.8249C58.2158 72.8249 58.1286 72.8249 58.1286 72.7665C58.1286 72.7081 58.1577 72.7081 58.2449 72.7081C58.303 72.6789 58.3611 72.6205 58.303 72.5329L57.6636 70.8393C57.6345 70.8101 57.6345 70.7809 57.5764 70.7809H55.8326V70.8101ZM57.4602 70.4013C57.4892 70.4013 57.5183 70.3721 57.4892 70.3429L56.7626 68.3573C56.7626 68.3281 56.7336 68.2989 56.7336 68.2989C56.7336 68.2989 56.7045 68.3281 56.6754 68.3573L55.9488 70.3137C55.9488 70.3429 55.9488 70.3721 55.9779 70.3721H57.4602V70.4013Z" fill="#376A34"/>
<path d="M66.3287 70.8101C66.2996 70.8101 66.2706 70.8393 66.2706 70.8685L65.8346 72.0073C65.7474 72.2117 65.7183 72.3869 65.7183 72.5037C65.7183 72.6497 65.7765 72.7373 66.038 72.7373H66.1543C66.2415 72.7373 66.2706 72.7665 66.2706 72.7957C66.2706 72.8541 66.2124 72.8833 66.1252 72.8833C65.8637 72.8833 65.5149 72.8541 65.2824 72.8541C65.1952 72.8541 64.7592 72.8833 64.3523 72.8833C64.2361 72.8833 64.207 72.8541 64.207 72.7957C64.207 72.7373 64.2361 72.7373 64.2942 72.7373C64.3524 72.7373 64.4686 72.7373 64.5267 72.7081C64.9046 72.6497 65.0499 72.3869 65.1952 71.9781L67.2006 66.9557C67.2878 66.7221 67.3459 66.6345 67.4331 66.6345C67.4912 66.6345 67.5494 66.6929 67.6366 66.8973C67.84 67.3353 69.0897 70.6057 69.6129 71.8029C69.9035 72.5329 70.136 72.6205 70.3104 72.6789C70.4267 72.7081 70.5429 72.7081 70.6301 72.7081C70.6882 72.7081 70.7464 72.7081 70.7464 72.7665C70.7464 72.8249 70.6882 72.8541 70.3685 72.8541C70.0779 72.8541 69.4966 72.8541 68.8572 72.8249C68.7119 72.8249 68.6247 72.8249 68.6247 72.7665C68.6247 72.7081 68.6538 72.7081 68.741 72.7081C68.7991 72.6789 68.8572 72.6205 68.7991 72.5329L68.1597 70.8393C68.1306 70.8101 68.1306 70.7809 68.0725 70.7809H66.3287V70.8101ZM67.9563 70.4013C67.9853 70.4013 68.0144 70.3721 67.9853 70.3429L67.2587 68.3573C67.2587 68.3281 67.2297 68.2989 67.2297 68.2989C67.2297 68.2989 67.2006 68.3281 67.1715 68.3573L66.4449 70.3137C66.4449 70.3429 66.4449 70.3721 66.474 70.3721H67.9563V70.4013Z" fill="#376A34"/>
<path d="M73.4482 70.8101C73.4482 70.3721 73.361 70.1969 73.2739 69.9633C73.2157 69.8465 72.1404 68.0653 71.8788 67.6565C71.6753 67.3645 71.4719 67.1601 71.3266 67.0725C71.2103 67.0141 71.0941 66.9557 71.0069 66.9557C70.9488 66.9557 70.8906 66.9265 70.8906 66.8973C70.8906 66.8389 70.9488 66.8389 71.0359 66.8389C71.1813 66.8389 71.7625 66.8681 72.0241 66.8681C72.1985 66.8681 72.5182 66.8389 72.867 66.8389C72.9542 66.8389 72.9832 66.8681 72.9832 66.8973C72.9832 66.9265 72.9251 66.9557 72.8088 66.9849C72.7507 67.0141 72.6926 67.0725 72.6926 67.1309C72.6926 67.1893 72.7216 67.2769 72.7798 67.3937C72.896 67.6273 74.0004 69.5545 74.1458 69.7881C74.233 69.5837 75.2211 67.8317 75.3374 67.5981C75.4246 67.4229 75.4536 67.2769 75.4536 67.1893C75.4536 67.1017 75.4246 67.0141 75.2792 66.9849C75.2211 66.9557 75.1339 66.9557 75.1339 66.8973C75.1339 66.8389 75.163 66.8389 75.2792 66.8389C75.5408 66.8389 75.8024 66.8681 76.0349 66.8681C76.2093 66.8681 76.7324 66.8389 76.8778 66.8389C76.9649 66.8389 77.0231 66.8681 77.0231 66.8973C77.0231 66.9557 76.9649 66.9849 76.8778 66.9849C76.7906 66.9849 76.6452 67.0141 76.529 67.0725C76.3546 67.1601 76.2674 67.2477 76.093 67.4521C75.8315 67.7733 74.727 69.6421 74.5817 69.9925C74.4655 70.2845 74.4655 70.5181 74.4655 70.7809V71.4233C74.4655 71.5401 74.4655 71.8905 74.4945 72.2117C74.5236 72.4453 74.5817 72.6205 74.8142 72.6497C74.9305 72.6789 75.1049 72.6789 75.2211 72.6789C75.3083 72.6789 75.3374 72.7081 75.3374 72.7373C75.3374 72.7957 75.2792 72.8249 75.163 72.8249C74.6689 72.8249 74.1748 72.7957 73.9423 72.7957C73.7389 72.7957 73.2448 72.8249 72.9542 72.8249C72.8379 72.8249 72.7798 72.7957 72.7798 72.7373C72.7798 72.7081 72.8088 72.6789 72.896 72.6789C73.0123 72.6789 73.0995 72.6497 73.1867 72.6497C73.332 72.6205 73.4192 72.4453 73.4192 72.2117C73.4482 71.8613 73.4482 71.5401 73.4482 71.4233V70.8101Z" fill="#376A34"/>
<path d="M78.8233 69.1457C78.8233 67.9193 78.8233 67.7149 78.7942 67.4521C78.7652 67.1893 78.7071 67.0433 78.4455 66.9849C78.3874 66.9557 78.242 66.9557 78.1258 66.9557C78.0386 66.9557 77.9805 66.9265 77.9805 66.8973C77.9805 66.8681 78.0386 66.8389 78.1549 66.8389C78.5908 66.8389 79.0849 66.8681 79.3174 66.8681C79.5208 66.8681 80.0149 66.8389 80.3056 66.8389C80.4218 66.8389 80.48 66.8681 80.48 66.8973C80.48 66.9265 80.4218 66.9557 80.3637 66.9557C80.2765 66.9557 80.2184 66.9557 80.1312 66.9849C79.9277 67.0141 79.8405 67.1601 79.8405 67.4521C79.8115 67.7149 79.8115 67.9193 79.8115 69.1457V70.2553C79.8115 71.4233 80.044 71.8905 80.4218 72.2117C80.7706 72.5037 81.1484 72.5329 81.41 72.5329C81.7588 72.5329 82.1947 72.4161 82.5144 72.0949C82.9504 71.6569 82.9794 70.9269 82.9794 70.1093V69.1165C82.9794 67.8901 82.9794 67.6857 82.9504 67.4229C82.9213 67.1601 82.8632 67.0141 82.6016 66.9557C82.5435 66.9265 82.3982 66.9265 82.311 66.9265C82.2238 66.9265 82.1656 66.8973 82.1656 66.8681C82.1656 66.8389 82.2238 66.8097 82.34 66.8097C82.7469 66.8097 83.241 66.8389 83.241 66.8389C83.3282 66.8389 83.8513 66.8097 84.142 66.8097C84.2582 66.8097 84.3164 66.8389 84.3164 66.8681C84.3164 66.8973 84.2582 66.9265 84.171 66.9265C84.0838 66.9265 84.0257 66.9265 83.9385 66.9557C83.7351 66.9849 83.6479 67.1309 83.6479 67.4229C83.6188 67.6857 83.6188 67.8901 83.6188 69.1165V69.9633C83.6188 70.8393 83.5316 71.8029 82.8632 72.3577C82.311 72.8541 81.7297 72.9417 81.2065 72.9417C80.7706 72.9417 80.0149 72.9125 79.4337 72.3869C79.0268 72.0073 78.7361 71.4233 78.7361 70.2553V69.1457H78.8233Z" fill="#376A34"/>
<path d="M87.2257 69.1457C87.2257 67.9193 87.2257 67.7149 87.1966 67.4521C87.1675 67.1893 87.1094 67.0433 86.8478 66.9849C86.7897 66.9557 86.6444 66.9557 86.5281 66.9557C86.4409 66.9557 86.3828 66.9265 86.3828 66.8973C86.3828 66.8681 86.4409 66.8389 86.5572 66.8389C86.9932 66.8389 87.4872 66.8681 87.6616 66.8681C87.9232 66.8681 88.5335 66.8389 88.7951 66.8389C89.2892 66.8389 89.8414 66.8973 90.2483 67.1893C90.4808 67.3353 90.8005 67.7441 90.8005 68.2989C90.8005 68.8829 90.568 69.4377 89.7542 70.0801C90.4517 70.9853 91.0039 71.6861 91.469 72.1825C91.9049 72.6497 92.2537 72.7081 92.3699 72.7373C92.4571 72.7665 92.5153 72.7665 92.6024 72.7665C92.6896 72.7665 92.6896 72.7957 92.6896 72.8249C92.6896 72.8833 92.6315 72.9125 92.5443 72.9125H91.7887C91.3527 72.9125 91.1493 72.8833 90.9458 72.7665C90.5971 72.5913 90.3064 72.2117 89.8414 71.5985C89.5217 71.1605 89.1439 70.6057 89.0567 70.4889C89.0276 70.4305 88.9695 70.4305 88.9114 70.4305L88.2138 70.4013C88.1848 70.4013 88.1557 70.4305 88.1557 70.4597V70.5765C88.1557 71.3065 88.1557 71.9489 88.1848 72.2993C88.2138 72.5329 88.2429 72.7081 88.5045 72.7373C88.6207 72.7665 88.7951 72.7665 88.8823 72.7665C88.9404 72.7665 88.9695 72.7957 88.9695 72.8249C88.9695 72.8833 88.9114 72.9125 88.8242 72.9125C88.3591 72.9125 87.7779 72.8833 87.6616 72.8833C87.5163 72.8833 87.0222 72.9125 86.7025 72.9125C86.5863 72.9125 86.5572 72.8833 86.5572 72.8249C86.5572 72.7957 86.5863 72.7665 86.6734 72.7665C86.7897 72.7665 86.8769 72.7373 86.9641 72.7373C87.1094 72.7081 87.1675 72.5329 87.1966 72.2993C87.2257 71.9489 87.2257 71.3357 87.2257 70.6057V69.1457ZM88.1557 69.7881C88.1557 69.8757 88.1848 69.9049 88.2138 69.9341C88.3882 69.9925 88.6207 70.0217 88.8242 70.0217C89.1439 70.0217 89.2601 69.9925 89.3764 69.8757C89.6089 69.7005 89.8414 69.3209 89.8414 68.6785C89.8414 67.5397 89.0857 67.2185 88.6207 67.2185C88.4173 67.2185 88.272 67.2185 88.1848 67.2477C88.1266 67.2769 88.1266 67.3061 88.1266 67.3645V69.7881H88.1557Z" fill="#376A34"/>
<path d="M93.5602 67.6274C93.3858 67.1894 93.2405 67.1018 92.9499 67.0142C92.8336 66.985 92.7173 66.985 92.6302 66.985C92.572 66.985 92.543 66.9558 92.543 66.9266C92.543 66.8682 92.6302 66.8682 92.7464 66.8682C93.1824 66.8682 93.6183 66.8974 93.909 66.8974C94.1124 66.8974 94.4902 66.8682 94.8971 66.8682C94.9843 66.8682 95.0715 66.8974 95.0715 66.9266C95.0715 66.9558 95.0134 66.985 94.9553 66.985C94.839 66.985 94.7227 66.985 94.6356 67.0434C94.5774 67.0726 94.5484 67.131 94.5484 67.2186C94.5484 67.3354 94.6065 67.5398 94.7227 67.8318L96.0887 71.4526H96.1178C96.4666 70.5766 97.4838 68.007 97.6872 67.4814C97.7163 67.3646 97.7454 67.2478 97.7454 67.1894C97.7454 67.131 97.7163 67.0726 97.6291 67.0434C97.5419 67.0142 97.4257 67.0142 97.3094 67.0142C97.2513 67.0142 97.1641 67.0142 97.1641 66.9558C97.1641 66.8974 97.2222 66.8682 97.3966 66.8682C97.8035 66.8682 98.1232 66.8974 98.2395 66.8974C98.3848 66.8974 98.7626 66.8682 98.9951 66.8682C99.1114 66.8682 99.1695 66.8974 99.1695 66.9266C99.1695 66.9558 99.1114 66.985 99.0532 66.985C98.9951 66.985 98.8207 66.985 98.6754 67.0726C98.5592 67.131 98.4429 67.277 98.2395 67.8026C97.9198 68.5618 97.7163 68.9998 97.2804 69.9634C96.7572 71.1314 96.4084 72.0074 96.2341 72.387C96.0306 72.8542 95.9725 72.971 95.8562 72.971C95.74 72.971 95.7109 72.8542 95.5656 72.4746L93.5602 67.6274Z" fill="#376A34"/>
<path d="M101.319 69.1457C101.319 67.9193 101.319 67.7149 101.29 67.4521C101.261 67.1893 101.203 67.0433 100.942 66.9849C100.883 66.9557 100.738 66.9557 100.622 66.9557C100.535 66.9557 100.477 66.9265 100.477 66.8973C100.477 66.8681 100.535 66.8389 100.651 66.8389C100.854 66.8389 101.087 66.8389 101.29 66.8389C101.494 66.8389 101.668 66.8681 101.784 66.8681C102.046 66.8681 103.615 66.8681 103.761 66.8681C103.906 66.8389 104.051 66.8389 104.109 66.8097C104.139 66.8097 104.197 66.7805 104.226 66.7805C104.255 66.7805 104.284 66.8097 104.284 66.8389C104.284 66.8973 104.255 66.9849 104.226 67.3645C104.226 67.4521 104.197 67.8025 104.197 67.8901C104.197 67.9193 104.168 67.9777 104.109 67.9777C104.051 67.9777 104.051 67.9485 104.051 67.8609C104.051 67.8025 104.051 67.6565 103.993 67.5689C103.935 67.4229 103.848 67.3353 103.47 67.2769C103.325 67.2477 102.511 67.2477 102.337 67.2477C102.308 67.2477 102.278 67.2769 102.278 67.3353V69.3501C102.278 69.4085 102.278 69.4377 102.337 69.4377C102.511 69.4377 103.441 69.4377 103.615 69.4085C103.819 69.3793 103.935 69.3793 103.993 69.2917C104.051 69.2333 104.08 69.1749 104.109 69.1749C104.139 69.1749 104.168 69.2041 104.168 69.2333C104.168 69.2625 104.139 69.4085 104.109 69.8173C104.109 69.9633 104.08 70.2845 104.08 70.3429C104.08 70.4013 104.08 70.4889 104.022 70.4889C103.964 70.4889 103.964 70.4597 103.964 70.4305C103.964 70.3429 103.964 70.2553 103.935 70.1385C103.906 69.9925 103.79 69.8465 103.499 69.8173C103.354 69.7881 102.569 69.7881 102.366 69.7881C102.337 69.7881 102.308 69.8173 102.308 69.8757V70.5181C102.308 70.7809 102.308 71.5109 102.308 71.7445C102.337 72.2993 102.453 72.4161 103.267 72.4161C103.47 72.4161 103.819 72.4161 104.022 72.3285C104.226 72.2409 104.313 72.0657 104.371 71.7445C104.4 71.6569 104.4 71.6277 104.458 71.6277C104.516 71.6277 104.516 71.6861 104.516 71.7737C104.516 71.9489 104.458 72.5037 104.4 72.6497C104.342 72.8541 104.284 72.8541 103.964 72.8541C103.354 72.8541 102.918 72.8249 102.598 72.8249C102.249 72.7957 102.017 72.7957 101.784 72.7957C101.697 72.7957 101.523 72.7957 101.319 72.7957C101.145 72.7957 100.942 72.8249 100.767 72.8249C100.651 72.8249 100.622 72.7957 100.622 72.7373C100.622 72.7081 100.651 72.6789 100.738 72.6789C100.854 72.6789 100.942 72.6497 101.029 72.6497C101.174 72.6205 101.232 72.4453 101.261 72.2117C101.29 71.8613 101.29 71.2481 101.29 70.5181V69.1457H101.319Z" fill="#376A34"/>
<path d="M107.624 69.1457C107.624 67.9193 107.624 67.7149 107.595 67.4521C107.566 67.1893 107.508 67.0433 107.246 66.9849C107.188 66.9557 107.043 66.9557 106.927 66.9557C106.839 66.9557 106.781 66.9265 106.781 66.8973C106.781 66.8681 106.839 66.8389 106.956 66.8389C107.392 66.8389 107.886 66.8681 108.089 66.8681C108.322 66.8681 108.845 66.8389 109.31 66.8389C110.298 66.8389 111.635 66.8389 112.507 67.7441C112.914 68.1529 113.292 68.8245 113.292 69.7881C113.292 70.7809 112.856 71.5693 112.42 72.0073C112.042 72.3869 111.228 72.9417 109.746 72.9417C109.455 72.9417 109.135 72.9125 108.845 72.8833C108.554 72.8541 108.263 72.8249 108.06 72.8249C107.973 72.8249 107.798 72.8249 107.595 72.8249C107.421 72.8249 107.217 72.8541 107.043 72.8541C106.927 72.8541 106.898 72.8249 106.898 72.7665C106.898 72.7373 106.927 72.7081 107.014 72.7081C107.13 72.7081 107.217 72.6789 107.304 72.6789C107.45 72.6497 107.508 72.4745 107.537 72.2409C107.566 71.8905 107.566 71.2773 107.566 70.5473V69.1457H107.624ZM108.612 70.0509C108.612 70.8977 108.612 71.5109 108.641 71.6569C108.641 71.8613 108.67 72.1825 108.729 72.2701C108.845 72.4161 109.135 72.5913 109.775 72.5913C110.589 72.5913 111.141 72.4453 111.606 72.0073C112.129 71.5693 112.274 70.8393 112.274 70.0217C112.274 68.9997 111.838 68.3573 111.519 68.0361C110.792 67.3353 109.891 67.2477 109.252 67.2477C109.106 67.2477 108.787 67.2769 108.729 67.3061C108.67 67.3353 108.641 67.3645 108.641 67.4521C108.641 67.7149 108.641 68.4157 108.641 69.0581V70.0509H108.612Z" fill="#376A34"/>
<path d="M116.665 70.8101C116.636 70.8101 116.606 70.8393 116.606 70.8685L116.171 72.0073C116.083 72.2117 116.054 72.3869 116.054 72.5037C116.054 72.6497 116.112 72.7373 116.374 72.7373H116.49C116.577 72.7373 116.606 72.7665 116.606 72.7957C116.606 72.8541 116.548 72.8833 116.461 72.8833C116.2 72.8833 115.851 72.8541 115.618 72.8541C115.531 72.8541 115.095 72.8833 114.688 72.8833C114.572 72.8833 114.543 72.8541 114.543 72.7957C114.543 72.7373 114.572 72.7373 114.63 72.7373C114.688 72.7373 114.805 72.7373 114.863 72.7081C115.241 72.6497 115.386 72.3869 115.531 71.9781L117.537 66.9557C117.624 66.7221 117.682 66.6345 117.769 66.6345C117.827 66.6345 117.885 66.6929 117.972 66.8973C118.176 67.3353 119.426 70.6057 119.949 71.8029C120.239 72.5329 120.472 72.6205 120.646 72.6789C120.763 72.7081 120.879 72.7081 120.966 72.7081C121.024 72.7081 121.082 72.7081 121.082 72.7665C121.082 72.8249 121.024 72.8541 120.704 72.8541C120.414 72.8541 119.833 72.8541 119.193 72.8249C119.048 72.8249 118.961 72.8249 118.961 72.7665C118.961 72.7081 118.99 72.7081 119.077 72.7081C119.135 72.6789 119.193 72.6205 119.135 72.5329L118.496 70.8393C118.467 70.8101 118.467 70.7809 118.408 70.7809H116.665V70.8101ZM118.263 70.4013C118.292 70.4013 118.321 70.3721 118.292 70.3429L117.566 68.3573C117.566 68.3281 117.537 68.2989 117.537 68.2989C117.537 68.2989 117.507 68.3281 117.478 68.3573L116.752 70.3137C116.752 70.3429 116.752 70.3721 116.781 70.3721H118.263V70.4013Z" fill="#376A34"/>
</g>
<defs>
<clipPath id="clip0_132_56">
<rect width="140" height="73" fill="white" transform="translate(0.5)"/>
</clipPath>
</defs>
</svg>
