<svg width="15" height="16" viewBox="0 0 15 16" fill="none" xmlns="http://www.w3.org/2000/svg">
<path d="M11.875 2.1814C12.2065 2.1814 12.5245 2.31309 12.7589 2.54751C12.9933 2.78193 13.125 3.09988 13.125 3.4314V12.1814C13.125 12.5129 12.9933 12.8309 12.7589 13.0653C12.5245 13.2997 12.2065 13.4314 11.875 13.4314H3.125C2.79348 13.4314 2.47554 13.2997 2.24112 13.0653C2.0067 12.8309 1.875 12.5129 1.875 12.1814V3.4314C1.875 3.09988 2.0067 2.78193 2.24112 2.54751C2.47554 2.31309 2.79348 2.1814 3.125 2.1814H11.875ZM11.5625 11.8689V8.5564C11.5625 8.01602 11.3478 7.49777 10.9657 7.11567C10.5836 6.73356 10.0654 6.5189 9.525 6.5189C8.99375 6.5189 8.375 6.8439 8.075 7.3314V6.63765H6.33125V11.8689H8.075V8.78765C8.075 8.3064 8.4625 7.91265 8.94375 7.91265C9.17581 7.91265 9.39837 8.00483 9.56247 8.16893C9.72656 8.33302 9.81875 8.55558 9.81875 8.78765V11.8689H11.5625ZM4.3 5.6564C4.57848 5.6564 4.84555 5.54577 5.04246 5.34886C5.23938 5.15195 5.35 4.88487 5.35 4.6064C5.35 4.02515 4.88125 3.55015 4.3 3.55015C4.01987 3.55015 3.7512 3.66143 3.55312 3.85951C3.35503 4.0576 3.24375 4.32626 3.24375 4.6064C3.24375 5.18765 3.71875 5.6564 4.3 5.6564ZM5.16875 11.8689V6.63765H3.4375V11.8689H5.16875Z" fill="#002A24"/>
</svg>
