<svg width="15" height="16" viewBox="0 0 15 16" fill="none" xmlns="http://www.w3.org/2000/svg">
<path d="M8.14286 1.55717C8.59894 1.55542 9.05503 1.56 9.51099 1.57092L9.63224 1.57529C9.77224 1.58029 9.91036 1.58654 10.0772 1.59404C10.7422 1.62529 11.196 1.73029 11.5941 1.88467C12.0066 2.04342 12.3541 2.25842 12.7016 2.60592C13.0193 2.91817 13.2653 3.29588 13.4222 3.71279C13.5766 4.11092 13.6816 4.56529 13.7129 5.23029C13.7204 5.39654 13.7266 5.53529 13.7316 5.67529L13.7354 5.79654C13.7465 6.25229 13.7513 6.70816 13.7497 7.16404L13.7504 7.63029V8.44904C13.7519 8.90513 13.7471 9.36121 13.736 9.81717L13.7322 9.93842C13.7272 10.0784 13.721 10.2165 13.7135 10.3834C13.6822 11.0484 13.576 11.5022 13.4222 11.9003C13.2658 12.3176 13.0198 12.6957 12.7016 13.0078C12.3891 13.3255 12.0112 13.5714 11.5941 13.7284C11.196 13.8828 10.7422 13.9878 10.0772 14.019C9.91036 14.0265 9.77224 14.0328 9.63224 14.0378L9.51099 14.0415C9.05503 14.0527 8.59895 14.0574 8.14286 14.0559L7.67661 14.0565H6.85849C6.4024 14.0581 5.94631 14.0533 5.49036 14.0422L5.36911 14.0384C5.22074 14.033 5.07241 14.0268 4.92411 14.0197C4.25911 13.9884 3.80536 13.8822 3.40661 13.7284C2.98954 13.5718 2.61176 13.3258 2.29974 13.0078C1.98164 12.6955 1.7355 12.3175 1.57849 11.9003C1.42411 11.5022 1.31911 11.0484 1.28786 10.3834C1.2809 10.2351 1.27465 10.0868 1.26911 9.93842L1.26599 9.81717C1.25446 9.36122 1.24925 8.90513 1.25036 8.44904V7.16404C1.24862 6.70817 1.2532 6.25229 1.26411 5.79654L1.26849 5.67529C1.27349 5.53529 1.27974 5.39654 1.28724 5.23029C1.31849 4.56467 1.42349 4.11154 1.57786 3.71279C1.73497 3.29568 1.98159 2.91807 2.30036 2.60654C2.61217 2.28826 2.98971 2.0419 3.40661 1.88467C3.80536 1.73029 4.25849 1.62529 4.92411 1.59404L5.36911 1.57529L5.49036 1.57217C5.9461 1.56065 6.40198 1.55544 6.85786 1.55654L8.14286 1.55717ZM7.50036 4.68217C7.0863 4.67631 6.67521 4.75281 6.29097 4.90721C5.90673 5.06161 5.55701 5.29084 5.26214 5.58157C4.96726 5.87231 4.73311 6.21875 4.57329 6.60077C4.41347 6.98278 4.33117 7.39275 4.33117 7.80685C4.33117 8.22095 4.41347 8.63092 4.57329 9.01294C4.73311 9.39495 4.96726 9.7414 5.26214 10.0321C5.55701 10.3229 5.90673 10.5521 6.29097 10.7065C6.67521 10.8609 7.0863 10.9374 7.50036 10.9315C8.32916 10.9315 9.12402 10.6023 9.71007 10.0162C10.2961 9.4302 10.6254 8.63534 10.6254 7.80654C10.6254 6.97774 10.2961 6.18288 9.71007 5.59683C9.12402 5.01078 8.32916 4.68217 7.50036 4.68217ZM7.50036 5.93217C7.74943 5.92758 7.99691 5.97266 8.22836 6.06479C8.4598 6.15693 8.67057 6.29425 8.84835 6.46876C9.02612 6.64326 9.16735 6.85144 9.26376 7.08113C9.36018 7.31082 9.40986 7.55743 9.4099 7.80653C9.40994 8.05564 9.36035 8.30226 9.264 8.53199C9.16766 8.76171 9.02651 8.96994 8.84879 9.1445C8.67108 9.31906 8.46035 9.45646 8.22894 9.54867C7.99752 9.64088 7.75005 9.68605 7.50099 9.68154C7.0037 9.68154 6.52679 9.484 6.17516 9.13237C5.82353 8.78074 5.62599 8.30382 5.62599 7.80654C5.62599 7.30926 5.82353 6.83235 6.17516 6.48071C6.52679 6.12908 7.0037 5.93154 7.50099 5.93154L7.50036 5.93217ZM10.7816 3.74467C10.58 3.75274 10.3893 3.83851 10.2495 3.98402C10.1097 4.12954 10.0316 4.3235 10.0316 4.52529C10.0316 4.72708 10.1097 4.92105 10.2495 5.06656C10.3893 5.21207 10.58 5.29785 10.7816 5.30592C10.9888 5.30592 11.1875 5.22361 11.334 5.07709C11.4806 4.93058 11.5629 4.73187 11.5629 4.52467C11.5629 4.31747 11.4806 4.11875 11.334 3.97224C11.1875 3.82573 10.9888 3.74342 10.7816 3.74342V3.74467Z" fill="#002A24"/>
</svg>
