<svg width="15" height="16" viewBox="0 0 15 16" fill="none" xmlns="http://www.w3.org/2000/svg">
<path d="M13.8806 3.84123C13.4037 4.05223 12.8979 4.19084 12.38 4.25248C12.9257 3.92569 13.3339 3.41169 13.5287 2.80623C13.0162 3.11123 12.4544 3.32498 11.8694 3.4406C11.476 3.01972 10.9546 2.74058 10.3862 2.64659C9.81784 2.55261 9.23434 2.64904 8.72642 2.92089C8.21849 3.19274 7.81462 3.62478 7.57757 4.14985C7.34052 4.67492 7.28359 5.26359 7.41562 5.82435C6.37621 5.77235 5.35935 5.50231 4.43109 5.03177C3.50282 4.56123 2.6839 3.90071 2.0275 3.0931C1.79518 3.49214 1.6731 3.94575 1.67375 4.40748C1.67375 5.31373 2.13562 6.11435 2.83625 6.5831C2.42126 6.57001 2.0154 6.45794 1.6525 6.25623V6.2881C1.65248 6.89177 1.86127 7.47687 2.24346 7.94415C2.62564 8.41143 3.1577 8.73213 3.74937 8.85185C3.36415 8.95636 2.96018 8.97175 2.56812 8.89685C2.73495 9.41647 3.06013 9.8709 3.49812 10.1965C3.93611 10.5221 4.46497 10.7025 5.01062 10.7125C4.46835 11.1384 3.84743 11.4532 3.18338 11.639C2.51933 11.8247 1.82518 11.8777 1.14062 11.795C2.33545 12.5633 3.72632 12.9713 5.14687 12.97C9.95562 12.97 12.5844 8.98685 12.5844 5.53248C12.5844 5.41998 12.5819 5.30623 12.5769 5.19435C13.0884 4.82458 13.5299 4.36595 13.8806 3.84123Z" fill="#002A24"/>
</svg>
