<svg width="15" height="16" viewBox="0 0 15 16" fill="none" xmlns="http://www.w3.org/2000/svg">
<path d="M7.6525 2.8064C7.98625 2.80827 8.82125 2.8164 9.70875 2.85202L10.0238 2.86577C10.9169 2.90765 11.8094 2.98015 12.2525 3.10327C12.8431 3.26952 13.3069 3.75327 13.4637 4.36702C13.7137 5.34202 13.745 7.24327 13.7487 7.7039L13.7494 7.7989V7.90765C13.745 8.36827 13.7137 10.2701 13.4637 11.2445C13.305 11.8601 12.8406 12.3445 12.2525 12.5083C11.8094 12.6314 10.9169 12.7039 10.0238 12.7458L9.70875 12.7601C8.82125 12.7951 7.98625 12.8039 7.6525 12.8051L7.50562 12.8058H7.34625C6.64 12.8014 3.68625 12.7695 2.74625 12.5083C2.15625 12.342 1.69188 11.8583 1.535 11.2445C1.285 10.2695 1.25375 8.36827 1.25 7.90765V7.7039C1.25375 7.24327 1.285 5.3414 1.535 4.36702C1.69375 3.7514 2.15813 3.26702 2.74687 3.1039C3.68625 2.84202 6.64063 2.81015 7.34688 2.8064H7.6525ZM6.24937 5.6189V9.9939L9.99937 7.8064L6.24937 5.6189Z" fill="#002A24"/>
</svg>
